<mxfile host="app.diagrams.net" modified="2024-01-06T20:34:16.389Z" agent="Mozilla/5.0 (Windows NT 10.0; Win64; x64) AppleWebKit/537.36 (KHTML, like Gecko) Chrome/120.0.0.0 Safari/537.36" etag="GS8Z1paTRHiETDp3m42I" version="22.1.17" type="github">
  <diagram name="Page-1" id="JOEXMZXgU_PxQnjJMwRq">
    <mxGraphModel dx="1900" dy="530" grid="1" gridSize="10" guides="1" tooltips="1" connect="1" arrows="1" fold="1" page="1" pageScale="1" pageWidth="850" pageHeight="1100" math="0" shadow="0">
      <root>
        <mxCell id="0" />
        <mxCell id="1" parent="0" />
        <mxCell id="LNoz9r7LhRh53aWZ0VOm-23" value="" style="shape=image;verticalLabelPosition=bottom;labelBackgroundColor=default;verticalAlign=top;aspect=fixed;imageAspect=0;image=data:image/png,iVBORw0KGgoAAAANSUhEUgAAADYAAAA2CAYAAACMRWrdAAAAAXNSR0IArs4c6QAAAARnQU1BAACxjwv8YQUAAAAJcEhZcwAAFxEAABcRAcom8z8AAAe8SURBVGhD1ZpLaJxVFMezdOlSbB5NaybzSMGNxYUVoSKlFhFL7aShTX3ExtjY6XzfZKYzqY0VWyup06ZJJ22nGXATcBMQIQhCFyJBFOqi0oVIQdGCDwoqiNmM53fuvdOmfmkeTSafF06YfI/7nf89557zP/fehtVo6148/HjTbn9/U6c3ZMS/cqc0dnpFvZ70U+t2e0+1dB97wL4avtbYmX6+sTNTEaVvivJVlaR3VcEk/SkHkmccQPdcY9L7W5+RwWjpPvSg7XLtWsvu7HpRaLIx6d+ySgIi1dZ3enuiUBlCOo5OVDoGJ67EM6WZmD/6Jb87ChOT7n40c26HWlf7EYA6IP4UlrSfqV9r2eU/ZNxJRrvTvyGW6Y0eGnlBlC7GMuM/RvqHq60vH1OxgP8jrS+9pfc39p6stntjvzEAmwrlXdJvUu5ba3rTD+/xH7WfXd2m7iQWUpcT63TkK73xzPgvbW+cqrbsK6jSzV3Z6sYD71a5hkTT56pRb7QmbQff1+uAatmXN+/szcn/J6qR9MifWLK5O7/TurIMXqayai5Kx4ykcTtvKJ4rdcWy498B4E7FULxjsLIkiWfHFagbGCyJFRP5Sgo3ZRDxjBW3XktnOiqArtP5hgPHtyeOXPz8kddPVZv2ZBRQ5M1ioMLLEQYGNwXghp53qrh2zD//tBtUgpRV6/4ak9gGh5nowZFnI97YH4DB3XApCQSBCt6vtB8+a9xUBi9y6IPZeKHcIwNbAjBTwKq3vCaAttmOJum4PVWc5UOMaCJfDlRoRUUGDfdGB1yV4AQo1Ummg1Vzac26n5g+U2EyYx065EOrZaX5JNJ/Wi2Ha8Zz5Y+JwuhCBLXqLq4RKDSMi/vFs+V+B4oPBH24HsLcw/1bXxmS/yeKpBvyHizHqn3vBr0REEJ7/BvkJnW/NQblJOqPqeVIE6QZ8hwRE6Jg1Z+/NSYzJ3FBoh85xXQk7hfwobWQ9tQZM+cODs/CWkTX63iWVT+4KaMwvC2VyI5fI/qRU+o9pxYSTTUCrj018nvjvvxmft8zDajfimmhNpgbYHWJfssQBnx996D81kg5BUuxMOY2sjrIm5N+fyx74QfNH8L5gjoNg8QGStZqxdnm197e6jzNwrndHGpozIZXj6u1wuaCd4vTM5a/fNF5m4VjGpEQxM3JgR44mo6EZP6gzsIkidwlw0zEsyJ97z2B3nPKHUGaBFh79vxOJiZUJqijMAokHCbUUajk8DgsZ2GpG06SExKDEyVAAS6okzAKnoWlpEL4Qksqyb8KyrihkFwpD+KZ87/yEIkwqJNQisQBdUepMJr2H92C/tDBGtGFZUA0NWgEdRBigWYRSDYNVqR2gwqmc7hhin8guqZUDw/LWKw4ksxUMjQrU1EKJRabcfNLa6yAl8MsLD3oPMuNf2JWwbxpiYjyQ3JYojAxxc2VrIbrJS5ZxzJj3xBAlIXIBZh8SdB+zU3QB70cZtF8hlEOn71JraaJ2rBjb0gi4U+KWtAHvRx2UWDibZBhfosrmijSnh5VxsGKUdCLYRcHDOahwOSPrqXHBsa/5cJyls/WWqhAFFjq7F+6XCcsyrAOEaH/09ykkAt6OcyClykwf1S9T9kH1sJqLDGTnMNcqswneBnAoFUOj7iiQUiCpnD7P/FEJ265AOM4D7TM3r+VKJT31phywMthFtiSVtMwfCEbWE3XOUDb1JV7rj018g+/yQtBHYRVlDEJz430ndGaDP6rDN+g9Esd+UufmsJt7ZfaFiu1JYL0uZ9dRKztkJp55t2EHbPaqitTAZ2EUVxFIlz3JNRQ55drujMpqOWBHToRxWr/CwYitRigWFFL5MrP6IKOWM3CMg3iaPNZkYlIfRPYWYiE1KTlSnb8muieMm541wah41gsZbll7TBX0rANZ61N2fKTTCWNhkHNWm0Kf729IBnc8VqLW9ClBqtZSyK8hTK3uWWC5r2ZXW4ZLoyFpzINjd7DQnzP6GIpBbOFEdywGJZjmVt9GJcMUY0Wz17U7SRiAGyJNIUbLngIhggJE9FAIpmcrE5HoShnJAoyPZC5G4CL3Jc2+84cJknnEkfKHzHfyO6MVuAH6yECitUo5pWWWF05E95FR6v24pobDeYbywaMEpZbi3qNAa19Xyp9lrOdV1l1l9YInzoqMjqYHr+uN+Ui5QAIYFhKQWnV788sOK/ma7zIqGA5QippgDDL/7rRvYquSZ6CLjGQDKiGdXU/LOVdXZGTOoAyk9QvUd7onpT4Oh9VOrPCm4NEY/rHUqQboh9TQ71HBnrZlgpqRB4dLalOW3tOPBYfvPyhKiAfRyhQ74epEHXpjyBVG7Dchc/aMiNbmBLqNcs927FQY9dTwLGZzRmLIsmRj7utJ64rzZGClV0QAk2Qu2Jh7iEAuPtwGXMJUounMJgqSz3TsZymbgE3Uwt6Q/GBS5shz9GBse9xHXcWajECKMCxUc4ye7xQ2WYOhvk3HKNYtZNvQU0DC/tRxj1FSW8awJG+4a1s9wpQPXzJ6izMhUCAYElAiLW+4hkCknW3JPPH9adH+ebjfvVo5hSPl0SRGkhbAgHcgt9G0ndCUtXr5tBX7QitvAOd611TQPM1w1p0B8cdbL59RtiKYQzuvnK95IpGuoaGhn8BDSxpvN7y7VIAAAAASUVORK5CYII=;" parent="1" vertex="1">
          <mxGeometry x="292.81" y="450" width="54" height="54" as="geometry" />
        </mxCell>
        <mxCell id="LNoz9r7LhRh53aWZ0VOm-24" value="" style="shape=image;verticalLabelPosition=bottom;labelBackgroundColor=default;verticalAlign=top;aspect=fixed;imageAspect=0;image=data:image/png,iVBORw0KGgoAAAANSUhEUgAAAPIAAABoCAYAAADLla2BAAAAAXNSR0IArs4c6QAAAARnQU1BAACxjwv8YQUAAAAJcEhZcwAAFxEAABcRAcom8z8AAA5pSURBVHhe7Z1PaBznGYflnd2ZXUmxrUiWJXmtlWKSyLGj2rJcW7IDBYcQnBBKQmh6aDGFgi8BHXrwUTcdffRRkIshF0MpmEDBlFJMSEFQElxoIIcm5NCAoA6YuIfp+7w731qyx4kk73pH698Hj0fe/zN877x/v/frK/ioGr8wPjCWM24at4ToMCsG8425xxxkLmpscZwwlgyE9Z6RbmDNCBd51QiCLUQ7uWaEeXbb2DgHmZPMzSvGWUNjw3jTuG6sG1wsjjeMK31R9Ebl+SO/TRqLl2rT55ar04s3a9OLt5zJ+b+WR2e+SMaPp0I8KeWDR/+V1E/cbs0v59xyrbF4OT5w7N0oHnzX5iRKhrn6rREEm7l6yXgmNfaMgekSLgh3vqWof+QiF84u4PV4fPa7ePTltLz/cBr1D6el5LlwVxTiqbCnUktL1X0+BysjR9LK2NG71elzN2qNc0vxvvov7TWXDQSZ1yPUWIoopp4f+BrhxBHilei5Qxft7reSTJz8ujI87UK7p1RuXUwuJI9xMeMDLz5yJzWhF+KJSQ6d2DSv4rFXmkpkcNTnYN+eUnNO2jGqDaWVoUYaT8z+1967Go/MvGXPIdS4f7zujoGW7rmBAONzcJJrpVLyOzRvMjn/GXc67nw8hwAjtDxWrc/lXnAhukX18LwrE4R7Tzlpzlk7IvBJfe7f1ca5K1EyfMEex/zm+a8MzPFdb3ZjQhMc4KRu4mfYBVnmThYNjDwQXrsw0q5it4GyKe+vp3ui2Ocy7l88cuS+PbdaHhw/b49havMcGnpXmtzcgYgA4jesRfH+t8y3uJaMHfvBzRRO2o7c3WpTC7kXSYjdBKZ4SzmZlva53Vj4ONo3iYYOygy3cszYFYMUEncgos9LBAYq48fvBgHGv5D2Fb0K5nf5uTH3pdHULtDTiyt9UfSOzX9MbeSC3HShB5E8z7URAEgmf/4PP6lMAxNQyDt5IXqN6uTptLx34oH1eejEf2qTp963/1/lMYOsTSEHSXJ+4DUPz4++7P7vg7tS/gkL0cskE7Ot1Cn+NC6m/U1EO+SgCxMI44c0o3Sl0of8UH4w/0cbVxtnck9QiGcJ0lUhdUUxU5QMvG4ygplNymrK6OrAcaeYYz2K+t+uNc78hfQRP5gUUt4JCfGsgnbGQiXdWj0092UWCEOQqanoWsknQS2c9zsUdZBHK8UDbk4rmCVEPgTDgpxQKRYfnH3bZAgTG1P7qQfBEGK++FZt7OR7RKW50/AD+aF5JyCEyJhaaKaqguXaWKQqLATBnlpFGOY0mvgmixkIarntbya1/GEhtg4VYSZHHt3OgmCh9oJKyI4OAlv4xHfQxC7E2Q/J+6FCiB8nKMJmYPgcmR/MbIJgHQ2A+XJDnHTMaf8B++u5P1AIsTWoCjO5Slk0VDs8T+EIATCKqjqSmuJucY/oNIEtfGLM6bwfJoTYHp6eQphHZ77PotlEstHObR1UbHmemBQTQS1QnbQQ7YMAmGd9TFFmeWb85bZVgIUI9VUccrQwX6botBBtxhQjVWDkmSkaMcX5e5M7NPUTp6Ww0T1CTdmlV2yZX6w8sRCdAQXpbmttKK1OL5KSAhQpS4J3PFDr6/QsChFqVWwJ0VmoAPNA8t6JlBSvyR3BL5ZC7mg0TepS6Q9x/dTnmNOEyPO+WAjRXlhoZPKX0rsu85f5P7GqbQ9a86xhUntrE1P3Cm4J8fTAX/ZqyaaJTcEIkextpaQ8Sk1nD7p68Hd8cCb3y4QQnYH1+5jYuLPJ8EshJUUPsC0PbPIbRKm5IyhfLER3wE/GGk4aZ/5oMokQb1krN7VxMnwhHn3pPn+rs4cQXcLcWQSZqq/q+NHXTB6JYG9JK/t2Gdjl0sZCdB+EeINWxl/+Sa1MpDotVfovSRsLURA2aOXMV0Yr/+hyRyJjd1iFQcMwaWMhikHQyrXG2Y9MRlm8hOWcO1DVLJ9aJm9sR0WqhSgIdOV0mcRSbrbW5f+5Sx09yBUPvXCRlRgu/cobC1EY3EoeGEmrjQVqr/GTaUTwyGDJlAe5KNpWswAhioVXe+0pmSCf/cRklfJp1kFsGpjVHtamkbYdFeQSomDQSgtBNoG+v6Fsc5N5TY+gtLJ34lfuVJeT3A8SQnQXN68HR9lXCleYmNam6DUJ5nWvq+4fbr4w50OEEN2Fhn0o2qz+GneYHR9bgwdueMK5qbpzP0QI0V3oBWCymlbqc1/YEQW8yU9GRS/RMNuO6v4hRFGZWgh+clquDlKyiWD7Vq38Y7b33g9YZcG649wPEEIUApY30hsg26UCQfZN1NlzJq2OvvJrUk68KO/NQohigBAT9Mp2qGgtbSTq1Qx01YbUBUSIghPKNbOAF6WaHD2xvOaFIOXEX5T3ZiFEMQgN7ZPG/J/syPoI7+dF+Pq6CTL/8RflvVkIUQyq9TkX5Hhilog1ZZoeuUaAV72PLlKuVrdCFJrWAoqxY8E/dkF2GzvLS3krzrw3CyGKA7LK9jJ29BiX4dK8nEyc/NqOyiELsQtAVrOWuayE4tgU5ExNS5CF2AUQmM4E2ddJGC7Il0LpV96bhBDFQoIsRA8gQRaiB5AgC9EDSJCF6AEkyEL0ABJkIXoACbIQPcDjBPlBd5DJ07lvFEIUh9AlxGS2Jch3jOV4YvYbHlBllxDFB1nNBNk3ljB80cRK9dDclzygftZCFB9k1QSZjRZZNEFPehfk1eTw3N/sqGWMQhQcb1SPIDfXRyDIuMe+s9tqbXoRgVZjASEKDu5vU1ZdkFuNBbxViL1glQ6adNJ8+I1CiOKA+2symyb1E7ftSL8ujn1XjG99T2TabGrzNiEKTTz6cnMzt+lzKOHWbhMe9apNnnqfDpra3FyIYlPeX09L8UBK51uTXbJOKOO+Ewiyb+DGvsiVWu6bhRDFwPdnGxgJG7lhZtMlxLdUTfui6H3fDR2V3TiT+wFCiO5DVRebuUUDoxcyQUYZ+0A9Xw2dNOODM7kfIIToLg9FrEMOGWXsg8jXmr1wGdtbAS8hiolXc5nVXGuc/chkliCXN6cPw21tNoXy/Z9wpHM+RAjRXfCP2fcpaSyGQhDf9ymM/cYDP9n+1uIJIQrG1ILvlop/XB4cP+8yu8E/DmPNuBY2O9ceUEIUi7DnU+XQz4hphZ0YHxnkotbJJ0eDozKvhSgYpJwo2qJ4y2SVai4KQh4ZvuF5X6n0m8rY8e/4WyuhhCgIZla7pTxyJC3vHTvtstpci5w7iIDd8i1WKzVFr4UoCKEsM1ulyEKJXLM6DN9HJh564SI+sheHKOglRNfB1fXy6WY1l9d9ILCPGySWkfSrBL3YFV1aWYjuQoGWyWRaGZ/9px1DWeYj0eqHB3mpe8nwSxfQyggz9nneFwghOs8DbbxIpJrsEiuefnIErbxiWvnTkLfK+wIhRGcJ2jgen/2OOg/+Nn5SG4eBVv6WSq+Wr1yfy/0iIUSHoACknHjaKavk2rI2DqPlK5tz/bGr9tpQ/pcJIToC645RovHkqb+bLGJWs0BixtjW4A6QRsnwhdDzWquihHg6eDsf8sbPN/5HvMrkz91dY0eDhny36USAesdfVt9rIToL/QCo4/AqrulF0kxUcCHIreWK2x041ajzy9XG2U8wsfkCNR4QonMQoSZbVKnPfdEXRW+Y/BHgIu30RIO6zjSKau/RxJ4vkL8sRGcIfjFl0tkKp3WDltVtGXzQOq1FKuPH7/JFKhQRor14GaYpzcrw9P1k4tXX7W8quFgcsWOT+uHBB/GBX5GSyraqUA9sIdpECG6hIKuNBUqlWfeAXzxltHWwOoqOBLdqk6c/DCaAtpgR4slgPYPni81lzYJbRKeJTZ01OjJC8OsaXxicci13FGJnEDj2ILIJcvXw/J9NtnzhUnbs6AhF20tEsrmLoJmx7/N+qBAiHxQgAgxEqKNkAL8YRbnjfPF2h0eyjUtsW4Fdz/8VABNia4T1xTTSQxOXq4OvmQwRod7UFfNpDO4aCPBVVmXEI0e8uT3mtvLMQjweFiEhO2zRlPnEmNFoYoS4bRHq7YzWD/AFFuPH7+Ize9GIFlkIsQkUHIoOhecppuZCiJZCNLo6CIARJr9Dnjmun/rcnfdSWXstC5GBYgtyQbFHlidmJROKEIEuxCA1RZ55PYr636a7CLXZ9v+UjpxqFySeWaYWWtVaCDJBraxiiyWJKMCOpZh2OrDtqQBDgJdo2RkfnPnBTW2084EX809UiB4Fi9Sj0mjhoUbTH27WThPUQpDbXuzRzkFTAoT5ZnnwwHm0c7gjcVISaNHrUCRFNBo5wDJlPXF1/ChRafxgHkfhdSWotd2BuYCp7Tmx2uH5d1hwgZntAs3KjuFpRbdFT4EGbglw/7C358n6bBEUxoyGwvjD2xmcBGYEJ7DELhYEwzzvbAJtjzXvWComEbsUijpII6GcfD4jwBOz37gAN81o1vTzHNqYPdZ27eDHcxJo55ZAUxWGme2VYXai+BEINQsx1LxAFBXmps9bsy5xFX3uVmruAxPIylJKVD/iA/M8kektN8vbDYPI9kaBXsGH9mIS09KY2qHc057zi8TdjeQ5GjuZmM29sEJ0CuYc7a2Yg8zFILhA9w6EN5k4+bW9drk8XGcbFyoeWXrIa/CDe0qAHx4INElwVlJxwpz4Ejlo7mZ2Ua77omoungk2IfvsdY9CSN98EiHaQTCPH8bb7tjzzMnK6Mz3BHBpf5UFsNDAVGTxWhQUbXkKHY3uxOCOFfoRhQvBnexytG/yQn/j/Jvc7YzVZOLVT5OxYz8QEcS04aIK0W5w7ZhjTY59hmJhDrJGOBNczGYsy2A6A3P2iVvx9MpAqEldcXfD/A4XiQvGY2xcBUQA2YVOiE7xphHmG0JKwGrjnCQjg1XJ63ZFGqmbgxQWQvu4iylEp9moRDChEfICjr6+/wN2S3IBcQe8WwAAAABJRU5ErkJggg==;overflow=hidden;" parent="1" vertex="1">
          <mxGeometry x="250" y="530" width="139.62" height="60" as="geometry" />
        </mxCell>
        <mxCell id="LNoz9r7LhRh53aWZ0VOm-26" value="" style="shape=image;verticalLabelPosition=bottom;labelBackgroundColor=default;verticalAlign=top;aspect=fixed;imageAspect=0;image=data:image/png,iVBORw0KGgoAAAANSUhEUgAAAPIAAABoCAYAAADLla2BAAAAAXNSR0IArs4c6QAAAARnQU1BAACxjwv8YQUAAAAJcEhZcwAAFxEAABcRAcom8z8AAA5pSURBVHhe7Z1PaBznGYflnd2ZXUmxrUiWJXmtlWKSyLGj2rJcW7IDBYcQnBBKQmh6aDGFgi8BHXrwUTcdffRRkIshF0MpmEDBlFJMSEFQElxoIIcm5NCAoA6YuIfp+7w731qyx4kk73pH698Hj0fe/zN877x/v/frK/ioGr8wPjCWM24at4ToMCsG8425xxxkLmpscZwwlgyE9Z6RbmDNCBd51QiCLUQ7uWaEeXbb2DgHmZPMzSvGWUNjw3jTuG6sG1wsjjeMK31R9Ebl+SO/TRqLl2rT55ar04s3a9OLt5zJ+b+WR2e+SMaPp0I8KeWDR/+V1E/cbs0v59xyrbF4OT5w7N0oHnzX5iRKhrn6rREEm7l6yXgmNfaMgekSLgh3vqWof+QiF84u4PV4fPa7ePTltLz/cBr1D6el5LlwVxTiqbCnUktL1X0+BysjR9LK2NG71elzN2qNc0vxvvov7TWXDQSZ1yPUWIoopp4f+BrhxBHilei5Qxft7reSTJz8ujI87UK7p1RuXUwuJI9xMeMDLz5yJzWhF+KJSQ6d2DSv4rFXmkpkcNTnYN+eUnNO2jGqDaWVoUYaT8z+1967Go/MvGXPIdS4f7zujoGW7rmBAONzcJJrpVLyOzRvMjn/GXc67nw8hwAjtDxWrc/lXnAhukX18LwrE4R7Tzlpzlk7IvBJfe7f1ca5K1EyfMEex/zm+a8MzPFdb3ZjQhMc4KRu4mfYBVnmThYNjDwQXrsw0q5it4GyKe+vp3ui2Ocy7l88cuS+PbdaHhw/b49havMcGnpXmtzcgYgA4jesRfH+t8y3uJaMHfvBzRRO2o7c3WpTC7kXSYjdBKZ4SzmZlva53Vj4ONo3iYYOygy3cszYFYMUEncgos9LBAYq48fvBgHGv5D2Fb0K5nf5uTH3pdHULtDTiyt9UfSOzX9MbeSC3HShB5E8z7URAEgmf/4PP6lMAxNQyDt5IXqN6uTptLx34oH1eejEf2qTp963/1/lMYOsTSEHSXJ+4DUPz4++7P7vg7tS/gkL0cskE7Ot1Cn+NC6m/U1EO+SgCxMI44c0o3Sl0of8UH4w/0cbVxtnck9QiGcJ0lUhdUUxU5QMvG4ygplNymrK6OrAcaeYYz2K+t+uNc78hfQRP5gUUt4JCfGsgnbGQiXdWj0092UWCEOQqanoWsknQS2c9zsUdZBHK8UDbk4rmCVEPgTDgpxQKRYfnH3bZAgTG1P7qQfBEGK++FZt7OR7RKW50/AD+aF5JyCEyJhaaKaqguXaWKQqLATBnlpFGOY0mvgmixkIarntbya1/GEhtg4VYSZHHt3OgmCh9oJKyI4OAlv4xHfQxC7E2Q/J+6FCiB8nKMJmYPgcmR/MbIJgHQ2A+XJDnHTMaf8B++u5P1AIsTWoCjO5Slk0VDs8T+EIATCKqjqSmuJucY/oNIEtfGLM6bwfJoTYHp6eQphHZ77PotlEstHObR1UbHmemBQTQS1QnbQQ7YMAmGd9TFFmeWb85bZVgIUI9VUccrQwX6botBBtxhQjVWDkmSkaMcX5e5M7NPUTp6Ww0T1CTdmlV2yZX6w8sRCdAQXpbmttKK1OL5KSAhQpS4J3PFDr6/QsChFqVWwJ0VmoAPNA8t6JlBSvyR3BL5ZC7mg0TepS6Q9x/dTnmNOEyPO+WAjRXlhoZPKX0rsu85f5P7GqbQ9a86xhUntrE1P3Cm4J8fTAX/ZqyaaJTcEIkextpaQ8Sk1nD7p68Hd8cCb3y4QQnYH1+5jYuLPJ8EshJUUPsC0PbPIbRKm5IyhfLER3wE/GGk4aZ/5oMokQb1krN7VxMnwhHn3pPn+rs4cQXcLcWQSZqq/q+NHXTB6JYG9JK/t2Gdjl0sZCdB+EeINWxl/+Sa1MpDotVfovSRsLURA2aOXMV0Yr/+hyRyJjd1iFQcMwaWMhikHQyrXG2Y9MRlm8hOWcO1DVLJ9aJm9sR0WqhSgIdOV0mcRSbrbW5f+5Sx09yBUPvXCRlRgu/cobC1EY3EoeGEmrjQVqr/GTaUTwyGDJlAe5KNpWswAhioVXe+0pmSCf/cRklfJp1kFsGpjVHtamkbYdFeQSomDQSgtBNoG+v6Fsc5N5TY+gtLJ34lfuVJeT3A8SQnQXN68HR9lXCleYmNam6DUJ5nWvq+4fbr4w50OEEN2Fhn0o2qz+GneYHR9bgwdueMK5qbpzP0QI0V3oBWCymlbqc1/YEQW8yU9GRS/RMNuO6v4hRFGZWgh+clquDlKyiWD7Vq38Y7b33g9YZcG649wPEEIUApY30hsg26UCQfZN1NlzJq2OvvJrUk68KO/NQohigBAT9Mp2qGgtbSTq1Qx01YbUBUSIghPKNbOAF6WaHD2xvOaFIOXEX5T3ZiFEMQgN7ZPG/J/syPoI7+dF+Pq6CTL/8RflvVkIUQyq9TkX5Hhilog1ZZoeuUaAV72PLlKuVrdCFJrWAoqxY8E/dkF2GzvLS3krzrw3CyGKA7LK9jJ29BiX4dK8nEyc/NqOyiELsQtAVrOWuayE4tgU5ExNS5CF2AUQmM4E2ddJGC7Il0LpV96bhBDFQoIsRA8gQRaiB5AgC9EDSJCF6AEkyEL0ABJkIXoACbIQPcDjBPlBd5DJ07lvFEIUh9AlxGS2Jch3jOV4YvYbHlBllxDFB1nNBNk3ljB80cRK9dDclzygftZCFB9k1QSZjRZZNEFPehfk1eTw3N/sqGWMQhQcb1SPIDfXRyDIuMe+s9tqbXoRgVZjASEKDu5vU1ZdkFuNBbxViL1glQ6adNJ8+I1CiOKA+2symyb1E7ftSL8ujn1XjG99T2TabGrzNiEKTTz6cnMzt+lzKOHWbhMe9apNnnqfDpra3FyIYlPeX09L8UBK51uTXbJOKOO+Ewiyb+DGvsiVWu6bhRDFwPdnGxgJG7lhZtMlxLdUTfui6H3fDR2V3TiT+wFCiO5DVRebuUUDoxcyQUYZ+0A9Xw2dNOODM7kfIIToLg9FrEMOGWXsg8jXmr1wGdtbAS8hiolXc5nVXGuc/chkliCXN6cPw21tNoXy/Z9wpHM+RAjRXfCP2fcpaSyGQhDf9ymM/cYDP9n+1uIJIQrG1ILvlop/XB4cP+8yu8E/DmPNuBY2O9ceUEIUi7DnU+XQz4hphZ0YHxnkotbJJ0eDozKvhSgYpJwo2qJ4y2SVai4KQh4ZvuF5X6n0m8rY8e/4WyuhhCgIZla7pTxyJC3vHTvtstpci5w7iIDd8i1WKzVFr4UoCKEsM1ulyEKJXLM6DN9HJh564SI+sheHKOglRNfB1fXy6WY1l9d9ILCPGySWkfSrBL3YFV1aWYjuQoGWyWRaGZ/9px1DWeYj0eqHB3mpe8nwSxfQyggz9nneFwghOs8DbbxIpJrsEiuefnIErbxiWvnTkLfK+wIhRGcJ2jgen/2OOg/+Nn5SG4eBVv6WSq+Wr1yfy/0iIUSHoACknHjaKavk2rI2DqPlK5tz/bGr9tpQ/pcJIToC645RovHkqb+bLGJWs0BixtjW4A6QRsnwhdDzWquihHg6eDsf8sbPN/5HvMrkz91dY0eDhny36USAesdfVt9rIToL/QCo4/AqrulF0kxUcCHIreWK2x041ajzy9XG2U8wsfkCNR4QonMQoSZbVKnPfdEXRW+Y/BHgIu30RIO6zjSKau/RxJ4vkL8sRGcIfjFl0tkKp3WDltVtGXzQOq1FKuPH7/JFKhQRor14GaYpzcrw9P1k4tXX7W8quFgcsWOT+uHBB/GBX5GSyraqUA9sIdpECG6hIKuNBUqlWfeAXzxltHWwOoqOBLdqk6c/DCaAtpgR4slgPYPni81lzYJbRKeJTZ01OjJC8OsaXxicci13FGJnEDj2ILIJcvXw/J9NtnzhUnbs6AhF20tEsrmLoJmx7/N+qBAiHxQgAgxEqKNkAL8YRbnjfPF2h0eyjUtsW4Fdz/8VABNia4T1xTTSQxOXq4OvmQwRod7UFfNpDO4aCPBVVmXEI0e8uT3mtvLMQjweFiEhO2zRlPnEmNFoYoS4bRHq7YzWD/AFFuPH7+Ize9GIFlkIsQkUHIoOhecppuZCiJZCNLo6CIARJr9Dnjmun/rcnfdSWXstC5GBYgtyQbFHlidmJROKEIEuxCA1RZ55PYr636a7CLXZ9v+UjpxqFySeWaYWWtVaCDJBraxiiyWJKMCOpZh2OrDtqQBDgJdo2RkfnPnBTW2084EX809UiB4Fi9Sj0mjhoUbTH27WThPUQpDbXuzRzkFTAoT5ZnnwwHm0c7gjcVISaNHrUCRFNBo5wDJlPXF1/ChRafxgHkfhdSWotd2BuYCp7Tmx2uH5d1hwgZntAs3KjuFpRbdFT4EGbglw/7C358n6bBEUxoyGwvjD2xmcBGYEJ7DELhYEwzzvbAJtjzXvWComEbsUijpII6GcfD4jwBOz37gAN81o1vTzHNqYPdZ27eDHcxJo55ZAUxWGme2VYXai+BEINQsx1LxAFBXmps9bsy5xFX3uVmruAxPIylJKVD/iA/M8kektN8vbDYPI9kaBXsGH9mIS09KY2qHc057zi8TdjeQ5GjuZmM29sEJ0CuYc7a2Yg8zFILhA9w6EN5k4+bW9drk8XGcbFyoeWXrIa/CDe0qAHx4INElwVlJxwpz4Ejlo7mZ2Ua77omoungk2IfvsdY9CSN98EiHaQTCPH8bb7tjzzMnK6Mz3BHBpf5UFsNDAVGTxWhQUbXkKHY3uxOCOFfoRhQvBnexytG/yQn/j/Jvc7YzVZOLVT5OxYz8QEcS04aIK0W5w7ZhjTY59hmJhDrJGOBNczGYsy2A6A3P2iVvx9MpAqEldcXfD/A4XiQvGY2xcBUQA2YVOiE7xphHmG0JKwGrjnCQjg1XJ63ZFGqmbgxQWQvu4iylEp9moRDChEfICjr6+/wN2S3IBcQe8WwAAAABJRU5ErkJggg==;" parent="1" vertex="1">
          <mxGeometry x="250" y="620" width="139.62" height="60" as="geometry" />
        </mxCell>
        <mxCell id="LNoz9r7LhRh53aWZ0VOm-27" value="" style="shape=image;verticalLabelPosition=bottom;labelBackgroundColor=default;verticalAlign=top;aspect=fixed;imageAspect=0;image=data:image/png,iVBORw0KGgoAAAANSUhEUgAAAPIAAABoCAYAAADLla2BAAAAAXNSR0IArs4c6QAAAARnQU1BAACxjwv8YQUAAAAJcEhZcwAAFxEAABcRAcom8z8AAA5pSURBVHhe7Z1PaBznGYflnd2ZXUmxrUiWJXmtlWKSyLGj2rJcW7IDBYcQnBBKQmh6aDGFgi8BHXrwUTcdffRRkIshF0MpmEDBlFJMSEFQElxoIIcm5NCAoA6YuIfp+7w731qyx4kk73pH698Hj0fe/zN877x/v/frK/ioGr8wPjCWM24at4ToMCsG8425xxxkLmpscZwwlgyE9Z6RbmDNCBd51QiCLUQ7uWaEeXbb2DgHmZPMzSvGWUNjw3jTuG6sG1wsjjeMK31R9Ebl+SO/TRqLl2rT55ar04s3a9OLt5zJ+b+WR2e+SMaPp0I8KeWDR/+V1E/cbs0v59xyrbF4OT5w7N0oHnzX5iRKhrn6rREEm7l6yXgmNfaMgekSLgh3vqWof+QiF84u4PV4fPa7ePTltLz/cBr1D6el5LlwVxTiqbCnUktL1X0+BysjR9LK2NG71elzN2qNc0vxvvov7TWXDQSZ1yPUWIoopp4f+BrhxBHilei5Qxft7reSTJz8ujI87UK7p1RuXUwuJI9xMeMDLz5yJzWhF+KJSQ6d2DSv4rFXmkpkcNTnYN+eUnNO2jGqDaWVoUYaT8z+1967Go/MvGXPIdS4f7zujoGW7rmBAONzcJJrpVLyOzRvMjn/GXc67nw8hwAjtDxWrc/lXnAhukX18LwrE4R7Tzlpzlk7IvBJfe7f1ca5K1EyfMEex/zm+a8MzPFdb3ZjQhMc4KRu4mfYBVnmThYNjDwQXrsw0q5it4GyKe+vp3ui2Ocy7l88cuS+PbdaHhw/b49havMcGnpXmtzcgYgA4jesRfH+t8y3uJaMHfvBzRRO2o7c3WpTC7kXSYjdBKZ4SzmZlva53Vj4ONo3iYYOygy3cszYFYMUEncgos9LBAYq48fvBgHGv5D2Fb0K5nf5uTH3pdHULtDTiyt9UfSOzX9MbeSC3HShB5E8z7URAEgmf/4PP6lMAxNQyDt5IXqN6uTptLx34oH1eejEf2qTp963/1/lMYOsTSEHSXJ+4DUPz4++7P7vg7tS/gkL0cskE7Ot1Cn+NC6m/U1EO+SgCxMI44c0o3Sl0of8UH4w/0cbVxtnck9QiGcJ0lUhdUUxU5QMvG4ygplNymrK6OrAcaeYYz2K+t+uNc78hfQRP5gUUt4JCfGsgnbGQiXdWj0092UWCEOQqanoWsknQS2c9zsUdZBHK8UDbk4rmCVEPgTDgpxQKRYfnH3bZAgTG1P7qQfBEGK++FZt7OR7RKW50/AD+aF5JyCEyJhaaKaqguXaWKQqLATBnlpFGOY0mvgmixkIarntbya1/GEhtg4VYSZHHt3OgmCh9oJKyI4OAlv4xHfQxC7E2Q/J+6FCiB8nKMJmYPgcmR/MbIJgHQ2A+XJDnHTMaf8B++u5P1AIsTWoCjO5Slk0VDs8T+EIATCKqjqSmuJucY/oNIEtfGLM6bwfJoTYHp6eQphHZ77PotlEstHObR1UbHmemBQTQS1QnbQQ7YMAmGd9TFFmeWb85bZVgIUI9VUccrQwX6botBBtxhQjVWDkmSkaMcX5e5M7NPUTp6Ww0T1CTdmlV2yZX6w8sRCdAQXpbmttKK1OL5KSAhQpS4J3PFDr6/QsChFqVWwJ0VmoAPNA8t6JlBSvyR3BL5ZC7mg0TepS6Q9x/dTnmNOEyPO+WAjRXlhoZPKX0rsu85f5P7GqbQ9a86xhUntrE1P3Cm4J8fTAX/ZqyaaJTcEIkextpaQ8Sk1nD7p68Hd8cCb3y4QQnYH1+5jYuLPJ8EshJUUPsC0PbPIbRKm5IyhfLER3wE/GGk4aZ/5oMokQb1krN7VxMnwhHn3pPn+rs4cQXcLcWQSZqq/q+NHXTB6JYG9JK/t2Gdjl0sZCdB+EeINWxl/+Sa1MpDotVfovSRsLURA2aOXMV0Yr/+hyRyJjd1iFQcMwaWMhikHQyrXG2Y9MRlm8hOWcO1DVLJ9aJm9sR0WqhSgIdOV0mcRSbrbW5f+5Sx09yBUPvXCRlRgu/cobC1EY3EoeGEmrjQVqr/GTaUTwyGDJlAe5KNpWswAhioVXe+0pmSCf/cRklfJp1kFsGpjVHtamkbYdFeQSomDQSgtBNoG+v6Fsc5N5TY+gtLJ34lfuVJeT3A8SQnQXN68HR9lXCleYmNam6DUJ5nWvq+4fbr4w50OEEN2Fhn0o2qz+GneYHR9bgwdueMK5qbpzP0QI0V3oBWCymlbqc1/YEQW8yU9GRS/RMNuO6v4hRFGZWgh+clquDlKyiWD7Vq38Y7b33g9YZcG649wPEEIUApY30hsg26UCQfZN1NlzJq2OvvJrUk68KO/NQohigBAT9Mp2qGgtbSTq1Qx01YbUBUSIghPKNbOAF6WaHD2xvOaFIOXEX5T3ZiFEMQgN7ZPG/J/syPoI7+dF+Pq6CTL/8RflvVkIUQyq9TkX5Hhilog1ZZoeuUaAV72PLlKuVrdCFJrWAoqxY8E/dkF2GzvLS3krzrw3CyGKA7LK9jJ29BiX4dK8nEyc/NqOyiELsQtAVrOWuayE4tgU5ExNS5CF2AUQmM4E2ddJGC7Il0LpV96bhBDFQoIsRA8gQRaiB5AgC9EDSJCF6AEkyEL0ABJkIXoACbIQPcDjBPlBd5DJ07lvFEIUh9AlxGS2Jch3jOV4YvYbHlBllxDFB1nNBNk3ljB80cRK9dDclzygftZCFB9k1QSZjRZZNEFPehfk1eTw3N/sqGWMQhQcb1SPIDfXRyDIuMe+s9tqbXoRgVZjASEKDu5vU1ZdkFuNBbxViL1glQ6adNJ8+I1CiOKA+2symyb1E7ftSL8ujn1XjG99T2TabGrzNiEKTTz6cnMzt+lzKOHWbhMe9apNnnqfDpra3FyIYlPeX09L8UBK51uTXbJOKOO+Ewiyb+DGvsiVWu6bhRDFwPdnGxgJG7lhZtMlxLdUTfui6H3fDR2V3TiT+wFCiO5DVRebuUUDoxcyQUYZ+0A9Xw2dNOODM7kfIIToLg9FrEMOGWXsg8jXmr1wGdtbAS8hiolXc5nVXGuc/chkliCXN6cPw21tNoXy/Z9wpHM+RAjRXfCP2fcpaSyGQhDf9ymM/cYDP9n+1uIJIQrG1ILvlop/XB4cP+8yu8E/DmPNuBY2O9ceUEIUi7DnU+XQz4hphZ0YHxnkotbJJ0eDozKvhSgYpJwo2qJ4y2SVai4KQh4ZvuF5X6n0m8rY8e/4WyuhhCgIZla7pTxyJC3vHTvtstpci5w7iIDd8i1WKzVFr4UoCKEsM1ulyEKJXLM6DN9HJh564SI+sheHKOglRNfB1fXy6WY1l9d9ILCPGySWkfSrBL3YFV1aWYjuQoGWyWRaGZ/9px1DWeYj0eqHB3mpe8nwSxfQyggz9nneFwghOs8DbbxIpJrsEiuefnIErbxiWvnTkLfK+wIhRGcJ2jgen/2OOg/+Nn5SG4eBVv6WSq+Wr1yfy/0iIUSHoACknHjaKavk2rI2DqPlK5tz/bGr9tpQ/pcJIToC645RovHkqb+bLGJWs0BixtjW4A6QRsnwhdDzWquihHg6eDsf8sbPN/5HvMrkz91dY0eDhny36USAesdfVt9rIToL/QCo4/AqrulF0kxUcCHIreWK2x041ajzy9XG2U8wsfkCNR4QonMQoSZbVKnPfdEXRW+Y/BHgIu30RIO6zjSKau/RxJ4vkL8sRGcIfjFl0tkKp3WDltVtGXzQOq1FKuPH7/JFKhQRor14GaYpzcrw9P1k4tXX7W8quFgcsWOT+uHBB/GBX5GSyraqUA9sIdpECG6hIKuNBUqlWfeAXzxltHWwOoqOBLdqk6c/DCaAtpgR4slgPYPni81lzYJbRKeJTZ01OjJC8OsaXxicci13FGJnEDj2ILIJcvXw/J9NtnzhUnbs6AhF20tEsrmLoJmx7/N+qBAiHxQgAgxEqKNkAL8YRbnjfPF2h0eyjUtsW4Fdz/8VABNia4T1xTTSQxOXq4OvmQwRod7UFfNpDO4aCPBVVmXEI0e8uT3mtvLMQjweFiEhO2zRlPnEmNFoYoS4bRHq7YzWD/AFFuPH7+Ize9GIFlkIsQkUHIoOhecppuZCiJZCNLo6CIARJr9Dnjmun/rcnfdSWXstC5GBYgtyQbFHlidmJROKEIEuxCA1RZ55PYr636a7CLXZ9v+UjpxqFySeWaYWWtVaCDJBraxiiyWJKMCOpZh2OrDtqQBDgJdo2RkfnPnBTW2084EX809UiB4Fi9Sj0mjhoUbTH27WThPUQpDbXuzRzkFTAoT5ZnnwwHm0c7gjcVISaNHrUCRFNBo5wDJlPXF1/ChRafxgHkfhdSWotd2BuYCp7Tmx2uH5d1hwgZntAs3KjuFpRbdFT4EGbglw/7C358n6bBEUxoyGwvjD2xmcBGYEJ7DELhYEwzzvbAJtjzXvWComEbsUijpII6GcfD4jwBOz37gAN81o1vTzHNqYPdZ27eDHcxJo55ZAUxWGme2VYXai+BEINQsx1LxAFBXmps9bsy5xFX3uVmruAxPIylJKVD/iA/M8kektN8vbDYPI9kaBXsGH9mIS09KY2qHc057zi8TdjeQ5GjuZmM29sEJ0CuYc7a2Yg8zFILhA9w6EN5k4+bW9drk8XGcbFyoeWXrIa/CDe0qAHx4INElwVlJxwpz4Ejlo7mZ2Ua77omoungk2IfvsdY9CSN98EiHaQTCPH8bb7tjzzMnK6Mz3BHBpf5UFsNDAVGTxWhQUbXkKHY3uxOCOFfoRhQvBnexytG/yQn/j/Jvc7YzVZOLVT5OxYz8QEcS04aIK0W5w7ZhjTY59hmJhDrJGOBNczGYsy2A6A3P2iVvx9MpAqEldcXfD/A4XiQvGY2xcBUQA2YVOiE7xphHmG0JKwGrjnCQjg1XJ63ZFGqmbgxQWQvu4iylEp9moRDChEfICjr6+/wN2S3IBcQe8WwAAAABJRU5ErkJggg==;" parent="1" vertex="1">
          <mxGeometry x="250" y="710" width="139.62" height="60" as="geometry" />
        </mxCell>
        <mxCell id="LNoz9r7LhRh53aWZ0VOm-28" value="" style="shape=image;verticalLabelPosition=bottom;labelBackgroundColor=default;verticalAlign=top;aspect=fixed;imageAspect=0;image=data:image/png,iVBORw0KGgoAAAANSUhEUgAAAE8AAABPCAYAAACqNJiGAAAAAXNSR0IArs4c6QAAAARnQU1BAACxjwv8YQUAAAAJcEhZcwAAFxEAABcRAcom8z8AABGSSURBVHhe5Z1rcFXVFcf92I/92KmkUamKYFv7crBVy6jDUHV8jpJoEY06UIsI3ItRQklGhVQaDSKaFEhSgjSAURDByCtBCIRHCIG8IPKWl/LqkDBO7YfT/VvnrJubyw733OQmOdg9s+Tm3vNY67/Xe+9zvKq/x9WPTxw6IC08IiU9lDMgfXJJSnq4qityf+e4SQ9dPTI0zLvE/89IfSz8o5S00NiUtPAyA4ijZABsUZAAyEIV8ltaaJee41GNudaE1PRJg7xbfL8GgiGgCOoCdd78XTYgPZQ2ZVHFcw3ftKU1nW3LaTrXXtZ0tr0K+qS+ddv8ytpdpdX1O/W7xrPtyziu8Uz707kfrX1q8LNZjw1IDxeY65z0rttiPuf/+InwLd6tr9yRMjL8tKdRDgIi6K9eyHlSwDJALdna3PbqwpXOqLx/OvdNmxOtTV3S8CnvOCNzixzOK1y/9TsABcwHp8+/e0Da5Nzo+6GxqaNf+qHHzpUxjAAj1LzwUwjWdPrCWASdV7XDyXhnkfPzMTkCxm/GTRfgQiWfODOXVzllWxu7pPfWbBXQHn690Lltwt/k/IGjXhHwZ62qdjYfPrWj4UzbhInzyu8FODRcQDRa77EW3IG5GIHwWw4+7YU5ZXcDGIIhIILy27DJeQLCit37HWOO3abK1mMCOGDKPQ0xEW+Ur3O2HP1mU3ld0z2Y8YC00LdG6w8RaDxWgzMIAl6kNKCFdt02fsb9Rrh8zArN4nsERFAEjgUhGbT92BnRTCZpUMZUIUDcduLsisyiFbczmR7AVUR4j/X+HV6qYcwjfOimjKxRjacvvPLB5j1t+CaYRZjeAqwrAkjcAJrO5AGq+T7/9vDMewBPQDQR3xOhfwYMYBLM6pYj3zz2WcP+0zhzmMN8emqWPaXqQ6fEv8IProJJZXJT0icZwh+HC1JHZ//AE6fvBjeWGTSOmfQBE1EmF2yqtwrTX8QkajQf+/4Sp/bkuaWS5pAymfSpzyIyNzI3rELjSDvwKZgmjGWXVViZDwoR6fGFuJQNrV81EtDcQBI+1Ou5ITfQm416a8G9MAAjMBQ0beuKVjcfljQHX7hs174zRGRVBlIsT9TkDjQO0FDzj2ub719W9+UFGIARGLIxGlQioGDGBJTZqzd/Rw5KtgCASY/EOFWZHQMewKH+3BgGYMTG4JVA4+eWi7sh5yS5JvCRVKeOzLzGE73nw4BWwKzgI9A4gCOK2RjqLpXXtkiVgCAQExNNCMr3BCaqjV1f/9t6nUSJewIgOej61uPDjem2kKsmJQqTjnBxgsMX+098iamS8NoYSZRiSzWIaA1YWr9CHKMg6nFMIMcgfE+1n0DH9UhlSKglCqeFyzwIujfomUkeZ/IioirBAR/XE2ZJmLUKAAQAQZtKa5qdnJXbhcaVVTmPF650HpxV7jzw9lL5PGbhusjvpdv3CmjRJR9AopG2e/oh5WlNy9H9VEgqtwdFYgO792ZgWdPZi7l68e4GBxJW9TFoL2ZSvLnJyfy42rlz+gfODS/mOddmZAupdsXStc9Mk98Hjs11bp1WLCDPN6BTQahWYhXdSc5xA2g9ylF98MQ6IzctNJNId6MeBjRsf/PBr0eh1lyou+kIpgfwmCdaNqtytzM0Z4Fz/V/edFKfypJr/+TJTGfgmOnyHTRo0rvOoNCcCF0/bqZ8D3CpT01xzzFaN3DsDOeWV/8hGjm3cqcAwG+YeqIWglXAo+uW2qSzLQEkEf/ndUccsnByIT4jtO2GlyNNCQAOAAs37XHuerNMQIoWHnBunlqSEA3OLOwEPhqJNs5cu0tMGhDQ8ES1kMCFK3ht6er/5q2oMv5Pyk//LS3DTA1aB/r4EmbTdqPLUXQyumBLg/PonOXOT//8ppPyxGQB7Ybx+VZQukOAj0kD4nXPvy5uoGxna2TiCEw2Hrsi3Avg4+elpeVX+7BxmKCBWbyx7j98TtRccdwwTYAp3dri/DJrngCGaWJ+N2cVW0HoKd048R3XpM0EDZk025m9YbfUssiQiOXgn9E+3NWcz7aZEo4ueCjfg8g+JBmmAyxBoj0fjUPzYi9+OQJomCXAwPyQ0LsiDJoxZMp8q9BJJTMxuAJ4wKwJSADH37gOG8824lgArNx7tBKzxXzpW3pQXTr0oKmlqx6ikckNE/EZmCoah7PGgaNlXANhekvbuqIbXnxLJg0zHl30uUR3ePF6e3GJ6IvpYsK02+Jqn1v0h/KxdU5MpIogOODfMNW8tXUR4BDCJlxfEL4QV3HtszmigQCBNhEUbDLEEhrL8TRAItpna19phKUEY5Y4Cdu3XTSWmCWcM+CRu4mp9jNwSoPC74kGkuKQIpGGoBh+utvR2rdeSjcTeUeGn/Yg6xiy2mQ0j04rN0jE19HyxlyJquRcLrPGVC3C9AfdOGGWTObgl/KlOiELwEJsssQSvg8AG8+1FxALIA+yjkGgYN2TVSe0jlzJdrFY0siEio/IWypRlZyrr31cPJI0yQD4mylznY92tcpnPykMPp9j/1XTcMJdh8Z0o9IWSjEOuOfl/EdwqHz2m51rTkSZhGkAXp9E1W4Qk3rN6Kni/xLJX3FHWJfXOO1csokzNNGElXdSDPyX7SKxpLOSu6zS+cOMRWKu1Kg2xoNAN71cIPzikxdtM5PtWYxNtmhCQTB1igZzvmw48qCTikK+2Hni3Gp8l9+1CJ09SqLrnntNtC5o5hpLyuf4JRsiVmOTLZpI+gGdjosbdcPnBThvQccZnJH9wAdbdktF4TcSMXN5n26UmpLzyPBtDAeJhrwyL2Ih5XVfCt/xWlnIqkolC+jmHNniRs+eP4rX73wEu3bV036RaMI3Al7RliZxxpRFNmaDSDQmqHhmVNSK5aCBNhmjCXdGFoJrc1t1obHeTqbQtyyCYIYcZDs5lvRiEz/cKMABoI3RIBIWgsI8PPtjSUUICDYZowmtc4+7mGvOrZFqg/TE7aC056N1fvydqjHpzNDsEmGEZNTGaCDJ+GUx3fH5ztLavcJ/vCYvaQ3HuZ0W2aFaQaQtI/HjS370k/to8U81QfEtgcLGZICJko3g8f6mRtGoeEoDuMj8YW3zXtrzLBRFIu3nTYdl16afdQDCOzek+Hfb4sGpJvySNg5wO7ifeHU81gY+CzbWnxRXZ6oxAY/SbE3zka/40c8aBYGF8kb9nfToLAwGmWjzI++oeasEOAC0yRpNHC9FhAGPz1KWAZ6UH+YLP2kKNyO4PFOyRi6YzK5wX5EmzH/MWyxBw0+1oX7emOwIAQ/1A7yF1fVn/YJHBUKH9v58dzWMWbQxGGSSfM/wPnTafOn1+UmWcVWAR47XCTyxZZ/gEZWZrd+/5u6OYhZtDAad4B2r0UhqkzWaLgHP/KeTz/MDnkan3051Z4+VLBtzQSd4Bzwtv2yyRhPHAF6Hz5NoGy6oaD5cxxd+oi1mS1Y+/O+L5YLdWTrsb6LzA++/yCwQQKiWbLJGE8cXVdWec6Nt6KQBL1RBqiKr5OZHP3ke1QX0p/nuYjjNRhuDQSasBd7vfKM0qnqwywtVHzolx5vAetjtQplUhTLDfFlDpxSn6bdFg/ax3YEEOchtqK4IawEMSjSVxyarkhYGrKZhqShdpJfH/jRyHaKo7eRo0pkiSaa5eCXVtUramkcB1JJssiqhVKQq5rNRNqw1XOA+rWMusqLhwKMA56e3T6LIhShttENhYzDIRFXExNNZQeZ4nZUINrKL1GQoRuncpxANePdOmX2fOs54LXi1/6Iv6pybWZ0yn8mbbEwGlaQyMnV5eZ3bDY+3KwJLA+Av9h29k+MjrXiKXNIVnt3iBz8Lw8wCs/HE3FVec7H/lxn9klYXv8sujkRaalebnJA2BSgkjItL67R+q08LsuyI44xn/xB+jwCD6bIqLytmFkaDSNoJylpRI2VmPHmRFTdFUHXbUeEqAY6hGfNfF352tzrGy80ERDLNOSUb613na7Tviqg0sooFOFb6ynbuF61D+2wyKqFQ1PMbDp56wCiZ20WOHkRcnKBWGn6SZYppZo2lPJwv/TErwwEi0iommjVmFCWej1f/ziMHQzKyh/P5kt3yqo60mald40UfSGtClvF0i0WQO8pUFap1H9YfFLcTT071iTxypTmxB1nH0JSF5yzo13HheKYLoX34DfyHLirbGA8C6aI8PTzVOjTLJpcSuS8kCz9eE8WDrGOwhUA2shh7ZlcQF/ZTbWjmXbB+W2QJMojNUakoJCvIc8p2tApwKIlNJiVd1H9/bc35n2VkS4rS5YsgUEt8H/vRUGe/2qeL32y5EJ9ibhKkHt/gzLmy1QyfTFVEiuVHNtIxgoU+HUTj2IPq0iFPbIv2hSdU7j9W68cnQEReIjTBg4yd7B1mA9GqMtEVVwJFb3KM1wBRf86GdjYE8BnX5kFlH17Od569uH79AkR05lhyoucXrBH/RxbPrFuF6gsywLFKhp+jfVa6eU+ER5sM0aS+HF8nSxW2rWWxQ3yfMV1MWHeI+kmaIZ1V/B8temYbDeyPfh+Tpven483WCrUOG+/RpLshWGbUDe6+n8fFbDFf9mXo3mS/W1Exc27MLGMm+Jm+Lt9IlwAN8NA4gKM2xYfF83PkfOquZC+yPMjnQ+t0dN4VfzGXUM0F/ZgvzDG7AI7Zk8KQIvA3ZVxvmjF5HKUXk8WkkZIwiWgcZuhnzyGmCtBVrcc3qxJddhe8bWjexxsr2C3qd+aUAI7ziWzUvyTR+B4EA8xkb4AkynN9NI5Uiaiqe6uZTD98k7pwfHntvuOj8ork6UdigAdJYsMNHqFvaVet3HPgGDOYyA55IhbnEO6X7zngvLBovSukERCiidqTioRozvUITDopaYWfOuX1B8TsmDxW+Wy8xZIsZpvjKcMWVu++w02Iw1WdttAmOtyuaegk0VefCPKTPCuRaFLucR4CkaAioG5L43spmcZMl91LBBebaaOp/AYBUuwDf/g2Cn14Y8IgP601SJ83k6T59AUChDzVnrC5xg55t4D0+8I1OFDCPEzHax7Gki4sIxTasLzhiDQUhs1YKGamz475IYADQDZns+VjkQGNGhTXoiD43VNNjsp5+Dr8uxQKxtqS9raLqGdvy9iXi+nCpN+ZVcLvABwAAgKBCFAX79gnW3P1AWVW8alQcP4QGglQ9+UtlmMIQpgm98ef6fXgy09QU8IqAI5gsunIqZWUplynW8/YXm5oAGF7lblxPrPL334qkFhCKxAcYVVwBAAIwIXQbBJvJTSe7wlA+FCXl7BoDBOQCGgQ90cBOB/gqCLQuG4HiHijY2bCBbwDD+cKA2iQXzOxEeAwGYACYd4KjhL30d8BEOH9Rv5Y6jzxF3N1dyxtOU/U3hmoNDcyN6/iuYQl2xvPICxBwc/2tP4kJhhNYyKYeBQAHweQvaZxsSP6zT48l0sLC7PDBDGv7mpEbxJpE/6NiSaPIx1BAVyNC6V5ovXN8B5BMDcPn+dx+trj50vxScwqDOKHbEL0NeESmFi0Cx9Lt8hLgFuY/KRF1USH20ToeJsZZkxZowkqMx2v9dNbRCTVwIKpom2Swxm/LZmDSb16nMclYyhDwpSpB8kHVzcfatIal7KuOxExUdIoDlh6X9Za3VV+fHXkZaz5Paockj3cZNot5zAHIhi9MJqJ6qRhHBPCLyYruJDkMjFEfK4PoXGF67a1k5N6K16R95gm9T1RyR7SjXZX4uT9oeRPRDVWnxAIv6OpCGaNiSM8vileoOF3jqOaIN1QX8bEoOV8T86Gpt316tt3AJbwYcALzHtC/QzvxdLCPLUxvhHTwe+w8k6KA3Dql2IJYPhNAYolTJJ8z9WwiyVM0K/HvXGrq/2ueTJ55nPvvBOvL8bl3s5NuoBpASaBBv+EZmmVEU18z4uyeF4EsDiv4XTbMPFlMjHfw7d0Rw9MWqqUDnMSYc2/si8akNn60RW5e4Ej74mXyfDo+/1++NjhpjmsD3T83whEKzsA6YoAyoDPeaG0/ks3rrrqf09pvAEay5ncAAAAAElFTkSuQmCC;" parent="1" vertex="1">
          <mxGeometry x="289.81" y="800" width="60" height="60" as="geometry" />
        </mxCell>
        <mxCell id="LNoz9r7LhRh53aWZ0VOm-29" value="" style="shape=image;verticalLabelPosition=bottom;labelBackgroundColor=default;verticalAlign=top;aspect=fixed;imageAspect=0;image=data:image/png,iVBORw0KGgoAAAANSUhEUgAAADYAAAA2CAYAAACMRWrdAAAAAXNSR0IArs4c6QAAAARnQU1BAACxjwv8YQUAAAAJcEhZcwAAFxEAABcRAcom8z8AAAe8SURBVGhD1ZpLaJxVFMezdOlSbB5NaybzSMGNxYUVoSKlFhFL7aShTX3ExtjY6XzfZKYzqY0VWyup06ZJJ22nGXATcBMQIQhCFyJBFOqi0oVIQdGCDwoqiNmM53fuvdOmfmkeTSafF06YfI/7nf89557zP/fehtVo6148/HjTbn9/U6c3ZMS/cqc0dnpFvZ70U+t2e0+1dB97wL4avtbYmX6+sTNTEaVvivJVlaR3VcEk/SkHkmccQPdcY9L7W5+RwWjpPvSg7XLtWsvu7HpRaLIx6d+ySgIi1dZ3enuiUBlCOo5OVDoGJ67EM6WZmD/6Jb87ChOT7n40c26HWlf7EYA6IP4UlrSfqV9r2eU/ZNxJRrvTvyGW6Y0eGnlBlC7GMuM/RvqHq60vH1OxgP8jrS+9pfc39p6stntjvzEAmwrlXdJvUu5ba3rTD+/xH7WfXd2m7iQWUpcT63TkK73xzPgvbW+cqrbsK6jSzV3Z6sYD71a5hkTT56pRb7QmbQff1+uAatmXN+/szcn/J6qR9MifWLK5O7/TurIMXqayai5Kx4ykcTtvKJ4rdcWy498B4E7FULxjsLIkiWfHFagbGCyJFRP5Sgo3ZRDxjBW3XktnOiqArtP5hgPHtyeOXPz8kddPVZv2ZBRQ5M1ioMLLEQYGNwXghp53qrh2zD//tBtUgpRV6/4ak9gGh5nowZFnI97YH4DB3XApCQSBCt6vtB8+a9xUBi9y6IPZeKHcIwNbAjBTwKq3vCaAttmOJum4PVWc5UOMaCJfDlRoRUUGDfdGB1yV4AQo1Ummg1Vzac26n5g+U2EyYx065EOrZaX5JNJ/Wi2Ha8Zz5Y+JwuhCBLXqLq4RKDSMi/vFs+V+B4oPBH24HsLcw/1bXxmS/yeKpBvyHizHqn3vBr0REEJ7/BvkJnW/NQblJOqPqeVIE6QZ8hwRE6Jg1Z+/NSYzJ3FBoh85xXQk7hfwobWQ9tQZM+cODs/CWkTX63iWVT+4KaMwvC2VyI5fI/qRU+o9pxYSTTUCrj018nvjvvxmft8zDajfimmhNpgbYHWJfssQBnx996D81kg5BUuxMOY2sjrIm5N+fyx74QfNH8L5gjoNg8QGStZqxdnm197e6jzNwrndHGpozIZXj6u1wuaCd4vTM5a/fNF5m4VjGpEQxM3JgR44mo6EZP6gzsIkidwlw0zEsyJ97z2B3nPKHUGaBFh79vxOJiZUJqijMAokHCbUUajk8DgsZ2GpG06SExKDEyVAAS6okzAKnoWlpEL4Qksqyb8KyrihkFwpD+KZ87/yEIkwqJNQisQBdUepMJr2H92C/tDBGtGFZUA0NWgEdRBigWYRSDYNVqR2gwqmc7hhin8guqZUDw/LWKw4ksxUMjQrU1EKJRabcfNLa6yAl8MsLD3oPMuNf2JWwbxpiYjyQ3JYojAxxc2VrIbrJS5ZxzJj3xBAlIXIBZh8SdB+zU3QB70cZtF8hlEOn71JraaJ2rBjb0gi4U+KWtAHvRx2UWDibZBhfosrmijSnh5VxsGKUdCLYRcHDOahwOSPrqXHBsa/5cJyls/WWqhAFFjq7F+6XCcsyrAOEaH/09ykkAt6OcyClykwf1S9T9kH1sJqLDGTnMNcqswneBnAoFUOj7iiQUiCpnD7P/FEJ265AOM4D7TM3r+VKJT31phywMthFtiSVtMwfCEbWE3XOUDb1JV7rj018g+/yQtBHYRVlDEJz430ndGaDP6rDN+g9Esd+UufmsJt7ZfaFiu1JYL0uZ9dRKztkJp55t2EHbPaqitTAZ2EUVxFIlz3JNRQ55drujMpqOWBHToRxWr/CwYitRigWFFL5MrP6IKOWM3CMg3iaPNZkYlIfRPYWYiE1KTlSnb8muieMm541wah41gsZbll7TBX0rANZ61N2fKTTCWNhkHNWm0Kf729IBnc8VqLW9ClBqtZSyK8hTK3uWWC5r2ZXW4ZLoyFpzINjd7DQnzP6GIpBbOFEdywGJZjmVt9GJcMUY0Wz17U7SRiAGyJNIUbLngIhggJE9FAIpmcrE5HoShnJAoyPZC5G4CL3Jc2+84cJknnEkfKHzHfyO6MVuAH6yECitUo5pWWWF05E95FR6v24pobDeYbywaMEpZbi3qNAa19Xyp9lrOdV1l1l9YInzoqMjqYHr+uN+Ui5QAIYFhKQWnV788sOK/ma7zIqGA5QippgDDL/7rRvYquSZ6CLjGQDKiGdXU/LOVdXZGTOoAyk9QvUd7onpT4Oh9VOrPCm4NEY/rHUqQboh9TQ71HBnrZlgpqRB4dLalOW3tOPBYfvPyhKiAfRyhQ74epEHXpjyBVG7Dchc/aMiNbmBLqNcs927FQY9dTwLGZzRmLIsmRj7utJ64rzZGClV0QAk2Qu2Jh7iEAuPtwGXMJUounMJgqSz3TsZymbgE3Uwt6Q/GBS5shz9GBse9xHXcWajECKMCxUc4ye7xQ2WYOhvk3HKNYtZNvQU0DC/tRxj1FSW8awJG+4a1s9wpQPXzJ6izMhUCAYElAiLW+4hkCknW3JPPH9adH+ebjfvVo5hSPl0SRGkhbAgHcgt9G0ndCUtXr5tBX7QitvAOd611TQPM1w1p0B8cdbL59RtiKYQzuvnK95IpGuoaGhn8BDSxpvN7y7VIAAAAASUVORK5CYII=;" parent="1" vertex="1">
          <mxGeometry x="492.81" y="445" width="54" height="54" as="geometry" />
        </mxCell>
        <mxCell id="LNoz9r7LhRh53aWZ0VOm-30" value="" style="shape=image;verticalLabelPosition=bottom;labelBackgroundColor=default;verticalAlign=top;aspect=fixed;imageAspect=0;image=data:image/png,iVBORw0KGgoAAAANSUhEUgAAAPIAAABoCAYAAADLla2BAAAAAXNSR0IArs4c6QAAAARnQU1BAACxjwv8YQUAAAAJcEhZcwAAFxEAABcRAcom8z8AAA5pSURBVHhe7Z1PaBznGYflnd2ZXUmxrUiWJXmtlWKSyLGj2rJcW7IDBYcQnBBKQmh6aDGFgi8BHXrwUTcdffRRkIshF0MpmEDBlFJMSEFQElxoIIcm5NCAoA6YuIfp+7w731qyx4kk73pH698Hj0fe/zN877x/v/frK/ioGr8wPjCWM24at4ToMCsG8425xxxkLmpscZwwlgyE9Z6RbmDNCBd51QiCLUQ7uWaEeXbb2DgHmZPMzSvGWUNjw3jTuG6sG1wsjjeMK31R9Ebl+SO/TRqLl2rT55ar04s3a9OLt5zJ+b+WR2e+SMaPp0I8KeWDR/+V1E/cbs0v59xyrbF4OT5w7N0oHnzX5iRKhrn6rREEm7l6yXgmNfaMgekSLgh3vqWof+QiF84u4PV4fPa7ePTltLz/cBr1D6el5LlwVxTiqbCnUktL1X0+BysjR9LK2NG71elzN2qNc0vxvvov7TWXDQSZ1yPUWIoopp4f+BrhxBHilei5Qxft7reSTJz8ujI87UK7p1RuXUwuJI9xMeMDLz5yJzWhF+KJSQ6d2DSv4rFXmkpkcNTnYN+eUnNO2jGqDaWVoUYaT8z+1967Go/MvGXPIdS4f7zujoGW7rmBAONzcJJrpVLyOzRvMjn/GXc67nw8hwAjtDxWrc/lXnAhukX18LwrE4R7Tzlpzlk7IvBJfe7f1ca5K1EyfMEex/zm+a8MzPFdb3ZjQhMc4KRu4mfYBVnmThYNjDwQXrsw0q5it4GyKe+vp3ui2Ocy7l88cuS+PbdaHhw/b49havMcGnpXmtzcgYgA4jesRfH+t8y3uJaMHfvBzRRO2o7c3WpTC7kXSYjdBKZ4SzmZlva53Vj4ONo3iYYOygy3cszYFYMUEncgos9LBAYq48fvBgHGv5D2Fb0K5nf5uTH3pdHULtDTiyt9UfSOzX9MbeSC3HShB5E8z7URAEgmf/4PP6lMAxNQyDt5IXqN6uTptLx34oH1eejEf2qTp963/1/lMYOsTSEHSXJ+4DUPz4++7P7vg7tS/gkL0cskE7Ot1Cn+NC6m/U1EO+SgCxMI44c0o3Sl0of8UH4w/0cbVxtnck9QiGcJ0lUhdUUxU5QMvG4ygplNymrK6OrAcaeYYz2K+t+uNc78hfQRP5gUUt4JCfGsgnbGQiXdWj0092UWCEOQqanoWsknQS2c9zsUdZBHK8UDbk4rmCVEPgTDgpxQKRYfnH3bZAgTG1P7qQfBEGK++FZt7OR7RKW50/AD+aF5JyCEyJhaaKaqguXaWKQqLATBnlpFGOY0mvgmixkIarntbya1/GEhtg4VYSZHHt3OgmCh9oJKyI4OAlv4xHfQxC7E2Q/J+6FCiB8nKMJmYPgcmR/MbIJgHQ2A+XJDnHTMaf8B++u5P1AIsTWoCjO5Slk0VDs8T+EIATCKqjqSmuJucY/oNIEtfGLM6bwfJoTYHp6eQphHZ77PotlEstHObR1UbHmemBQTQS1QnbQQ7YMAmGd9TFFmeWb85bZVgIUI9VUccrQwX6botBBtxhQjVWDkmSkaMcX5e5M7NPUTp6Ww0T1CTdmlV2yZX6w8sRCdAQXpbmttKK1OL5KSAhQpS4J3PFDr6/QsChFqVWwJ0VmoAPNA8t6JlBSvyR3BL5ZC7mg0TepS6Q9x/dTnmNOEyPO+WAjRXlhoZPKX0rsu85f5P7GqbQ9a86xhUntrE1P3Cm4J8fTAX/ZqyaaJTcEIkextpaQ8Sk1nD7p68Hd8cCb3y4QQnYH1+5jYuLPJ8EshJUUPsC0PbPIbRKm5IyhfLER3wE/GGk4aZ/5oMokQb1krN7VxMnwhHn3pPn+rs4cQXcLcWQSZqq/q+NHXTB6JYG9JK/t2Gdjl0sZCdB+EeINWxl/+Sa1MpDotVfovSRsLURA2aOXMV0Yr/+hyRyJjd1iFQcMwaWMhikHQyrXG2Y9MRlm8hOWcO1DVLJ9aJm9sR0WqhSgIdOV0mcRSbrbW5f+5Sx09yBUPvXCRlRgu/cobC1EY3EoeGEmrjQVqr/GTaUTwyGDJlAe5KNpWswAhioVXe+0pmSCf/cRklfJp1kFsGpjVHtamkbYdFeQSomDQSgtBNoG+v6Fsc5N5TY+gtLJ34lfuVJeT3A8SQnQXN68HR9lXCleYmNam6DUJ5nWvq+4fbr4w50OEEN2Fhn0o2qz+GneYHR9bgwdueMK5qbpzP0QI0V3oBWCymlbqc1/YEQW8yU9GRS/RMNuO6v4hRFGZWgh+clquDlKyiWD7Vq38Y7b33g9YZcG649wPEEIUApY30hsg26UCQfZN1NlzJq2OvvJrUk68KO/NQohigBAT9Mp2qGgtbSTq1Qx01YbUBUSIghPKNbOAF6WaHD2xvOaFIOXEX5T3ZiFEMQgN7ZPG/J/syPoI7+dF+Pq6CTL/8RflvVkIUQyq9TkX5Hhilog1ZZoeuUaAV72PLlKuVrdCFJrWAoqxY8E/dkF2GzvLS3krzrw3CyGKA7LK9jJ29BiX4dK8nEyc/NqOyiELsQtAVrOWuayE4tgU5ExNS5CF2AUQmM4E2ddJGC7Il0LpV96bhBDFQoIsRA8gQRaiB5AgC9EDSJCF6AEkyEL0ABJkIXoACbIQPcDjBPlBd5DJ07lvFEIUh9AlxGS2Jch3jOV4YvYbHlBllxDFB1nNBNk3ljB80cRK9dDclzygftZCFB9k1QSZjRZZNEFPehfk1eTw3N/sqGWMQhQcb1SPIDfXRyDIuMe+s9tqbXoRgVZjASEKDu5vU1ZdkFuNBbxViL1glQ6adNJ8+I1CiOKA+2symyb1E7ftSL8ujn1XjG99T2TabGrzNiEKTTz6cnMzt+lzKOHWbhMe9apNnnqfDpra3FyIYlPeX09L8UBK51uTXbJOKOO+Ewiyb+DGvsiVWu6bhRDFwPdnGxgJG7lhZtMlxLdUTfui6H3fDR2V3TiT+wFCiO5DVRebuUUDoxcyQUYZ+0A9Xw2dNOODM7kfIIToLg9FrEMOGWXsg8jXmr1wGdtbAS8hiolXc5nVXGuc/chkliCXN6cPw21tNoXy/Z9wpHM+RAjRXfCP2fcpaSyGQhDf9ymM/cYDP9n+1uIJIQrG1ILvlop/XB4cP+8yu8E/DmPNuBY2O9ceUEIUi7DnU+XQz4hphZ0YHxnkotbJJ0eDozKvhSgYpJwo2qJ4y2SVai4KQh4ZvuF5X6n0m8rY8e/4WyuhhCgIZla7pTxyJC3vHTvtstpci5w7iIDd8i1WKzVFr4UoCKEsM1ulyEKJXLM6DN9HJh564SI+sheHKOglRNfB1fXy6WY1l9d9ILCPGySWkfSrBL3YFV1aWYjuQoGWyWRaGZ/9px1DWeYj0eqHB3mpe8nwSxfQyggz9nneFwghOs8DbbxIpJrsEiuefnIErbxiWvnTkLfK+wIhRGcJ2jgen/2OOg/+Nn5SG4eBVv6WSq+Wr1yfy/0iIUSHoACknHjaKavk2rI2DqPlK5tz/bGr9tpQ/pcJIToC645RovHkqb+bLGJWs0BixtjW4A6QRsnwhdDzWquihHg6eDsf8sbPN/5HvMrkz91dY0eDhny36USAesdfVt9rIToL/QCo4/AqrulF0kxUcCHIreWK2x041ajzy9XG2U8wsfkCNR4QonMQoSZbVKnPfdEXRW+Y/BHgIu30RIO6zjSKau/RxJ4vkL8sRGcIfjFl0tkKp3WDltVtGXzQOq1FKuPH7/JFKhQRor14GaYpzcrw9P1k4tXX7W8quFgcsWOT+uHBB/GBX5GSyraqUA9sIdpECG6hIKuNBUqlWfeAXzxltHWwOoqOBLdqk6c/DCaAtpgR4slgPYPni81lzYJbRKeJTZ01OjJC8OsaXxicci13FGJnEDj2ILIJcvXw/J9NtnzhUnbs6AhF20tEsrmLoJmx7/N+qBAiHxQgAgxEqKNkAL8YRbnjfPF2h0eyjUtsW4Fdz/8VABNia4T1xTTSQxOXq4OvmQwRod7UFfNpDO4aCPBVVmXEI0e8uT3mtvLMQjweFiEhO2zRlPnEmNFoYoS4bRHq7YzWD/AFFuPH7+Ize9GIFlkIsQkUHIoOhecppuZCiJZCNLo6CIARJr9Dnjmun/rcnfdSWXstC5GBYgtyQbFHlidmJROKEIEuxCA1RZ55PYr636a7CLXZ9v+UjpxqFySeWaYWWtVaCDJBraxiiyWJKMCOpZh2OrDtqQBDgJdo2RkfnPnBTW2084EX809UiB4Fi9Sj0mjhoUbTH27WThPUQpDbXuzRzkFTAoT5ZnnwwHm0c7gjcVISaNHrUCRFNBo5wDJlPXF1/ChRafxgHkfhdSWotd2BuYCp7Tmx2uH5d1hwgZntAs3KjuFpRbdFT4EGbglw/7C358n6bBEUxoyGwvjD2xmcBGYEJ7DELhYEwzzvbAJtjzXvWComEbsUijpII6GcfD4jwBOz37gAN81o1vTzHNqYPdZ27eDHcxJo55ZAUxWGme2VYXai+BEINQsx1LxAFBXmps9bsy5xFX3uVmruAxPIylJKVD/iA/M8kektN8vbDYPI9kaBXsGH9mIS09KY2qHc057zi8TdjeQ5GjuZmM29sEJ0CuYc7a2Yg8zFILhA9w6EN5k4+bW9drk8XGcbFyoeWXrIa/CDe0qAHx4INElwVlJxwpz4Ejlo7mZ2Ua77omoungk2IfvsdY9CSN98EiHaQTCPH8bb7tjzzMnK6Mz3BHBpf5UFsNDAVGTxWhQUbXkKHY3uxOCOFfoRhQvBnexytG/yQn/j/Jvc7YzVZOLVT5OxYz8QEcS04aIK0W5w7ZhjTY59hmJhDrJGOBNczGYsy2A6A3P2iVvx9MpAqEldcXfD/A4XiQvGY2xcBUQA2YVOiE7xphHmG0JKwGrjnCQjg1XJ63ZFGqmbgxQWQvu4iylEp9moRDChEfICjr6+/wN2S3IBcQe8WwAAAABJRU5ErkJggg==;" parent="1" vertex="1">
          <mxGeometry x="450" y="525" width="139.62" height="60" as="geometry" />
        </mxCell>
        <mxCell id="LNoz9r7LhRh53aWZ0VOm-31" value="" style="shape=image;verticalLabelPosition=bottom;labelBackgroundColor=default;verticalAlign=top;aspect=fixed;imageAspect=0;image=data:image/png,iVBORw0KGgoAAAANSUhEUgAAAPIAAABoCAYAAADLla2BAAAAAXNSR0IArs4c6QAAAARnQU1BAACxjwv8YQUAAAAJcEhZcwAAFxEAABcRAcom8z8AAA5pSURBVHhe7Z1PaBznGYflnd2ZXUmxrUiWJXmtlWKSyLGj2rJcW7IDBYcQnBBKQmh6aDGFgi8BHXrwUTcdffRRkIshF0MpmEDBlFJMSEFQElxoIIcm5NCAoA6YuIfp+7w731qyx4kk73pH698Hj0fe/zN877x/v/frK/ioGr8wPjCWM24at4ToMCsG8425xxxkLmpscZwwlgyE9Z6RbmDNCBd51QiCLUQ7uWaEeXbb2DgHmZPMzSvGWUNjw3jTuG6sG1wsjjeMK31R9Ebl+SO/TRqLl2rT55ar04s3a9OLt5zJ+b+WR2e+SMaPp0I8KeWDR/+V1E/cbs0v59xyrbF4OT5w7N0oHnzX5iRKhrn6rREEm7l6yXgmNfaMgekSLgh3vqWof+QiF84u4PV4fPa7ePTltLz/cBr1D6el5LlwVxTiqbCnUktL1X0+BysjR9LK2NG71elzN2qNc0vxvvov7TWXDQSZ1yPUWIoopp4f+BrhxBHilei5Qxft7reSTJz8ujI87UK7p1RuXUwuJI9xMeMDLz5yJzWhF+KJSQ6d2DSv4rFXmkpkcNTnYN+eUnNO2jGqDaWVoUYaT8z+1967Go/MvGXPIdS4f7zujoGW7rmBAONzcJJrpVLyOzRvMjn/GXc67nw8hwAjtDxWrc/lXnAhukX18LwrE4R7Tzlpzlk7IvBJfe7f1ca5K1EyfMEex/zm+a8MzPFdb3ZjQhMc4KRu4mfYBVnmThYNjDwQXrsw0q5it4GyKe+vp3ui2Ocy7l88cuS+PbdaHhw/b49havMcGnpXmtzcgYgA4jesRfH+t8y3uJaMHfvBzRRO2o7c3WpTC7kXSYjdBKZ4SzmZlva53Vj4ONo3iYYOygy3cszYFYMUEncgos9LBAYq48fvBgHGv5D2Fb0K5nf5uTH3pdHULtDTiyt9UfSOzX9MbeSC3HShB5E8z7URAEgmf/4PP6lMAxNQyDt5IXqN6uTptLx34oH1eejEf2qTp963/1/lMYOsTSEHSXJ+4DUPz4++7P7vg7tS/gkL0cskE7Ot1Cn+NC6m/U1EO+SgCxMI44c0o3Sl0of8UH4w/0cbVxtnck9QiGcJ0lUhdUUxU5QMvG4ygplNymrK6OrAcaeYYz2K+t+uNc78hfQRP5gUUt4JCfGsgnbGQiXdWj0092UWCEOQqanoWsknQS2c9zsUdZBHK8UDbk4rmCVEPgTDgpxQKRYfnH3bZAgTG1P7qQfBEGK++FZt7OR7RKW50/AD+aF5JyCEyJhaaKaqguXaWKQqLATBnlpFGOY0mvgmixkIarntbya1/GEhtg4VYSZHHt3OgmCh9oJKyI4OAlv4xHfQxC7E2Q/J+6FCiB8nKMJmYPgcmR/MbIJgHQ2A+XJDnHTMaf8B++u5P1AIsTWoCjO5Slk0VDs8T+EIATCKqjqSmuJucY/oNIEtfGLM6bwfJoTYHp6eQphHZ77PotlEstHObR1UbHmemBQTQS1QnbQQ7YMAmGd9TFFmeWb85bZVgIUI9VUccrQwX6botBBtxhQjVWDkmSkaMcX5e5M7NPUTp6Ww0T1CTdmlV2yZX6w8sRCdAQXpbmttKK1OL5KSAhQpS4J3PFDr6/QsChFqVWwJ0VmoAPNA8t6JlBSvyR3BL5ZC7mg0TepS6Q9x/dTnmNOEyPO+WAjRXlhoZPKX0rsu85f5P7GqbQ9a86xhUntrE1P3Cm4J8fTAX/ZqyaaJTcEIkextpaQ8Sk1nD7p68Hd8cCb3y4QQnYH1+5jYuLPJ8EshJUUPsC0PbPIbRKm5IyhfLER3wE/GGk4aZ/5oMokQb1krN7VxMnwhHn3pPn+rs4cQXcLcWQSZqq/q+NHXTB6JYG9JK/t2Gdjl0sZCdB+EeINWxl/+Sa1MpDotVfovSRsLURA2aOXMV0Yr/+hyRyJjd1iFQcMwaWMhikHQyrXG2Y9MRlm8hOWcO1DVLJ9aJm9sR0WqhSgIdOV0mcRSbrbW5f+5Sx09yBUPvXCRlRgu/cobC1EY3EoeGEmrjQVqr/GTaUTwyGDJlAe5KNpWswAhioVXe+0pmSCf/cRklfJp1kFsGpjVHtamkbYdFeQSomDQSgtBNoG+v6Fsc5N5TY+gtLJ34lfuVJeT3A8SQnQXN68HR9lXCleYmNam6DUJ5nWvq+4fbr4w50OEEN2Fhn0o2qz+GneYHR9bgwdueMK5qbpzP0QI0V3oBWCymlbqc1/YEQW8yU9GRS/RMNuO6v4hRFGZWgh+clquDlKyiWD7Vq38Y7b33g9YZcG649wPEEIUApY30hsg26UCQfZN1NlzJq2OvvJrUk68KO/NQohigBAT9Mp2qGgtbSTq1Qx01YbUBUSIghPKNbOAF6WaHD2xvOaFIOXEX5T3ZiFEMQgN7ZPG/J/syPoI7+dF+Pq6CTL/8RflvVkIUQyq9TkX5Hhilog1ZZoeuUaAV72PLlKuVrdCFJrWAoqxY8E/dkF2GzvLS3krzrw3CyGKA7LK9jJ29BiX4dK8nEyc/NqOyiELsQtAVrOWuayE4tgU5ExNS5CF2AUQmM4E2ddJGC7Il0LpV96bhBDFQoIsRA8gQRaiB5AgC9EDSJCF6AEkyEL0ABJkIXoACbIQPcDjBPlBd5DJ07lvFEIUh9AlxGS2Jch3jOV4YvYbHlBllxDFB1nNBNk3ljB80cRK9dDclzygftZCFB9k1QSZjRZZNEFPehfk1eTw3N/sqGWMQhQcb1SPIDfXRyDIuMe+s9tqbXoRgVZjASEKDu5vU1ZdkFuNBbxViL1glQ6adNJ8+I1CiOKA+2symyb1E7ftSL8ujn1XjG99T2TabGrzNiEKTTz6cnMzt+lzKOHWbhMe9apNnnqfDpra3FyIYlPeX09L8UBK51uTXbJOKOO+Ewiyb+DGvsiVWu6bhRDFwPdnGxgJG7lhZtMlxLdUTfui6H3fDR2V3TiT+wFCiO5DVRebuUUDoxcyQUYZ+0A9Xw2dNOODM7kfIIToLg9FrEMOGWXsg8jXmr1wGdtbAS8hiolXc5nVXGuc/chkliCXN6cPw21tNoXy/Z9wpHM+RAjRXfCP2fcpaSyGQhDf9ymM/cYDP9n+1uIJIQrG1ILvlop/XB4cP+8yu8E/DmPNuBY2O9ceUEIUi7DnU+XQz4hphZ0YHxnkotbJJ0eDozKvhSgYpJwo2qJ4y2SVai4KQh4ZvuF5X6n0m8rY8e/4WyuhhCgIZla7pTxyJC3vHTvtstpci5w7iIDd8i1WKzVFr4UoCKEsM1ulyEKJXLM6DN9HJh564SI+sheHKOglRNfB1fXy6WY1l9d9ILCPGySWkfSrBL3YFV1aWYjuQoGWyWRaGZ/9px1DWeYj0eqHB3mpe8nwSxfQyggz9nneFwghOs8DbbxIpJrsEiuefnIErbxiWvnTkLfK+wIhRGcJ2jgen/2OOg/+Nn5SG4eBVv6WSq+Wr1yfy/0iIUSHoACknHjaKavk2rI2DqPlK5tz/bGr9tpQ/pcJIToC645RovHkqb+bLGJWs0BixtjW4A6QRsnwhdDzWquihHg6eDsf8sbPN/5HvMrkz91dY0eDhny36USAesdfVt9rIToL/QCo4/AqrulF0kxUcCHIreWK2x041ajzy9XG2U8wsfkCNR4QonMQoSZbVKnPfdEXRW+Y/BHgIu30RIO6zjSKau/RxJ4vkL8sRGcIfjFl0tkKp3WDltVtGXzQOq1FKuPH7/JFKhQRor14GaYpzcrw9P1k4tXX7W8quFgcsWOT+uHBB/GBX5GSyraqUA9sIdpECG6hIKuNBUqlWfeAXzxltHWwOoqOBLdqk6c/DCaAtpgR4slgPYPni81lzYJbRKeJTZ01OjJC8OsaXxicci13FGJnEDj2ILIJcvXw/J9NtnzhUnbs6AhF20tEsrmLoJmx7/N+qBAiHxQgAgxEqKNkAL8YRbnjfPF2h0eyjUtsW4Fdz/8VABNia4T1xTTSQxOXq4OvmQwRod7UFfNpDO4aCPBVVmXEI0e8uT3mtvLMQjweFiEhO2zRlPnEmNFoYoS4bRHq7YzWD/AFFuPH7+Ize9GIFlkIsQkUHIoOhecppuZCiJZCNLo6CIARJr9Dnjmun/rcnfdSWXstC5GBYgtyQbFHlidmJROKEIEuxCA1RZ55PYr636a7CLXZ9v+UjpxqFySeWaYWWtVaCDJBraxiiyWJKMCOpZh2OrDtqQBDgJdo2RkfnPnBTW2084EX809UiB4Fi9Sj0mjhoUbTH27WThPUQpDbXuzRzkFTAoT5ZnnwwHm0c7gjcVISaNHrUCRFNBo5wDJlPXF1/ChRafxgHkfhdSWotd2BuYCp7Tmx2uH5d1hwgZntAs3KjuFpRbdFT4EGbglw/7C358n6bBEUxoyGwvjD2xmcBGYEJ7DELhYEwzzvbAJtjzXvWComEbsUijpII6GcfD4jwBOz37gAN81o1vTzHNqYPdZ27eDHcxJo55ZAUxWGme2VYXai+BEINQsx1LxAFBXmps9bsy5xFX3uVmruAxPIylJKVD/iA/M8kektN8vbDYPI9kaBXsGH9mIS09KY2qHc057zi8TdjeQ5GjuZmM29sEJ0CuYc7a2Yg8zFILhA9w6EN5k4+bW9drk8XGcbFyoeWXrIa/CDe0qAHx4INElwVlJxwpz4Ejlo7mZ2Ua77omoungk2IfvsdY9CSN98EiHaQTCPH8bb7tjzzMnK6Mz3BHBpf5UFsNDAVGTxWhQUbXkKHY3uxOCOFfoRhQvBnexytG/yQn/j/Jvc7YzVZOLVT5OxYz8QEcS04aIK0W5w7ZhjTY59hmJhDrJGOBNczGYsy2A6A3P2iVvx9MpAqEldcXfD/A4XiQvGY2xcBUQA2YVOiE7xphHmG0JKwGrjnCQjg1XJ63ZFGqmbgxQWQvu4iylEp9moRDChEfICjr6+/wN2S3IBcQe8WwAAAABJRU5ErkJggg==;" parent="1" vertex="1">
          <mxGeometry x="450" y="615" width="139.62" height="60" as="geometry" />
        </mxCell>
        <mxCell id="LNoz9r7LhRh53aWZ0VOm-32" value="" style="shape=image;verticalLabelPosition=bottom;labelBackgroundColor=default;verticalAlign=top;aspect=fixed;imageAspect=0;image=data:image/png,iVBORw0KGgoAAAANSUhEUgAAAPIAAABoCAYAAADLla2BAAAAAXNSR0IArs4c6QAAAARnQU1BAACxjwv8YQUAAAAJcEhZcwAAFxEAABcRAcom8z8AAA5pSURBVHhe7Z1PaBznGYflnd2ZXUmxrUiWJXmtlWKSyLGj2rJcW7IDBYcQnBBKQmh6aDGFgi8BHXrwUTcdffRRkIshF0MpmEDBlFJMSEFQElxoIIcm5NCAoA6YuIfp+7w731qyx4kk73pH698Hj0fe/zN877x/v/frK/ioGr8wPjCWM24at4ToMCsG8425xxxkLmpscZwwlgyE9Z6RbmDNCBd51QiCLUQ7uWaEeXbb2DgHmZPMzSvGWUNjw3jTuG6sG1wsjjeMK31R9Ebl+SO/TRqLl2rT55ar04s3a9OLt5zJ+b+WR2e+SMaPp0I8KeWDR/+V1E/cbs0v59xyrbF4OT5w7N0oHnzX5iRKhrn6rREEm7l6yXgmNfaMgekSLgh3vqWof+QiF84u4PV4fPa7ePTltLz/cBr1D6el5LlwVxTiqbCnUktL1X0+BysjR9LK2NG71elzN2qNc0vxvvov7TWXDQSZ1yPUWIoopp4f+BrhxBHilei5Qxft7reSTJz8ujI87UK7p1RuXUwuJI9xMeMDLz5yJzWhF+KJSQ6d2DSv4rFXmkpkcNTnYN+eUnNO2jGqDaWVoUYaT8z+1967Go/MvGXPIdS4f7zujoGW7rmBAONzcJJrpVLyOzRvMjn/GXc67nw8hwAjtDxWrc/lXnAhukX18LwrE4R7Tzlpzlk7IvBJfe7f1ca5K1EyfMEex/zm+a8MzPFdb3ZjQhMc4KRu4mfYBVnmThYNjDwQXrsw0q5it4GyKe+vp3ui2Ocy7l88cuS+PbdaHhw/b49havMcGnpXmtzcgYgA4jesRfH+t8y3uJaMHfvBzRRO2o7c3WpTC7kXSYjdBKZ4SzmZlva53Vj4ONo3iYYOygy3cszYFYMUEncgos9LBAYq48fvBgHGv5D2Fb0K5nf5uTH3pdHULtDTiyt9UfSOzX9MbeSC3HShB5E8z7URAEgmf/4PP6lMAxNQyDt5IXqN6uTptLx34oH1eejEf2qTp963/1/lMYOsTSEHSXJ+4DUPz4++7P7vg7tS/gkL0cskE7Ot1Cn+NC6m/U1EO+SgCxMI44c0o3Sl0of8UH4w/0cbVxtnck9QiGcJ0lUhdUUxU5QMvG4ygplNymrK6OrAcaeYYz2K+t+uNc78hfQRP5gUUt4JCfGsgnbGQiXdWj0092UWCEOQqanoWsknQS2c9zsUdZBHK8UDbk4rmCVEPgTDgpxQKRYfnH3bZAgTG1P7qQfBEGK++FZt7OR7RKW50/AD+aF5JyCEyJhaaKaqguXaWKQqLATBnlpFGOY0mvgmixkIarntbya1/GEhtg4VYSZHHt3OgmCh9oJKyI4OAlv4xHfQxC7E2Q/J+6FCiB8nKMJmYPgcmR/MbIJgHQ2A+XJDnHTMaf8B++u5P1AIsTWoCjO5Slk0VDs8T+EIATCKqjqSmuJucY/oNIEtfGLM6bwfJoTYHp6eQphHZ77PotlEstHObR1UbHmemBQTQS1QnbQQ7YMAmGd9TFFmeWb85bZVgIUI9VUccrQwX6botBBtxhQjVWDkmSkaMcX5e5M7NPUTp6Ww0T1CTdmlV2yZX6w8sRCdAQXpbmttKK1OL5KSAhQpS4J3PFDr6/QsChFqVWwJ0VmoAPNA8t6JlBSvyR3BL5ZC7mg0TepS6Q9x/dTnmNOEyPO+WAjRXlhoZPKX0rsu85f5P7GqbQ9a86xhUntrE1P3Cm4J8fTAX/ZqyaaJTcEIkextpaQ8Sk1nD7p68Hd8cCb3y4QQnYH1+5jYuLPJ8EshJUUPsC0PbPIbRKm5IyhfLER3wE/GGk4aZ/5oMokQb1krN7VxMnwhHn3pPn+rs4cQXcLcWQSZqq/q+NHXTB6JYG9JK/t2Gdjl0sZCdB+EeINWxl/+Sa1MpDotVfovSRsLURA2aOXMV0Yr/+hyRyJjd1iFQcMwaWMhikHQyrXG2Y9MRlm8hOWcO1DVLJ9aJm9sR0WqhSgIdOV0mcRSbrbW5f+5Sx09yBUPvXCRlRgu/cobC1EY3EoeGEmrjQVqr/GTaUTwyGDJlAe5KNpWswAhioVXe+0pmSCf/cRklfJp1kFsGpjVHtamkbYdFeQSomDQSgtBNoG+v6Fsc5N5TY+gtLJ34lfuVJeT3A8SQnQXN68HR9lXCleYmNam6DUJ5nWvq+4fbr4w50OEEN2Fhn0o2qz+GneYHR9bgwdueMK5qbpzP0QI0V3oBWCymlbqc1/YEQW8yU9GRS/RMNuO6v4hRFGZWgh+clquDlKyiWD7Vq38Y7b33g9YZcG649wPEEIUApY30hsg26UCQfZN1NlzJq2OvvJrUk68KO/NQohigBAT9Mp2qGgtbSTq1Qx01YbUBUSIghPKNbOAF6WaHD2xvOaFIOXEX5T3ZiFEMQgN7ZPG/J/syPoI7+dF+Pq6CTL/8RflvVkIUQyq9TkX5Hhilog1ZZoeuUaAV72PLlKuVrdCFJrWAoqxY8E/dkF2GzvLS3krzrw3CyGKA7LK9jJ29BiX4dK8nEyc/NqOyiELsQtAVrOWuayE4tgU5ExNS5CF2AUQmM4E2ddJGC7Il0LpV96bhBDFQoIsRA8gQRaiB5AgC9EDSJCF6AEkyEL0ABJkIXoACbIQPcDjBPlBd5DJ07lvFEIUh9AlxGS2Jch3jOV4YvYbHlBllxDFB1nNBNk3ljB80cRK9dDclzygftZCFB9k1QSZjRZZNEFPehfk1eTw3N/sqGWMQhQcb1SPIDfXRyDIuMe+s9tqbXoRgVZjASEKDu5vU1ZdkFuNBbxViL1glQ6adNJ8+I1CiOKA+2symyb1E7ftSL8ujn1XjG99T2TabGrzNiEKTTz6cnMzt+lzKOHWbhMe9apNnnqfDpra3FyIYlPeX09L8UBK51uTXbJOKOO+Ewiyb+DGvsiVWu6bhRDFwPdnGxgJG7lhZtMlxLdUTfui6H3fDR2V3TiT+wFCiO5DVRebuUUDoxcyQUYZ+0A9Xw2dNOODM7kfIIToLg9FrEMOGWXsg8jXmr1wGdtbAS8hiolXc5nVXGuc/chkliCXN6cPw21tNoXy/Z9wpHM+RAjRXfCP2fcpaSyGQhDf9ymM/cYDP9n+1uIJIQrG1ILvlop/XB4cP+8yu8E/DmPNuBY2O9ceUEIUi7DnU+XQz4hphZ0YHxnkotbJJ0eDozKvhSgYpJwo2qJ4y2SVai4KQh4ZvuF5X6n0m8rY8e/4WyuhhCgIZla7pTxyJC3vHTvtstpci5w7iIDd8i1WKzVFr4UoCKEsM1ulyEKJXLM6DN9HJh564SI+sheHKOglRNfB1fXy6WY1l9d9ILCPGySWkfSrBL3YFV1aWYjuQoGWyWRaGZ/9px1DWeYj0eqHB3mpe8nwSxfQyggz9nneFwghOs8DbbxIpJrsEiuefnIErbxiWvnTkLfK+wIhRGcJ2jgen/2OOg/+Nn5SG4eBVv6WSq+Wr1yfy/0iIUSHoACknHjaKavk2rI2DqPlK5tz/bGr9tpQ/pcJIToC645RovHkqb+bLGJWs0BixtjW4A6QRsnwhdDzWquihHg6eDsf8sbPN/5HvMrkz91dY0eDhny36USAesdfVt9rIToL/QCo4/AqrulF0kxUcCHIreWK2x041ajzy9XG2U8wsfkCNR4QonMQoSZbVKnPfdEXRW+Y/BHgIu30RIO6zjSKau/RxJ4vkL8sRGcIfjFl0tkKp3WDltVtGXzQOq1FKuPH7/JFKhQRor14GaYpzcrw9P1k4tXX7W8quFgcsWOT+uHBB/GBX5GSyraqUA9sIdpECG6hIKuNBUqlWfeAXzxltHWwOoqOBLdqk6c/DCaAtpgR4slgPYPni81lzYJbRKeJTZ01OjJC8OsaXxicci13FGJnEDj2ILIJcvXw/J9NtnzhUnbs6AhF20tEsrmLoJmx7/N+qBAiHxQgAgxEqKNkAL8YRbnjfPF2h0eyjUtsW4Fdz/8VABNia4T1xTTSQxOXq4OvmQwRod7UFfNpDO4aCPBVVmXEI0e8uT3mtvLMQjweFiEhO2zRlPnEmNFoYoS4bRHq7YzWD/AFFuPH7+Ize9GIFlkIsQkUHIoOhecppuZCiJZCNLo6CIARJr9Dnjmun/rcnfdSWXstC5GBYgtyQbFHlidmJROKEIEuxCA1RZ55PYr636a7CLXZ9v+UjpxqFySeWaYWWtVaCDJBraxiiyWJKMCOpZh2OrDtqQBDgJdo2RkfnPnBTW2084EX809UiB4Fi9Sj0mjhoUbTH27WThPUQpDbXuzRzkFTAoT5ZnnwwHm0c7gjcVISaNHrUCRFNBo5wDJlPXF1/ChRafxgHkfhdSWotd2BuYCp7Tmx2uH5d1hwgZntAs3KjuFpRbdFT4EGbglw/7C358n6bBEUxoyGwvjD2xmcBGYEJ7DELhYEwzzvbAJtjzXvWComEbsUijpII6GcfD4jwBOz37gAN81o1vTzHNqYPdZ27eDHcxJo55ZAUxWGme2VYXai+BEINQsx1LxAFBXmps9bsy5xFX3uVmruAxPIylJKVD/iA/M8kektN8vbDYPI9kaBXsGH9mIS09KY2qHc057zi8TdjeQ5GjuZmM29sEJ0CuYc7a2Yg8zFILhA9w6EN5k4+bW9drk8XGcbFyoeWXrIa/CDe0qAHx4INElwVlJxwpz4Ejlo7mZ2Ua77omoungk2IfvsdY9CSN98EiHaQTCPH8bb7tjzzMnK6Mz3BHBpf5UFsNDAVGTxWhQUbXkKHY3uxOCOFfoRhQvBnexytG/yQn/j/Jvc7YzVZOLVT5OxYz8QEcS04aIK0W5w7ZhjTY59hmJhDrJGOBNczGYsy2A6A3P2iVvx9MpAqEldcXfD/A4XiQvGY2xcBUQA2YVOiE7xphHmG0JKwGrjnCQjg1XJ63ZFGqmbgxQWQvu4iylEp9moRDChEfICjr6+/wN2S3IBcQe8WwAAAABJRU5ErkJggg==;" parent="1" vertex="1">
          <mxGeometry x="450" y="705" width="139.62" height="60" as="geometry" />
        </mxCell>
        <mxCell id="LNoz9r7LhRh53aWZ0VOm-33" value="" style="shape=image;verticalLabelPosition=bottom;labelBackgroundColor=default;verticalAlign=top;aspect=fixed;imageAspect=0;image=data:image/png,iVBORw0KGgoAAAANSUhEUgAAAE8AAABPCAYAAACqNJiGAAAAAXNSR0IArs4c6QAAAARnQU1BAACxjwv8YQUAAAAJcEhZcwAAFxEAABcRAcom8z8AABGSSURBVHhe5Z1rcFXVFcf92I/92KmkUamKYFv7crBVy6jDUHV8jpJoEY06UIsI3ItRQklGhVQaDSKaFEhSgjSAURDByCtBCIRHCIG8IPKWl/LqkDBO7YfT/VvnrJubyw733OQmOdg9s+Tm3vNY67/Xe+9zvKq/x9WPTxw6IC08IiU9lDMgfXJJSnq4qityf+e4SQ9dPTI0zLvE/89IfSz8o5S00NiUtPAyA4ijZABsUZAAyEIV8ltaaJee41GNudaE1PRJg7xbfL8GgiGgCOoCdd78XTYgPZQ2ZVHFcw3ftKU1nW3LaTrXXtZ0tr0K+qS+ddv8ytpdpdX1O/W7xrPtyziu8Uz707kfrX1q8LNZjw1IDxeY65z0rttiPuf/+InwLd6tr9yRMjL8tKdRDgIi6K9eyHlSwDJALdna3PbqwpXOqLx/OvdNmxOtTV3S8CnvOCNzixzOK1y/9TsABcwHp8+/e0Da5Nzo+6GxqaNf+qHHzpUxjAAj1LzwUwjWdPrCWASdV7XDyXhnkfPzMTkCxm/GTRfgQiWfODOXVzllWxu7pPfWbBXQHn690Lltwt/k/IGjXhHwZ62qdjYfPrWj4UzbhInzyu8FODRcQDRa77EW3IG5GIHwWw4+7YU5ZXcDGIIhIILy27DJeQLCit37HWOO3abK1mMCOGDKPQ0xEW+Ur3O2HP1mU3ld0z2Y8YC00LdG6w8RaDxWgzMIAl6kNKCFdt02fsb9Rrh8zArN4nsERFAEjgUhGbT92BnRTCZpUMZUIUDcduLsisyiFbczmR7AVUR4j/X+HV6qYcwjfOimjKxRjacvvPLB5j1t+CaYRZjeAqwrAkjcAJrO5AGq+T7/9vDMewBPQDQR3xOhfwYMYBLM6pYj3zz2WcP+0zhzmMN8emqWPaXqQ6fEv8IProJJZXJT0icZwh+HC1JHZ//AE6fvBjeWGTSOmfQBE1EmF2yqtwrTX8QkajQf+/4Sp/bkuaWS5pAymfSpzyIyNzI3rELjSDvwKZgmjGWXVViZDwoR6fGFuJQNrV81EtDcQBI+1Ou5ITfQm416a8G9MAAjMBQ0beuKVjcfljQHX7hs174zRGRVBlIsT9TkDjQO0FDzj2ub719W9+UFGIARGLIxGlQioGDGBJTZqzd/Rw5KtgCASY/EOFWZHQMewKH+3BgGYMTG4JVA4+eWi7sh5yS5JvCRVKeOzLzGE73nw4BWwKzgI9A4gCOK2RjqLpXXtkiVgCAQExNNCMr3BCaqjV1f/9t6nUSJewIgOej61uPDjem2kKsmJQqTjnBxgsMX+098iamS8NoYSZRiSzWIaA1YWr9CHKMg6nFMIMcgfE+1n0DH9UhlSKglCqeFyzwIujfomUkeZ/IioirBAR/XE2ZJmLUKAAQAQZtKa5qdnJXbhcaVVTmPF650HpxV7jzw9lL5PGbhusjvpdv3CmjRJR9AopG2e/oh5WlNy9H9VEgqtwdFYgO792ZgWdPZi7l68e4GBxJW9TFoL2ZSvLnJyfy42rlz+gfODS/mOddmZAupdsXStc9Mk98Hjs11bp1WLCDPN6BTQahWYhXdSc5xA2g9ylF98MQ6IzctNJNId6MeBjRsf/PBr0eh1lyou+kIpgfwmCdaNqtytzM0Z4Fz/V/edFKfypJr/+TJTGfgmOnyHTRo0rvOoNCcCF0/bqZ8D3CpT01xzzFaN3DsDOeWV/8hGjm3cqcAwG+YeqIWglXAo+uW2qSzLQEkEf/ndUccsnByIT4jtO2GlyNNCQAOAAs37XHuerNMQIoWHnBunlqSEA3OLOwEPhqJNs5cu0tMGhDQ8ES1kMCFK3ht6er/5q2oMv5Pyk//LS3DTA1aB/r4EmbTdqPLUXQyumBLg/PonOXOT//8ppPyxGQB7Ybx+VZQukOAj0kD4nXPvy5uoGxna2TiCEw2Hrsi3Avg4+elpeVX+7BxmKCBWbyx7j98TtRccdwwTYAp3dri/DJrngCGaWJ+N2cVW0HoKd048R3XpM0EDZk025m9YbfUssiQiOXgn9E+3NWcz7aZEo4ueCjfg8g+JBmmAyxBoj0fjUPzYi9+OQJomCXAwPyQ0LsiDJoxZMp8q9BJJTMxuAJ4wKwJSADH37gOG8824lgArNx7tBKzxXzpW3pQXTr0oKmlqx6ikckNE/EZmCoah7PGgaNlXANhekvbuqIbXnxLJg0zHl30uUR3ePF6e3GJ6IvpYsK02+Jqn1v0h/KxdU5MpIogOODfMNW8tXUR4BDCJlxfEL4QV3HtszmigQCBNhEUbDLEEhrL8TRAItpna19phKUEY5Y4Cdu3XTSWmCWcM+CRu4mp9jNwSoPC74kGkuKQIpGGoBh+utvR2rdeSjcTeUeGn/Yg6xiy2mQ0j04rN0jE19HyxlyJquRcLrPGVC3C9AfdOGGWTObgl/KlOiELwEJsssQSvg8AG8+1FxALIA+yjkGgYN2TVSe0jlzJdrFY0siEio/IWypRlZyrr31cPJI0yQD4mylznY92tcpnPykMPp9j/1XTcMJdh8Z0o9IWSjEOuOfl/EdwqHz2m51rTkSZhGkAXp9E1W4Qk3rN6Kni/xLJX3FHWJfXOO1csokzNNGElXdSDPyX7SKxpLOSu6zS+cOMRWKu1Kg2xoNAN71cIPzikxdtM5PtWYxNtmhCQTB1igZzvmw48qCTikK+2Hni3Gp8l9+1CJ09SqLrnntNtC5o5hpLyuf4JRsiVmOTLZpI+gGdjosbdcPnBThvQccZnJH9wAdbdktF4TcSMXN5n26UmpLzyPBtDAeJhrwyL2Ih5XVfCt/xWlnIqkolC+jmHNniRs+eP4rX73wEu3bV036RaMI3Al7RliZxxpRFNmaDSDQmqHhmVNSK5aCBNhmjCXdGFoJrc1t1obHeTqbQtyyCYIYcZDs5lvRiEz/cKMABoI3RIBIWgsI8PPtjSUUICDYZowmtc4+7mGvOrZFqg/TE7aC056N1fvydqjHpzNDsEmGEZNTGaCDJ+GUx3fH5ztLavcJ/vCYvaQ3HuZ0W2aFaQaQtI/HjS370k/to8U81QfEtgcLGZICJko3g8f6mRtGoeEoDuMj8YW3zXtrzLBRFIu3nTYdl16afdQDCOzek+Hfb4sGpJvySNg5wO7ifeHU81gY+CzbWnxRXZ6oxAY/SbE3zka/40c8aBYGF8kb9nfToLAwGmWjzI++oeasEOAC0yRpNHC9FhAGPz1KWAZ6UH+YLP2kKNyO4PFOyRi6YzK5wX5EmzH/MWyxBw0+1oX7emOwIAQ/1A7yF1fVn/YJHBUKH9v58dzWMWbQxGGSSfM/wPnTafOn1+UmWcVWAR47XCTyxZZ/gEZWZrd+/5u6OYhZtDAad4B2r0UhqkzWaLgHP/KeTz/MDnkan3051Z4+VLBtzQSd4Bzwtv2yyRhPHAF6Hz5NoGy6oaD5cxxd+oi1mS1Y+/O+L5YLdWTrsb6LzA++/yCwQQKiWbLJGE8cXVdWec6Nt6KQBL1RBqiKr5OZHP3ke1QX0p/nuYjjNRhuDQSasBd7vfKM0qnqwywtVHzolx5vAetjtQplUhTLDfFlDpxSn6bdFg/ax3YEEOchtqK4IawEMSjSVxyarkhYGrKZhqShdpJfH/jRyHaKo7eRo0pkiSaa5eCXVtUramkcB1JJssiqhVKQq5rNRNqw1XOA+rWMusqLhwKMA56e3T6LIhShttENhYzDIRFXExNNZQeZ4nZUINrKL1GQoRuncpxANePdOmX2fOs54LXi1/6Iv6pybWZ0yn8mbbEwGlaQyMnV5eZ3bDY+3KwJLA+Av9h29k+MjrXiKXNIVnt3iBz8Lw8wCs/HE3FVec7H/lxn9klYXv8sujkRaalebnJA2BSgkjItL67R+q08LsuyI44xn/xB+jwCD6bIqLytmFkaDSNoJylpRI2VmPHmRFTdFUHXbUeEqAY6hGfNfF352tzrGy80ERDLNOSUb613na7Tviqg0sooFOFb6ynbuF61D+2wyKqFQ1PMbDp56wCiZ20WOHkRcnKBWGn6SZYppZo2lPJwv/TErwwEi0iommjVmFCWej1f/ziMHQzKyh/P5kt3yqo60mald40UfSGtClvF0i0WQO8pUFap1H9YfFLcTT071iTxypTmxB1nH0JSF5yzo13HheKYLoX34DfyHLirbGA8C6aI8PTzVOjTLJpcSuS8kCz9eE8WDrGOwhUA2shh7ZlcQF/ZTbWjmXbB+W2QJMojNUakoJCvIc8p2tApwKIlNJiVd1H9/bc35n2VkS4rS5YsgUEt8H/vRUGe/2qeL32y5EJ9ibhKkHt/gzLmy1QyfTFVEiuVHNtIxgoU+HUTj2IPq0iFPbIv2hSdU7j9W68cnQEReIjTBg4yd7B1mA9GqMtEVVwJFb3KM1wBRf86GdjYE8BnX5kFlH17Od569uH79AkR05lhyoucXrBH/RxbPrFuF6gsywLFKhp+jfVa6eU+ER5sM0aS+HF8nSxW2rWWxQ3yfMV1MWHeI+kmaIZ1V/B8temYbDeyPfh+Tpven483WCrUOG+/RpLshWGbUDe6+n8fFbDFf9mXo3mS/W1Exc27MLGMm+Jm+Lt9IlwAN8NA4gKM2xYfF83PkfOquZC+yPMjnQ+t0dN4VfzGXUM0F/ZgvzDG7AI7Zk8KQIvA3ZVxvmjF5HKUXk8WkkZIwiWgcZuhnzyGmCtBVrcc3qxJddhe8bWjexxsr2C3qd+aUAI7ziWzUvyTR+B4EA8xkb4AkynN9NI5Uiaiqe6uZTD98k7pwfHntvuOj8ork6UdigAdJYsMNHqFvaVet3HPgGDOYyA55IhbnEO6X7zngvLBovSukERCiidqTioRozvUITDopaYWfOuX1B8TsmDxW+Wy8xZIsZpvjKcMWVu++w02Iw1WdttAmOtyuaegk0VefCPKTPCuRaFLucR4CkaAioG5L43spmcZMl91LBBebaaOp/AYBUuwDf/g2Cn14Y8IgP601SJ83k6T59AUChDzVnrC5xg55t4D0+8I1OFDCPEzHax7Gki4sIxTasLzhiDQUhs1YKGamz475IYADQDZns+VjkQGNGhTXoiD43VNNjsp5+Dr8uxQKxtqS9raLqGdvy9iXi+nCpN+ZVcLvABwAAgKBCFAX79gnW3P1AWVW8alQcP4QGglQ9+UtlmMIQpgm98ef6fXgy09QU8IqAI5gsunIqZWUplynW8/YXm5oAGF7lblxPrPL334qkFhCKxAcYVVwBAAIwIXQbBJvJTSe7wlA+FCXl7BoDBOQCGgQ90cBOB/gqCLQuG4HiHijY2bCBbwDD+cKA2iQXzOxEeAwGYACYd4KjhL30d8BEOH9Rv5Y6jzxF3N1dyxtOU/U3hmoNDcyN6/iuYQl2xvPICxBwc/2tP4kJhhNYyKYeBQAHweQvaZxsSP6zT48l0sLC7PDBDGv7mpEbxJpE/6NiSaPIx1BAVyNC6V5ovXN8B5BMDcPn+dx+trj50vxScwqDOKHbEL0NeESmFi0Cx9Lt8hLgFuY/KRF1USH20ToeJsZZkxZowkqMx2v9dNbRCTVwIKpom2Swxm/LZmDSb16nMclYyhDwpSpB8kHVzcfatIal7KuOxExUdIoDlh6X9Za3VV+fHXkZaz5Paockj3cZNot5zAHIhi9MJqJ6qRhHBPCLyYruJDkMjFEfK4PoXGF67a1k5N6K16R95gm9T1RyR7SjXZX4uT9oeRPRDVWnxAIv6OpCGaNiSM8vileoOF3jqOaIN1QX8bEoOV8T86Gpt316tt3AJbwYcALzHtC/QzvxdLCPLUxvhHTwe+w8k6KA3Dql2IJYPhNAYolTJJ8z9WwiyVM0K/HvXGrq/2ueTJ55nPvvBOvL8bl3s5NuoBpASaBBv+EZmmVEU18z4uyeF4EsDiv4XTbMPFlMjHfw7d0Rw9MWqqUDnMSYc2/si8akNn60RW5e4Ej74mXyfDo+/1++NjhpjmsD3T83whEKzsA6YoAyoDPeaG0/ks3rrrqf09pvAEay5ncAAAAAElFTkSuQmCC;" parent="1" vertex="1">
          <mxGeometry x="489.81" y="970" width="60" height="60" as="geometry" />
        </mxCell>
        <mxCell id="LNoz9r7LhRh53aWZ0VOm-34" value="" style="shape=image;verticalLabelPosition=bottom;labelBackgroundColor=default;verticalAlign=top;aspect=fixed;imageAspect=0;image=data:image/png,iVBORw0KGgoAAAANSUhEUgAAAPIAAABoCAYAAADLla2BAAAAAXNSR0IArs4c6QAAAARnQU1BAACxjwv8YQUAAAAJcEhZcwAAFxEAABcRAcom8z8AAA5pSURBVHhe7Z1PaBznGYflnd2ZXUmxrUiWJXmtlWKSyLGj2rJcW7IDBYcQnBBKQmh6aDGFgi8BHXrwUTcdffRRkIshF0MpmEDBlFJMSEFQElxoIIcm5NCAoA6YuIfp+7w731qyx4kk73pH698Hj0fe/zN877x/v/frK/ioGr8wPjCWM24at4ToMCsG8425xxxkLmpscZwwlgyE9Z6RbmDNCBd51QiCLUQ7uWaEeXbb2DgHmZPMzSvGWUNjw3jTuG6sG1wsjjeMK31R9Ebl+SO/TRqLl2rT55ar04s3a9OLt5zJ+b+WR2e+SMaPp0I8KeWDR/+V1E/cbs0v59xyrbF4OT5w7N0oHnzX5iRKhrn6rREEm7l6yXgmNfaMgekSLgh3vqWof+QiF84u4PV4fPa7ePTltLz/cBr1D6el5LlwVxTiqbCnUktL1X0+BysjR9LK2NG71elzN2qNc0vxvvov7TWXDQSZ1yPUWIoopp4f+BrhxBHilei5Qxft7reSTJz8ujI87UK7p1RuXUwuJI9xMeMDLz5yJzWhF+KJSQ6d2DSv4rFXmkpkcNTnYN+eUnNO2jGqDaWVoUYaT8z+1967Go/MvGXPIdS4f7zujoGW7rmBAONzcJJrpVLyOzRvMjn/GXc67nw8hwAjtDxWrc/lXnAhukX18LwrE4R7Tzlpzlk7IvBJfe7f1ca5K1EyfMEex/zm+a8MzPFdb3ZjQhMc4KRu4mfYBVnmThYNjDwQXrsw0q5it4GyKe+vp3ui2Ocy7l88cuS+PbdaHhw/b49havMcGnpXmtzcgYgA4jesRfH+t8y3uJaMHfvBzRRO2o7c3WpTC7kXSYjdBKZ4SzmZlva53Vj4ONo3iYYOygy3cszYFYMUEncgos9LBAYq48fvBgHGv5D2Fb0K5nf5uTH3pdHULtDTiyt9UfSOzX9MbeSC3HShB5E8z7URAEgmf/4PP6lMAxNQyDt5IXqN6uTptLx34oH1eejEf2qTp963/1/lMYOsTSEHSXJ+4DUPz4++7P7vg7tS/gkL0cskE7Ot1Cn+NC6m/U1EO+SgCxMI44c0o3Sl0of8UH4w/0cbVxtnck9QiGcJ0lUhdUUxU5QMvG4ygplNymrK6OrAcaeYYz2K+t+uNc78hfQRP5gUUt4JCfGsgnbGQiXdWj0092UWCEOQqanoWsknQS2c9zsUdZBHK8UDbk4rmCVEPgTDgpxQKRYfnH3bZAgTG1P7qQfBEGK++FZt7OR7RKW50/AD+aF5JyCEyJhaaKaqguXaWKQqLATBnlpFGOY0mvgmixkIarntbya1/GEhtg4VYSZHHt3OgmCh9oJKyI4OAlv4xHfQxC7E2Q/J+6FCiB8nKMJmYPgcmR/MbIJgHQ2A+XJDnHTMaf8B++u5P1AIsTWoCjO5Slk0VDs8T+EIATCKqjqSmuJucY/oNIEtfGLM6bwfJoTYHp6eQphHZ77PotlEstHObR1UbHmemBQTQS1QnbQQ7YMAmGd9TFFmeWb85bZVgIUI9VUccrQwX6botBBtxhQjVWDkmSkaMcX5e5M7NPUTp6Ww0T1CTdmlV2yZX6w8sRCdAQXpbmttKK1OL5KSAhQpS4J3PFDr6/QsChFqVWwJ0VmoAPNA8t6JlBSvyR3BL5ZC7mg0TepS6Q9x/dTnmNOEyPO+WAjRXlhoZPKX0rsu85f5P7GqbQ9a86xhUntrE1P3Cm4J8fTAX/ZqyaaJTcEIkextpaQ8Sk1nD7p68Hd8cCb3y4QQnYH1+5jYuLPJ8EshJUUPsC0PbPIbRKm5IyhfLER3wE/GGk4aZ/5oMokQb1krN7VxMnwhHn3pPn+rs4cQXcLcWQSZqq/q+NHXTB6JYG9JK/t2Gdjl0sZCdB+EeINWxl/+Sa1MpDotVfovSRsLURA2aOXMV0Yr/+hyRyJjd1iFQcMwaWMhikHQyrXG2Y9MRlm8hOWcO1DVLJ9aJm9sR0WqhSgIdOV0mcRSbrbW5f+5Sx09yBUPvXCRlRgu/cobC1EY3EoeGEmrjQVqr/GTaUTwyGDJlAe5KNpWswAhioVXe+0pmSCf/cRklfJp1kFsGpjVHtamkbYdFeQSomDQSgtBNoG+v6Fsc5N5TY+gtLJ34lfuVJeT3A8SQnQXN68HR9lXCleYmNam6DUJ5nWvq+4fbr4w50OEEN2Fhn0o2qz+GneYHR9bgwdueMK5qbpzP0QI0V3oBWCymlbqc1/YEQW8yU9GRS/RMNuO6v4hRFGZWgh+clquDlKyiWD7Vq38Y7b33g9YZcG649wPEEIUApY30hsg26UCQfZN1NlzJq2OvvJrUk68KO/NQohigBAT9Mp2qGgtbSTq1Qx01YbUBUSIghPKNbOAF6WaHD2xvOaFIOXEX5T3ZiFEMQgN7ZPG/J/syPoI7+dF+Pq6CTL/8RflvVkIUQyq9TkX5Hhilog1ZZoeuUaAV72PLlKuVrdCFJrWAoqxY8E/dkF2GzvLS3krzrw3CyGKA7LK9jJ29BiX4dK8nEyc/NqOyiELsQtAVrOWuayE4tgU5ExNS5CF2AUQmM4E2ddJGC7Il0LpV96bhBDFQoIsRA8gQRaiB5AgC9EDSJCF6AEkyEL0ABJkIXoACbIQPcDjBPlBd5DJ07lvFEIUh9AlxGS2Jch3jOV4YvYbHlBllxDFB1nNBNk3ljB80cRK9dDclzygftZCFB9k1QSZjRZZNEFPehfk1eTw3N/sqGWMQhQcb1SPIDfXRyDIuMe+s9tqbXoRgVZjASEKDu5vU1ZdkFuNBbxViL1glQ6adNJ8+I1CiOKA+2symyb1E7ftSL8ujn1XjG99T2TabGrzNiEKTTz6cnMzt+lzKOHWbhMe9apNnnqfDpra3FyIYlPeX09L8UBK51uTXbJOKOO+Ewiyb+DGvsiVWu6bhRDFwPdnGxgJG7lhZtMlxLdUTfui6H3fDR2V3TiT+wFCiO5DVRebuUUDoxcyQUYZ+0A9Xw2dNOODM7kfIIToLg9FrEMOGWXsg8jXmr1wGdtbAS8hiolXc5nVXGuc/chkliCXN6cPw21tNoXy/Z9wpHM+RAjRXfCP2fcpaSyGQhDf9ymM/cYDP9n+1uIJIQrG1ILvlop/XB4cP+8yu8E/DmPNuBY2O9ceUEIUi7DnU+XQz4hphZ0YHxnkotbJJ0eDozKvhSgYpJwo2qJ4y2SVai4KQh4ZvuF5X6n0m8rY8e/4WyuhhCgIZla7pTxyJC3vHTvtstpci5w7iIDd8i1WKzVFr4UoCKEsM1ulyEKJXLM6DN9HJh564SI+sheHKOglRNfB1fXy6WY1l9d9ILCPGySWkfSrBL3YFV1aWYjuQoGWyWRaGZ/9px1DWeYj0eqHB3mpe8nwSxfQyggz9nneFwghOs8DbbxIpJrsEiuefnIErbxiWvnTkLfK+wIhRGcJ2jgen/2OOg/+Nn5SG4eBVv6WSq+Wr1yfy/0iIUSHoACknHjaKavk2rI2DqPlK5tz/bGr9tpQ/pcJIToC645RovHkqb+bLGJWs0BixtjW4A6QRsnwhdDzWquihHg6eDsf8sbPN/5HvMrkz91dY0eDhny36USAesdfVt9rIToL/QCo4/AqrulF0kxUcCHIreWK2x041ajzy9XG2U8wsfkCNR4QonMQoSZbVKnPfdEXRW+Y/BHgIu30RIO6zjSKau/RxJ4vkL8sRGcIfjFl0tkKp3WDltVtGXzQOq1FKuPH7/JFKhQRor14GaYpzcrw9P1k4tXX7W8quFgcsWOT+uHBB/GBX5GSyraqUA9sIdpECG6hIKuNBUqlWfeAXzxltHWwOoqOBLdqk6c/DCaAtpgR4slgPYPni81lzYJbRKeJTZ01OjJC8OsaXxicci13FGJnEDj2ILIJcvXw/J9NtnzhUnbs6AhF20tEsrmLoJmx7/N+qBAiHxQgAgxEqKNkAL8YRbnjfPF2h0eyjUtsW4Fdz/8VABNia4T1xTTSQxOXq4OvmQwRod7UFfNpDO4aCPBVVmXEI0e8uT3mtvLMQjweFiEhO2zRlPnEmNFoYoS4bRHq7YzWD/AFFuPH7+Ize9GIFlkIsQkUHIoOhecppuZCiJZCNLo6CIARJr9Dnjmun/rcnfdSWXstC5GBYgtyQbFHlidmJROKEIEuxCA1RZ55PYr636a7CLXZ9v+UjpxqFySeWaYWWtVaCDJBraxiiyWJKMCOpZh2OrDtqQBDgJdo2RkfnPnBTW2084EX809UiB4Fi9Sj0mjhoUbTH27WThPUQpDbXuzRzkFTAoT5ZnnwwHm0c7gjcVISaNHrUCRFNBo5wDJlPXF1/ChRafxgHkfhdSWotd2BuYCp7Tmx2uH5d1hwgZntAs3KjuFpRbdFT4EGbglw/7C358n6bBEUxoyGwvjD2xmcBGYEJ7DELhYEwzzvbAJtjzXvWComEbsUijpII6GcfD4jwBOz37gAN81o1vTzHNqYPdZ27eDHcxJo55ZAUxWGme2VYXai+BEINQsx1LxAFBXmps9bsy5xFX3uVmruAxPIylJKVD/iA/M8kektN8vbDYPI9kaBXsGH9mIS09KY2qHc057zi8TdjeQ5GjuZmM29sEJ0CuYc7a2Yg8zFILhA9w6EN5k4+bW9drk8XGcbFyoeWXrIa/CDe0qAHx4INElwVlJxwpz4Ejlo7mZ2Ua77omoungk2IfvsdY9CSN98EiHaQTCPH8bb7tjzzMnK6Mz3BHBpf5UFsNDAVGTxWhQUbXkKHY3uxOCOFfoRhQvBnexytG/yQn/j/Jvc7YzVZOLVT5OxYz8QEcS04aIK0W5w7ZhjTY59hmJhDrJGOBNczGYsy2A6A3P2iVvx9MpAqEldcXfD/A4XiQvGY2xcBUQA2YVOiE7xphHmG0JKwGrjnCQjg1XJ63ZFGqmbgxQWQvu4iylEp9moRDChEfICjr6+/wN2S3IBcQe8WwAAAABJRU5ErkJggg==;" parent="1" vertex="1">
          <mxGeometry x="450" y="790" width="139.62" height="60" as="geometry" />
        </mxCell>
        <mxCell id="LNoz9r7LhRh53aWZ0VOm-35" value="" style="shape=image;verticalLabelPosition=bottom;labelBackgroundColor=default;verticalAlign=top;aspect=fixed;imageAspect=0;image=data:image/png,iVBORw0KGgoAAAANSUhEUgAAAPIAAABoCAYAAADLla2BAAAAAXNSR0IArs4c6QAAAARnQU1BAACxjwv8YQUAAAAJcEhZcwAAFxEAABcRAcom8z8AAA5pSURBVHhe7Z1PaBznGYflnd2ZXUmxrUiWJXmtlWKSyLGj2rJcW7IDBYcQnBBKQmh6aDGFgi8BHXrwUTcdffRRkIshF0MpmEDBlFJMSEFQElxoIIcm5NCAoA6YuIfp+7w731qyx4kk73pH698Hj0fe/zN877x/v/frK/ioGr8wPjCWM24at4ToMCsG8425xxxkLmpscZwwlgyE9Z6RbmDNCBd51QiCLUQ7uWaEeXbb2DgHmZPMzSvGWUNjw3jTuG6sG1wsjjeMK31R9Ebl+SO/TRqLl2rT55ar04s3a9OLt5zJ+b+WR2e+SMaPp0I8KeWDR/+V1E/cbs0v59xyrbF4OT5w7N0oHnzX5iRKhrn6rREEm7l6yXgmNfaMgekSLgh3vqWof+QiF84u4PV4fPa7ePTltLz/cBr1D6el5LlwVxTiqbCnUktL1X0+BysjR9LK2NG71elzN2qNc0vxvvov7TWXDQSZ1yPUWIoopp4f+BrhxBHilei5Qxft7reSTJz8ujI87UK7p1RuXUwuJI9xMeMDLz5yJzWhF+KJSQ6d2DSv4rFXmkpkcNTnYN+eUnNO2jGqDaWVoUYaT8z+1967Go/MvGXPIdS4f7zujoGW7rmBAONzcJJrpVLyOzRvMjn/GXc67nw8hwAjtDxWrc/lXnAhukX18LwrE4R7Tzlpzlk7IvBJfe7f1ca5K1EyfMEex/zm+a8MzPFdb3ZjQhMc4KRu4mfYBVnmThYNjDwQXrsw0q5it4GyKe+vp3ui2Ocy7l88cuS+PbdaHhw/b49havMcGnpXmtzcgYgA4jesRfH+t8y3uJaMHfvBzRRO2o7c3WpTC7kXSYjdBKZ4SzmZlva53Vj4ONo3iYYOygy3cszYFYMUEncgos9LBAYq48fvBgHGv5D2Fb0K5nf5uTH3pdHULtDTiyt9UfSOzX9MbeSC3HShB5E8z7URAEgmf/4PP6lMAxNQyDt5IXqN6uTptLx34oH1eejEf2qTp963/1/lMYOsTSEHSXJ+4DUPz4++7P7vg7tS/gkL0cskE7Ot1Cn+NC6m/U1EO+SgCxMI44c0o3Sl0of8UH4w/0cbVxtnck9QiGcJ0lUhdUUxU5QMvG4ygplNymrK6OrAcaeYYz2K+t+uNc78hfQRP5gUUt4JCfGsgnbGQiXdWj0092UWCEOQqanoWsknQS2c9zsUdZBHK8UDbk4rmCVEPgTDgpxQKRYfnH3bZAgTG1P7qQfBEGK++FZt7OR7RKW50/AD+aF5JyCEyJhaaKaqguXaWKQqLATBnlpFGOY0mvgmixkIarntbya1/GEhtg4VYSZHHt3OgmCh9oJKyI4OAlv4xHfQxC7E2Q/J+6FCiB8nKMJmYPgcmR/MbIJgHQ2A+XJDnHTMaf8B++u5P1AIsTWoCjO5Slk0VDs8T+EIATCKqjqSmuJucY/oNIEtfGLM6bwfJoTYHp6eQphHZ77PotlEstHObR1UbHmemBQTQS1QnbQQ7YMAmGd9TFFmeWb85bZVgIUI9VUccrQwX6botBBtxhQjVWDkmSkaMcX5e5M7NPUTp6Ww0T1CTdmlV2yZX6w8sRCdAQXpbmttKK1OL5KSAhQpS4J3PFDr6/QsChFqVWwJ0VmoAPNA8t6JlBSvyR3BL5ZC7mg0TepS6Q9x/dTnmNOEyPO+WAjRXlhoZPKX0rsu85f5P7GqbQ9a86xhUntrE1P3Cm4J8fTAX/ZqyaaJTcEIkextpaQ8Sk1nD7p68Hd8cCb3y4QQnYH1+5jYuLPJ8EshJUUPsC0PbPIbRKm5IyhfLER3wE/GGk4aZ/5oMokQb1krN7VxMnwhHn3pPn+rs4cQXcLcWQSZqq/q+NHXTB6JYG9JK/t2Gdjl0sZCdB+EeINWxl/+Sa1MpDotVfovSRsLURA2aOXMV0Yr/+hyRyJjd1iFQcMwaWMhikHQyrXG2Y9MRlm8hOWcO1DVLJ9aJm9sR0WqhSgIdOV0mcRSbrbW5f+5Sx09yBUPvXCRlRgu/cobC1EY3EoeGEmrjQVqr/GTaUTwyGDJlAe5KNpWswAhioVXe+0pmSCf/cRklfJp1kFsGpjVHtamkbYdFeQSomDQSgtBNoG+v6Fsc5N5TY+gtLJ34lfuVJeT3A8SQnQXN68HR9lXCleYmNam6DUJ5nWvq+4fbr4w50OEEN2Fhn0o2qz+GneYHR9bgwdueMK5qbpzP0QI0V3oBWCymlbqc1/YEQW8yU9GRS/RMNuO6v4hRFGZWgh+clquDlKyiWD7Vq38Y7b33g9YZcG649wPEEIUApY30hsg26UCQfZN1NlzJq2OvvJrUk68KO/NQohigBAT9Mp2qGgtbSTq1Qx01YbUBUSIghPKNbOAF6WaHD2xvOaFIOXEX5T3ZiFEMQgN7ZPG/J/syPoI7+dF+Pq6CTL/8RflvVkIUQyq9TkX5Hhilog1ZZoeuUaAV72PLlKuVrdCFJrWAoqxY8E/dkF2GzvLS3krzrw3CyGKA7LK9jJ29BiX4dK8nEyc/NqOyiELsQtAVrOWuayE4tgU5ExNS5CF2AUQmM4E2ddJGC7Il0LpV96bhBDFQoIsRA8gQRaiB5AgC9EDSJCF6AEkyEL0ABJkIXoACbIQPcDjBPlBd5DJ07lvFEIUh9AlxGS2Jch3jOV4YvYbHlBllxDFB1nNBNk3ljB80cRK9dDclzygftZCFB9k1QSZjRZZNEFPehfk1eTw3N/sqGWMQhQcb1SPIDfXRyDIuMe+s9tqbXoRgVZjASEKDu5vU1ZdkFuNBbxViL1glQ6adNJ8+I1CiOKA+2symyb1E7ftSL8ujn1XjG99T2TabGrzNiEKTTz6cnMzt+lzKOHWbhMe9apNnnqfDpra3FyIYlPeX09L8UBK51uTXbJOKOO+Ewiyb+DGvsiVWu6bhRDFwPdnGxgJG7lhZtMlxLdUTfui6H3fDR2V3TiT+wFCiO5DVRebuUUDoxcyQUYZ+0A9Xw2dNOODM7kfIIToLg9FrEMOGWXsg8jXmr1wGdtbAS8hiolXc5nVXGuc/chkliCXN6cPw21tNoXy/Z9wpHM+RAjRXfCP2fcpaSyGQhDf9ymM/cYDP9n+1uIJIQrG1ILvlop/XB4cP+8yu8E/DmPNuBY2O9ceUEIUi7DnU+XQz4hphZ0YHxnkotbJJ0eDozKvhSgYpJwo2qJ4y2SVai4KQh4ZvuF5X6n0m8rY8e/4WyuhhCgIZla7pTxyJC3vHTvtstpci5w7iIDd8i1WKzVFr4UoCKEsM1ulyEKJXLM6DN9HJh564SI+sheHKOglRNfB1fXy6WY1l9d9ILCPGySWkfSrBL3YFV1aWYjuQoGWyWRaGZ/9px1DWeYj0eqHB3mpe8nwSxfQyggz9nneFwghOs8DbbxIpJrsEiuefnIErbxiWvnTkLfK+wIhRGcJ2jgen/2OOg/+Nn5SG4eBVv6WSq+Wr1yfy/0iIUSHoACknHjaKavk2rI2DqPlK5tz/bGr9tpQ/pcJIToC645RovHkqb+bLGJWs0BixtjW4A6QRsnwhdDzWquihHg6eDsf8sbPN/5HvMrkz91dY0eDhny36USAesdfVt9rIToL/QCo4/AqrulF0kxUcCHIreWK2x041ajzy9XG2U8wsfkCNR4QonMQoSZbVKnPfdEXRW+Y/BHgIu30RIO6zjSKau/RxJ4vkL8sRGcIfjFl0tkKp3WDltVtGXzQOq1FKuPH7/JFKhQRor14GaYpzcrw9P1k4tXX7W8quFgcsWOT+uHBB/GBX5GSyraqUA9sIdpECG6hIKuNBUqlWfeAXzxltHWwOoqOBLdqk6c/DCaAtpgR4slgPYPni81lzYJbRKeJTZ01OjJC8OsaXxicci13FGJnEDj2ILIJcvXw/J9NtnzhUnbs6AhF20tEsrmLoJmx7/N+qBAiHxQgAgxEqKNkAL8YRbnjfPF2h0eyjUtsW4Fdz/8VABNia4T1xTTSQxOXq4OvmQwRod7UFfNpDO4aCPBVVmXEI0e8uT3mtvLMQjweFiEhO2zRlPnEmNFoYoS4bRHq7YzWD/AFFuPH7+Ize9GIFlkIsQkUHIoOhecppuZCiJZCNLo6CIARJr9Dnjmun/rcnfdSWXstC5GBYgtyQbFHlidmJROKEIEuxCA1RZ55PYr636a7CLXZ9v+UjpxqFySeWaYWWtVaCDJBraxiiyWJKMCOpZh2OrDtqQBDgJdo2RkfnPnBTW2084EX809UiB4Fi9Sj0mjhoUbTH27WThPUQpDbXuzRzkFTAoT5ZnnwwHm0c7gjcVISaNHrUCRFNBo5wDJlPXF1/ChRafxgHkfhdSWotd2BuYCp7Tmx2uH5d1hwgZntAs3KjuFpRbdFT4EGbglw/7C358n6bBEUxoyGwvjD2xmcBGYEJ7DELhYEwzzvbAJtjzXvWComEbsUijpII6GcfD4jwBOz37gAN81o1vTzHNqYPdZ27eDHcxJo55ZAUxWGme2VYXai+BEINQsx1LxAFBXmps9bsy5xFX3uVmruAxPIylJKVD/iA/M8kektN8vbDYPI9kaBXsGH9mIS09KY2qHc057zi8TdjeQ5GjuZmM29sEJ0CuYc7a2Yg8zFILhA9w6EN5k4+bW9drk8XGcbFyoeWXrIa/CDe0qAHx4INElwVlJxwpz4Ejlo7mZ2Ua77omoungk2IfvsdY9CSN98EiHaQTCPH8bb7tjzzMnK6Mz3BHBpf5UFsNDAVGTxWhQUbXkKHY3uxOCOFfoRhQvBnexytG/yQn/j/Jvc7YzVZOLVT5OxYz8QEcS04aIK0W5w7ZhjTY59hmJhDrJGOBNczGYsy2A6A3P2iVvx9MpAqEldcXfD/A4XiQvGY2xcBUQA2YVOiE7xphHmG0JKwGrjnCQjg1XJ63ZFGqmbgxQWQvu4iylEp9moRDChEfICjr6+/wN2S3IBcQe8WwAAAABJRU5ErkJggg==;" parent="1" vertex="1">
          <mxGeometry x="450" y="880" width="139.62" height="60" as="geometry" />
        </mxCell>
        <mxCell id="LNoz9r7LhRh53aWZ0VOm-36" value="" style="shape=image;verticalLabelPosition=bottom;labelBackgroundColor=default;verticalAlign=top;aspect=fixed;imageAspect=0;image=data:image/png,iVBORw0KGgoAAAANSUhEUgAAADYAAAA2CAYAAACMRWrdAAAAAXNSR0IArs4c6QAAAARnQU1BAACxjwv8YQUAAAAJcEhZcwAAFxEAABcRAcom8z8AAAe8SURBVGhD1ZpLaJxVFMezdOlSbB5NaybzSMGNxYUVoSKlFhFL7aShTX3ExtjY6XzfZKYzqY0VWyup06ZJJ22nGXATcBMQIQhCFyJBFOqi0oVIQdGCDwoqiNmM53fuvdOmfmkeTSafF06YfI/7nf89557zP/fehtVo6148/HjTbn9/U6c3ZMS/cqc0dnpFvZ70U+t2e0+1dB97wL4avtbYmX6+sTNTEaVvivJVlaR3VcEk/SkHkmccQPdcY9L7W5+RwWjpPvSg7XLtWsvu7HpRaLIx6d+ySgIi1dZ3enuiUBlCOo5OVDoGJ67EM6WZmD/6Jb87ChOT7n40c26HWlf7EYA6IP4UlrSfqV9r2eU/ZNxJRrvTvyGW6Y0eGnlBlC7GMuM/RvqHq60vH1OxgP8jrS+9pfc39p6stntjvzEAmwrlXdJvUu5ba3rTD+/xH7WfXd2m7iQWUpcT63TkK73xzPgvbW+cqrbsK6jSzV3Z6sYD71a5hkTT56pRb7QmbQff1+uAatmXN+/szcn/J6qR9MifWLK5O7/TurIMXqayai5Kx4ykcTtvKJ4rdcWy498B4E7FULxjsLIkiWfHFagbGCyJFRP5Sgo3ZRDxjBW3XktnOiqArtP5hgPHtyeOXPz8kddPVZv2ZBRQ5M1ioMLLEQYGNwXghp53qrh2zD//tBtUgpRV6/4ak9gGh5nowZFnI97YH4DB3XApCQSBCt6vtB8+a9xUBi9y6IPZeKHcIwNbAjBTwKq3vCaAttmOJum4PVWc5UOMaCJfDlRoRUUGDfdGB1yV4AQo1Ummg1Vzac26n5g+U2EyYx065EOrZaX5JNJ/Wi2Ha8Zz5Y+JwuhCBLXqLq4RKDSMi/vFs+V+B4oPBH24HsLcw/1bXxmS/yeKpBvyHizHqn3vBr0REEJ7/BvkJnW/NQblJOqPqeVIE6QZ8hwRE6Jg1Z+/NSYzJ3FBoh85xXQk7hfwobWQ9tQZM+cODs/CWkTX63iWVT+4KaMwvC2VyI5fI/qRU+o9pxYSTTUCrj018nvjvvxmft8zDajfimmhNpgbYHWJfssQBnx996D81kg5BUuxMOY2sjrIm5N+fyx74QfNH8L5gjoNg8QGStZqxdnm197e6jzNwrndHGpozIZXj6u1wuaCd4vTM5a/fNF5m4VjGpEQxM3JgR44mo6EZP6gzsIkidwlw0zEsyJ97z2B3nPKHUGaBFh79vxOJiZUJqijMAokHCbUUajk8DgsZ2GpG06SExKDEyVAAS6okzAKnoWlpEL4Qksqyb8KyrihkFwpD+KZ87/yEIkwqJNQisQBdUepMJr2H92C/tDBGtGFZUA0NWgEdRBigWYRSDYNVqR2gwqmc7hhin8guqZUDw/LWKw4ksxUMjQrU1EKJRabcfNLa6yAl8MsLD3oPMuNf2JWwbxpiYjyQ3JYojAxxc2VrIbrJS5ZxzJj3xBAlIXIBZh8SdB+zU3QB70cZtF8hlEOn71JraaJ2rBjb0gi4U+KWtAHvRx2UWDibZBhfosrmijSnh5VxsGKUdCLYRcHDOahwOSPrqXHBsa/5cJyls/WWqhAFFjq7F+6XCcsyrAOEaH/09ykkAt6OcyClykwf1S9T9kH1sJqLDGTnMNcqswneBnAoFUOj7iiQUiCpnD7P/FEJ265AOM4D7TM3r+VKJT31phywMthFtiSVtMwfCEbWE3XOUDb1JV7rj018g+/yQtBHYRVlDEJz430ndGaDP6rDN+g9Esd+UufmsJt7ZfaFiu1JYL0uZ9dRKztkJp55t2EHbPaqitTAZ2EUVxFIlz3JNRQ55drujMpqOWBHToRxWr/CwYitRigWFFL5MrP6IKOWM3CMg3iaPNZkYlIfRPYWYiE1KTlSnb8muieMm541wah41gsZbll7TBX0rANZ61N2fKTTCWNhkHNWm0Kf729IBnc8VqLW9ClBqtZSyK8hTK3uWWC5r2ZXW4ZLoyFpzINjd7DQnzP6GIpBbOFEdywGJZjmVt9GJcMUY0Wz17U7SRiAGyJNIUbLngIhggJE9FAIpmcrE5HoShnJAoyPZC5G4CL3Jc2+84cJknnEkfKHzHfyO6MVuAH6yECitUo5pWWWF05E95FR6v24pobDeYbywaMEpZbi3qNAa19Xyp9lrOdV1l1l9YInzoqMjqYHr+uN+Ui5QAIYFhKQWnV788sOK/ma7zIqGA5QippgDDL/7rRvYquSZ6CLjGQDKiGdXU/LOVdXZGTOoAyk9QvUd7onpT4Oh9VOrPCm4NEY/rHUqQboh9TQ71HBnrZlgpqRB4dLalOW3tOPBYfvPyhKiAfRyhQ74epEHXpjyBVG7Dchc/aMiNbmBLqNcs927FQY9dTwLGZzRmLIsmRj7utJ64rzZGClV0QAk2Qu2Jh7iEAuPtwGXMJUounMJgqSz3TsZymbgE3Uwt6Q/GBS5shz9GBse9xHXcWajECKMCxUc4ye7xQ2WYOhvk3HKNYtZNvQU0DC/tRxj1FSW8awJG+4a1s9wpQPXzJ6izMhUCAYElAiLW+4hkCknW3JPPH9adH+ebjfvVo5hSPl0SRGkhbAgHcgt9G0ndCUtXr5tBX7QitvAOd611TQPM1w1p0B8cdbL59RtiKYQzuvnK95IpGuoaGhn8BDSxpvN7y7VIAAAAASUVORK5CYII=;" parent="1" vertex="1">
          <mxGeometry x="102.81" y="450" width="54" height="54" as="geometry" />
        </mxCell>
        <mxCell id="LNoz9r7LhRh53aWZ0VOm-37" value="" style="shape=image;verticalLabelPosition=bottom;labelBackgroundColor=default;verticalAlign=top;aspect=fixed;imageAspect=0;image=data:image/png,iVBORw0KGgoAAAANSUhEUgAAAPIAAABoCAYAAADLla2BAAAAAXNSR0IArs4c6QAAAARnQU1BAACxjwv8YQUAAAAJcEhZcwAAFxEAABcRAcom8z8AAA5pSURBVHhe7Z1PaBznGYflnd2ZXUmxrUiWJXmtlWKSyLGj2rJcW7IDBYcQnBBKQmh6aDGFgi8BHXrwUTcdffRRkIshF0MpmEDBlFJMSEFQElxoIIcm5NCAoA6YuIfp+7w731qyx4kk73pH698Hj0fe/zN877x/v/frK/ioGr8wPjCWM24at4ToMCsG8425xxxkLmpscZwwlgyE9Z6RbmDNCBd51QiCLUQ7uWaEeXbb2DgHmZPMzSvGWUNjw3jTuG6sG1wsjjeMK31R9Ebl+SO/TRqLl2rT55ar04s3a9OLt5zJ+b+WR2e+SMaPp0I8KeWDR/+V1E/cbs0v59xyrbF4OT5w7N0oHnzX5iRKhrn6rREEm7l6yXgmNfaMgekSLgh3vqWof+QiF84u4PV4fPa7ePTltLz/cBr1D6el5LlwVxTiqbCnUktL1X0+BysjR9LK2NG71elzN2qNc0vxvvov7TWXDQSZ1yPUWIoopp4f+BrhxBHilei5Qxft7reSTJz8ujI87UK7p1RuXUwuJI9xMeMDLz5yJzWhF+KJSQ6d2DSv4rFXmkpkcNTnYN+eUnNO2jGqDaWVoUYaT8z+1967Go/MvGXPIdS4f7zujoGW7rmBAONzcJJrpVLyOzRvMjn/GXc67nw8hwAjtDxWrc/lXnAhukX18LwrE4R7Tzlpzlk7IvBJfe7f1ca5K1EyfMEex/zm+a8MzPFdb3ZjQhMc4KRu4mfYBVnmThYNjDwQXrsw0q5it4GyKe+vp3ui2Ocy7l88cuS+PbdaHhw/b49havMcGnpXmtzcgYgA4jesRfH+t8y3uJaMHfvBzRRO2o7c3WpTC7kXSYjdBKZ4SzmZlva53Vj4ONo3iYYOygy3cszYFYMUEncgos9LBAYq48fvBgHGv5D2Fb0K5nf5uTH3pdHULtDTiyt9UfSOzX9MbeSC3HShB5E8z7URAEgmf/4PP6lMAxNQyDt5IXqN6uTptLx34oH1eejEf2qTp963/1/lMYOsTSEHSXJ+4DUPz4++7P7vg7tS/gkL0cskE7Ot1Cn+NC6m/U1EO+SgCxMI44c0o3Sl0of8UH4w/0cbVxtnck9QiGcJ0lUhdUUxU5QMvG4ygplNymrK6OrAcaeYYz2K+t+uNc78hfQRP5gUUt4JCfGsgnbGQiXdWj0092UWCEOQqanoWsknQS2c9zsUdZBHK8UDbk4rmCVEPgTDgpxQKRYfnH3bZAgTG1P7qQfBEGK++FZt7OR7RKW50/AD+aF5JyCEyJhaaKaqguXaWKQqLATBnlpFGOY0mvgmixkIarntbya1/GEhtg4VYSZHHt3OgmCh9oJKyI4OAlv4xHfQxC7E2Q/J+6FCiB8nKMJmYPgcmR/MbIJgHQ2A+XJDnHTMaf8B++u5P1AIsTWoCjO5Slk0VDs8T+EIATCKqjqSmuJucY/oNIEtfGLM6bwfJoTYHp6eQphHZ77PotlEstHObR1UbHmemBQTQS1QnbQQ7YMAmGd9TFFmeWb85bZVgIUI9VUccrQwX6botBBtxhQjVWDkmSkaMcX5e5M7NPUTp6Ww0T1CTdmlV2yZX6w8sRCdAQXpbmttKK1OL5KSAhQpS4J3PFDr6/QsChFqVWwJ0VmoAPNA8t6JlBSvyR3BL5ZC7mg0TepS6Q9x/dTnmNOEyPO+WAjRXlhoZPKX0rsu85f5P7GqbQ9a86xhUntrE1P3Cm4J8fTAX/ZqyaaJTcEIkextpaQ8Sk1nD7p68Hd8cCb3y4QQnYH1+5jYuLPJ8EshJUUPsC0PbPIbRKm5IyhfLER3wE/GGk4aZ/5oMokQb1krN7VxMnwhHn3pPn+rs4cQXcLcWQSZqq/q+NHXTB6JYG9JK/t2Gdjl0sZCdB+EeINWxl/+Sa1MpDotVfovSRsLURA2aOXMV0Yr/+hyRyJjd1iFQcMwaWMhikHQyrXG2Y9MRlm8hOWcO1DVLJ9aJm9sR0WqhSgIdOV0mcRSbrbW5f+5Sx09yBUPvXCRlRgu/cobC1EY3EoeGEmrjQVqr/GTaUTwyGDJlAe5KNpWswAhioVXe+0pmSCf/cRklfJp1kFsGpjVHtamkbYdFeQSomDQSgtBNoG+v6Fsc5N5TY+gtLJ34lfuVJeT3A8SQnQXN68HR9lXCleYmNam6DUJ5nWvq+4fbr4w50OEEN2Fhn0o2qz+GneYHR9bgwdueMK5qbpzP0QI0V3oBWCymlbqc1/YEQW8yU9GRS/RMNuO6v4hRFGZWgh+clquDlKyiWD7Vq38Y7b33g9YZcG649wPEEIUApY30hsg26UCQfZN1NlzJq2OvvJrUk68KO/NQohigBAT9Mp2qGgtbSTq1Qx01YbUBUSIghPKNbOAF6WaHD2xvOaFIOXEX5T3ZiFEMQgN7ZPG/J/syPoI7+dF+Pq6CTL/8RflvVkIUQyq9TkX5Hhilog1ZZoeuUaAV72PLlKuVrdCFJrWAoqxY8E/dkF2GzvLS3krzrw3CyGKA7LK9jJ29BiX4dK8nEyc/NqOyiELsQtAVrOWuayE4tgU5ExNS5CF2AUQmM4E2ddJGC7Il0LpV96bhBDFQoIsRA8gQRaiB5AgC9EDSJCF6AEkyEL0ABJkIXoACbIQPcDjBPlBd5DJ07lvFEIUh9AlxGS2Jch3jOV4YvYbHlBllxDFB1nNBNk3ljB80cRK9dDclzygftZCFB9k1QSZjRZZNEFPehfk1eTw3N/sqGWMQhQcb1SPIDfXRyDIuMe+s9tqbXoRgVZjASEKDu5vU1ZdkFuNBbxViL1glQ6adNJ8+I1CiOKA+2symyb1E7ftSL8ujn1XjG99T2TabGrzNiEKTTz6cnMzt+lzKOHWbhMe9apNnnqfDpra3FyIYlPeX09L8UBK51uTXbJOKOO+Ewiyb+DGvsiVWu6bhRDFwPdnGxgJG7lhZtMlxLdUTfui6H3fDR2V3TiT+wFCiO5DVRebuUUDoxcyQUYZ+0A9Xw2dNOODM7kfIIToLg9FrEMOGWXsg8jXmr1wGdtbAS8hiolXc5nVXGuc/chkliCXN6cPw21tNoXy/Z9wpHM+RAjRXfCP2fcpaSyGQhDf9ymM/cYDP9n+1uIJIQrG1ILvlop/XB4cP+8yu8E/DmPNuBY2O9ceUEIUi7DnU+XQz4hphZ0YHxnkotbJJ0eDozKvhSgYpJwo2qJ4y2SVai4KQh4ZvuF5X6n0m8rY8e/4WyuhhCgIZla7pTxyJC3vHTvtstpci5w7iIDd8i1WKzVFr4UoCKEsM1ulyEKJXLM6DN9HJh564SI+sheHKOglRNfB1fXy6WY1l9d9ILCPGySWkfSrBL3YFV1aWYjuQoGWyWRaGZ/9px1DWeYj0eqHB3mpe8nwSxfQyggz9nneFwghOs8DbbxIpJrsEiuefnIErbxiWvnTkLfK+wIhRGcJ2jgen/2OOg/+Nn5SG4eBVv6WSq+Wr1yfy/0iIUSHoACknHjaKavk2rI2DqPlK5tz/bGr9tpQ/pcJIToC645RovHkqb+bLGJWs0BixtjW4A6QRsnwhdDzWquihHg6eDsf8sbPN/5HvMrkz91dY0eDhny36USAesdfVt9rIToL/QCo4/AqrulF0kxUcCHIreWK2x041ajzy9XG2U8wsfkCNR4QonMQoSZbVKnPfdEXRW+Y/BHgIu30RIO6zjSKau/RxJ4vkL8sRGcIfjFl0tkKp3WDltVtGXzQOq1FKuPH7/JFKhQRor14GaYpzcrw9P1k4tXX7W8quFgcsWOT+uHBB/GBX5GSyraqUA9sIdpECG6hIKuNBUqlWfeAXzxltHWwOoqOBLdqk6c/DCaAtpgR4slgPYPni81lzYJbRKeJTZ01OjJC8OsaXxicci13FGJnEDj2ILIJcvXw/J9NtnzhUnbs6AhF20tEsrmLoJmx7/N+qBAiHxQgAgxEqKNkAL8YRbnjfPF2h0eyjUtsW4Fdz/8VABNia4T1xTTSQxOXq4OvmQwRod7UFfNpDO4aCPBVVmXEI0e8uT3mtvLMQjweFiEhO2zRlPnEmNFoYoS4bRHq7YzWD/AFFuPH7+Ize9GIFlkIsQkUHIoOhecppuZCiJZCNLo6CIARJr9Dnjmun/rcnfdSWXstC5GBYgtyQbFHlidmJROKEIEuxCA1RZ55PYr636a7CLXZ9v+UjpxqFySeWaYWWtVaCDJBraxiiyWJKMCOpZh2OrDtqQBDgJdo2RkfnPnBTW2084EX809UiB4Fi9Sj0mjhoUbTH27WThPUQpDbXuzRzkFTAoT5ZnnwwHm0c7gjcVISaNHrUCRFNBo5wDJlPXF1/ChRafxgHkfhdSWotd2BuYCp7Tmx2uH5d1hwgZntAs3KjuFpRbdFT4EGbglw/7C358n6bBEUxoyGwvjD2xmcBGYEJ7DELhYEwzzvbAJtjzXvWComEbsUijpII6GcfD4jwBOz37gAN81o1vTzHNqYPdZ27eDHcxJo55ZAUxWGme2VYXai+BEINQsx1LxAFBXmps9bsy5xFX3uVmruAxPIylJKVD/iA/M8kektN8vbDYPI9kaBXsGH9mIS09KY2qHc057zi8TdjeQ5GjuZmM29sEJ0CuYc7a2Yg8zFILhA9w6EN5k4+bW9drk8XGcbFyoeWXrIa/CDe0qAHx4INElwVlJxwpz4Ejlo7mZ2Ua77omoungk2IfvsdY9CSN98EiHaQTCPH8bb7tjzzMnK6Mz3BHBpf5UFsNDAVGTxWhQUbXkKHY3uxOCOFfoRhQvBnexytG/yQn/j/Jvc7YzVZOLVT5OxYz8QEcS04aIK0W5w7ZhjTY59hmJhDrJGOBNczGYsy2A6A3P2iVvx9MpAqEldcXfD/A4XiQvGY2xcBUQA2YVOiE7xphHmG0JKwGrjnCQjg1XJ63ZFGqmbgxQWQvu4iylEp9moRDChEfICjr6+/wN2S3IBcQe8WwAAAABJRU5ErkJggg==;spacingTop=1;spacing=3;spacingBottom=2;" parent="1" vertex="1">
          <mxGeometry x="60" y="530" width="139.62" height="60" as="geometry" />
        </mxCell>
        <mxCell id="LNoz9r7LhRh53aWZ0VOm-38" value="&lt;hr&gt;" style="shape=image;verticalLabelPosition=bottom;labelBackgroundColor=default;verticalAlign=top;aspect=fixed;imageAspect=0;image=data:image/png,iVBORw0KGgoAAAANSUhEUgAAAPIAAABoCAYAAADLla2BAAAAAXNSR0IArs4c6QAAAARnQU1BAACxjwv8YQUAAAAJcEhZcwAAFxEAABcRAcom8z8AAA5pSURBVHhe7Z1PaBznGYflnd2ZXUmxrUiWJXmtlWKSyLGj2rJcW7IDBYcQnBBKQmh6aDGFgi8BHXrwUTcdffRRkIshF0MpmEDBlFJMSEFQElxoIIcm5NCAoA6YuIfp+7w731qyx4kk73pH698Hj0fe/zN877x/v/frK/ioGr8wPjCWM24at4ToMCsG8425xxxkLmpscZwwlgyE9Z6RbmDNCBd51QiCLUQ7uWaEeXbb2DgHmZPMzSvGWUNjw3jTuG6sG1wsjjeMK31R9Ebl+SO/TRqLl2rT55ar04s3a9OLt5zJ+b+WR2e+SMaPp0I8KeWDR/+V1E/cbs0v59xyrbF4OT5w7N0oHnzX5iRKhrn6rREEm7l6yXgmNfaMgekSLgh3vqWof+QiF84u4PV4fPa7ePTltLz/cBr1D6el5LlwVxTiqbCnUktL1X0+BysjR9LK2NG71elzN2qNc0vxvvov7TWXDQSZ1yPUWIoopp4f+BrhxBHilei5Qxft7reSTJz8ujI87UK7p1RuXUwuJI9xMeMDLz5yJzWhF+KJSQ6d2DSv4rFXmkpkcNTnYN+eUnNO2jGqDaWVoUYaT8z+1967Go/MvGXPIdS4f7zujoGW7rmBAONzcJJrpVLyOzRvMjn/GXc67nw8hwAjtDxWrc/lXnAhukX18LwrE4R7Tzlpzlk7IvBJfe7f1ca5K1EyfMEex/zm+a8MzPFdb3ZjQhMc4KRu4mfYBVnmThYNjDwQXrsw0q5it4GyKe+vp3ui2Ocy7l88cuS+PbdaHhw/b49havMcGnpXmtzcgYgA4jesRfH+t8y3uJaMHfvBzRRO2o7c3WpTC7kXSYjdBKZ4SzmZlva53Vj4ONo3iYYOygy3cszYFYMUEncgos9LBAYq48fvBgHGv5D2Fb0K5nf5uTH3pdHULtDTiyt9UfSOzX9MbeSC3HShB5E8z7URAEgmf/4PP6lMAxNQyDt5IXqN6uTptLx34oH1eejEf2qTp963/1/lMYOsTSEHSXJ+4DUPz4++7P7vg7tS/gkL0cskE7Ot1Cn+NC6m/U1EO+SgCxMI44c0o3Sl0of8UH4w/0cbVxtnck9QiGcJ0lUhdUUxU5QMvG4ygplNymrK6OrAcaeYYz2K+t+uNc78hfQRP5gUUt4JCfGsgnbGQiXdWj0092UWCEOQqanoWsknQS2c9zsUdZBHK8UDbk4rmCVEPgTDgpxQKRYfnH3bZAgTG1P7qQfBEGK++FZt7OR7RKW50/AD+aF5JyCEyJhaaKaqguXaWKQqLATBnlpFGOY0mvgmixkIarntbya1/GEhtg4VYSZHHt3OgmCh9oJKyI4OAlv4xHfQxC7E2Q/J+6FCiB8nKMJmYPgcmR/MbIJgHQ2A+XJDnHTMaf8B++u5P1AIsTWoCjO5Slk0VDs8T+EIATCKqjqSmuJucY/oNIEtfGLM6bwfJoTYHp6eQphHZ77PotlEstHObR1UbHmemBQTQS1QnbQQ7YMAmGd9TFFmeWb85bZVgIUI9VUccrQwX6botBBtxhQjVWDkmSkaMcX5e5M7NPUTp6Ww0T1CTdmlV2yZX6w8sRCdAQXpbmttKK1OL5KSAhQpS4J3PFDr6/QsChFqVWwJ0VmoAPNA8t6JlBSvyR3BL5ZC7mg0TepS6Q9x/dTnmNOEyPO+WAjRXlhoZPKX0rsu85f5P7GqbQ9a86xhUntrE1P3Cm4J8fTAX/ZqyaaJTcEIkextpaQ8Sk1nD7p68Hd8cCb3y4QQnYH1+5jYuLPJ8EshJUUPsC0PbPIbRKm5IyhfLER3wE/GGk4aZ/5oMokQb1krN7VxMnwhHn3pPn+rs4cQXcLcWQSZqq/q+NHXTB6JYG9JK/t2Gdjl0sZCdB+EeINWxl/+Sa1MpDotVfovSRsLURA2aOXMV0Yr/+hyRyJjd1iFQcMwaWMhikHQyrXG2Y9MRlm8hOWcO1DVLJ9aJm9sR0WqhSgIdOV0mcRSbrbW5f+5Sx09yBUPvXCRlRgu/cobC1EY3EoeGEmrjQVqr/GTaUTwyGDJlAe5KNpWswAhioVXe+0pmSCf/cRklfJp1kFsGpjVHtamkbYdFeQSomDQSgtBNoG+v6Fsc5N5TY+gtLJ34lfuVJeT3A8SQnQXN68HR9lXCleYmNam6DUJ5nWvq+4fbr4w50OEEN2Fhn0o2qz+GneYHR9bgwdueMK5qbpzP0QI0V3oBWCymlbqc1/YEQW8yU9GRS/RMNuO6v4hRFGZWgh+clquDlKyiWD7Vq38Y7b33g9YZcG649wPEEIUApY30hsg26UCQfZN1NlzJq2OvvJrUk68KO/NQohigBAT9Mp2qGgtbSTq1Qx01YbUBUSIghPKNbOAF6WaHD2xvOaFIOXEX5T3ZiFEMQgN7ZPG/J/syPoI7+dF+Pq6CTL/8RflvVkIUQyq9TkX5Hhilog1ZZoeuUaAV72PLlKuVrdCFJrWAoqxY8E/dkF2GzvLS3krzrw3CyGKA7LK9jJ29BiX4dK8nEyc/NqOyiELsQtAVrOWuayE4tgU5ExNS5CF2AUQmM4E2ddJGC7Il0LpV96bhBDFQoIsRA8gQRaiB5AgC9EDSJCF6AEkyEL0ABJkIXoACbIQPcDjBPlBd5DJ07lvFEIUh9AlxGS2Jch3jOV4YvYbHlBllxDFB1nNBNk3ljB80cRK9dDclzygftZCFB9k1QSZjRZZNEFPehfk1eTw3N/sqGWMQhQcb1SPIDfXRyDIuMe+s9tqbXoRgVZjASEKDu5vU1ZdkFuNBbxViL1glQ6adNJ8+I1CiOKA+2symyb1E7ftSL8ujn1XjG99T2TabGrzNiEKTTz6cnMzt+lzKOHWbhMe9apNnnqfDpra3FyIYlPeX09L8UBK51uTXbJOKOO+Ewiyb+DGvsiVWu6bhRDFwPdnGxgJG7lhZtMlxLdUTfui6H3fDR2V3TiT+wFCiO5DVRebuUUDoxcyQUYZ+0A9Xw2dNOODM7kfIIToLg9FrEMOGWXsg8jXmr1wGdtbAS8hiolXc5nVXGuc/chkliCXN6cPw21tNoXy/Z9wpHM+RAjRXfCP2fcpaSyGQhDf9ymM/cYDP9n+1uIJIQrG1ILvlop/XB4cP+8yu8E/DmPNuBY2O9ceUEIUi7DnU+XQz4hphZ0YHxnkotbJJ0eDozKvhSgYpJwo2qJ4y2SVai4KQh4ZvuF5X6n0m8rY8e/4WyuhhCgIZla7pTxyJC3vHTvtstpci5w7iIDd8i1WKzVFr4UoCKEsM1ulyEKJXLM6DN9HJh564SI+sheHKOglRNfB1fXy6WY1l9d9ILCPGySWkfSrBL3YFV1aWYjuQoGWyWRaGZ/9px1DWeYj0eqHB3mpe8nwSxfQyggz9nneFwghOs8DbbxIpJrsEiuefnIErbxiWvnTkLfK+wIhRGcJ2jgen/2OOg/+Nn5SG4eBVv6WSq+Wr1yfy/0iIUSHoACknHjaKavk2rI2DqPlK5tz/bGr9tpQ/pcJIToC645RovHkqb+bLGJWs0BixtjW4A6QRsnwhdDzWquihHg6eDsf8sbPN/5HvMrkz91dY0eDhny36USAesdfVt9rIToL/QCo4/AqrulF0kxUcCHIreWK2x041ajzy9XG2U8wsfkCNR4QonMQoSZbVKnPfdEXRW+Y/BHgIu30RIO6zjSKau/RxJ4vkL8sRGcIfjFl0tkKp3WDltVtGXzQOq1FKuPH7/JFKhQRor14GaYpzcrw9P1k4tXX7W8quFgcsWOT+uHBB/GBX5GSyraqUA9sIdpECG6hIKuNBUqlWfeAXzxltHWwOoqOBLdqk6c/DCaAtpgR4slgPYPni81lzYJbRKeJTZ01OjJC8OsaXxicci13FGJnEDj2ILIJcvXw/J9NtnzhUnbs6AhF20tEsrmLoJmx7/N+qBAiHxQgAgxEqKNkAL8YRbnjfPF2h0eyjUtsW4Fdz/8VABNia4T1xTTSQxOXq4OvmQwRod7UFfNpDO4aCPBVVmXEI0e8uT3mtvLMQjweFiEhO2zRlPnEmNFoYoS4bRHq7YzWD/AFFuPH7+Ize9GIFlkIsQkUHIoOhecppuZCiJZCNLo6CIARJr9Dnjmun/rcnfdSWXstC5GBYgtyQbFHlidmJROKEIEuxCA1RZ55PYr636a7CLXZ9v+UjpxqFySeWaYWWtVaCDJBraxiiyWJKMCOpZh2OrDtqQBDgJdo2RkfnPnBTW2084EX809UiB4Fi9Sj0mjhoUbTH27WThPUQpDbXuzRzkFTAoT5ZnnwwHm0c7gjcVISaNHrUCRFNBo5wDJlPXF1/ChRafxgHkfhdSWotd2BuYCp7Tmx2uH5d1hwgZntAs3KjuFpRbdFT4EGbglw/7C358n6bBEUxoyGwvjD2xmcBGYEJ7DELhYEwzzvbAJtjzXvWComEbsUijpII6GcfD4jwBOz37gAN81o1vTzHNqYPdZ27eDHcxJo55ZAUxWGme2VYXai+BEINQsx1LxAFBXmps9bsy5xFX3uVmruAxPIylJKVD/iA/M8kektN8vbDYPI9kaBXsGH9mIS09KY2qHc057zi8TdjeQ5GjuZmM29sEJ0CuYc7a2Yg8zFILhA9w6EN5k4+bW9drk8XGcbFyoeWXrIa/CDe0qAHx4INElwVlJxwpz4Ejlo7mZ2Ua77omoungk2IfvsdY9CSN98EiHaQTCPH8bb7tjzzMnK6Mz3BHBpf5UFsNDAVGTxWhQUbXkKHY3uxOCOFfoRhQvBnexytG/yQn/j/Jvc7YzVZOLVT5OxYz8QEcS04aIK0W5w7ZhjTY59hmJhDrJGOBNczGYsy2A6A3P2iVvx9MpAqEldcXfD/A4XiQvGY2xcBUQA2YVOiE7xphHmG0JKwGrjnCQjg1XJ63ZFGqmbgxQWQvu4iylEp9moRDChEfICjr6+/wN2S3IBcQe8WwAAAABJRU5ErkJggg==;align=center;horizontal=1;html=1;" parent="1" vertex="1">
          <mxGeometry x="60" y="620" width="139.62" height="60" as="geometry" />
        </mxCell>
        <mxCell id="LNoz9r7LhRh53aWZ0VOm-40" value="" style="shape=image;verticalLabelPosition=bottom;labelBackgroundColor=default;verticalAlign=top;aspect=fixed;imageAspect=0;image=data:image/png,iVBORw0KGgoAAAANSUhEUgAAAE8AAABPCAYAAACqNJiGAAAAAXNSR0IArs4c6QAAAARnQU1BAACxjwv8YQUAAAAJcEhZcwAAFxEAABcRAcom8z8AABGSSURBVHhe5Z1rcFXVFcf92I/92KmkUamKYFv7crBVy6jDUHV8jpJoEY06UIsI3ItRQklGhVQaDSKaFEhSgjSAURDByCtBCIRHCIG8IPKWl/LqkDBO7YfT/VvnrJubyw733OQmOdg9s+Tm3vNY67/Xe+9zvKq/x9WPTxw6IC08IiU9lDMgfXJJSnq4qityf+e4SQ9dPTI0zLvE/89IfSz8o5S00NiUtPAyA4ijZABsUZAAyEIV8ltaaJee41GNudaE1PRJg7xbfL8GgiGgCOoCdd78XTYgPZQ2ZVHFcw3ftKU1nW3LaTrXXtZ0tr0K+qS+ddv8ytpdpdX1O/W7xrPtyziu8Uz707kfrX1q8LNZjw1IDxeY65z0rttiPuf/+InwLd6tr9yRMjL8tKdRDgIi6K9eyHlSwDJALdna3PbqwpXOqLx/OvdNmxOtTV3S8CnvOCNzixzOK1y/9TsABcwHp8+/e0Da5Nzo+6GxqaNf+qHHzpUxjAAj1LzwUwjWdPrCWASdV7XDyXhnkfPzMTkCxm/GTRfgQiWfODOXVzllWxu7pPfWbBXQHn690Lltwt/k/IGjXhHwZ62qdjYfPrWj4UzbhInzyu8FODRcQDRa77EW3IG5GIHwWw4+7YU5ZXcDGIIhIILy27DJeQLCit37HWOO3abK1mMCOGDKPQ0xEW+Ur3O2HP1mU3ld0z2Y8YC00LdG6w8RaDxWgzMIAl6kNKCFdt02fsb9Rrh8zArN4nsERFAEjgUhGbT92BnRTCZpUMZUIUDcduLsisyiFbczmR7AVUR4j/X+HV6qYcwjfOimjKxRjacvvPLB5j1t+CaYRZjeAqwrAkjcAJrO5AGq+T7/9vDMewBPQDQR3xOhfwYMYBLM6pYj3zz2WcP+0zhzmMN8emqWPaXqQ6fEv8IProJJZXJT0icZwh+HC1JHZ//AE6fvBjeWGTSOmfQBE1EmF2yqtwrTX8QkajQf+/4Sp/bkuaWS5pAymfSpzyIyNzI3rELjSDvwKZgmjGWXVViZDwoR6fGFuJQNrV81EtDcQBI+1Ou5ITfQm416a8G9MAAjMBQ0beuKVjcfljQHX7hs174zRGRVBlIsT9TkDjQO0FDzj2ub719W9+UFGIARGLIxGlQioGDGBJTZqzd/Rw5KtgCASY/EOFWZHQMewKH+3BgGYMTG4JVA4+eWi7sh5yS5JvCRVKeOzLzGE73nw4BWwKzgI9A4gCOK2RjqLpXXtkiVgCAQExNNCMr3BCaqjV1f/9t6nUSJewIgOej61uPDjem2kKsmJQqTjnBxgsMX+098iamS8NoYSZRiSzWIaA1YWr9CHKMg6nFMIMcgfE+1n0DH9UhlSKglCqeFyzwIujfomUkeZ/IioirBAR/XE2ZJmLUKAAQAQZtKa5qdnJXbhcaVVTmPF650HpxV7jzw9lL5PGbhusjvpdv3CmjRJR9AopG2e/oh5WlNy9H9VEgqtwdFYgO792ZgWdPZi7l68e4GBxJW9TFoL2ZSvLnJyfy42rlz+gfODS/mOddmZAupdsXStc9Mk98Hjs11bp1WLCDPN6BTQahWYhXdSc5xA2g9ylF98MQ6IzctNJNId6MeBjRsf/PBr0eh1lyou+kIpgfwmCdaNqtytzM0Z4Fz/V/edFKfypJr/+TJTGfgmOnyHTRo0rvOoNCcCF0/bqZ8D3CpT01xzzFaN3DsDOeWV/8hGjm3cqcAwG+YeqIWglXAo+uW2qSzLQEkEf/ndUccsnByIT4jtO2GlyNNCQAOAAs37XHuerNMQIoWHnBunlqSEA3OLOwEPhqJNs5cu0tMGhDQ8ES1kMCFK3ht6er/5q2oMv5Pyk//LS3DTA1aB/r4EmbTdqPLUXQyumBLg/PonOXOT//8ppPyxGQB7Ybx+VZQukOAj0kD4nXPvy5uoGxna2TiCEw2Hrsi3Avg4+elpeVX+7BxmKCBWbyx7j98TtRccdwwTYAp3dri/DJrngCGaWJ+N2cVW0HoKd048R3XpM0EDZk025m9YbfUssiQiOXgn9E+3NWcz7aZEo4ueCjfg8g+JBmmAyxBoj0fjUPzYi9+OQJomCXAwPyQ0LsiDJoxZMp8q9BJJTMxuAJ4wKwJSADH37gOG8824lgArNx7tBKzxXzpW3pQXTr0oKmlqx6ikckNE/EZmCoah7PGgaNlXANhekvbuqIbXnxLJg0zHl30uUR3ePF6e3GJ6IvpYsK02+Jqn1v0h/KxdU5MpIogOODfMNW8tXUR4BDCJlxfEL4QV3HtszmigQCBNhEUbDLEEhrL8TRAItpna19phKUEY5Y4Cdu3XTSWmCWcM+CRu4mp9jNwSoPC74kGkuKQIpGGoBh+utvR2rdeSjcTeUeGn/Yg6xiy2mQ0j04rN0jE19HyxlyJquRcLrPGVC3C9AfdOGGWTObgl/KlOiELwEJsssQSvg8AG8+1FxALIA+yjkGgYN2TVSe0jlzJdrFY0siEio/IWypRlZyrr31cPJI0yQD4mylznY92tcpnPykMPp9j/1XTcMJdh8Z0o9IWSjEOuOfl/EdwqHz2m51rTkSZhGkAXp9E1W4Qk3rN6Kni/xLJX3FHWJfXOO1csokzNNGElXdSDPyX7SKxpLOSu6zS+cOMRWKu1Kg2xoNAN71cIPzikxdtM5PtWYxNtmhCQTB1igZzvmw48qCTikK+2Hni3Gp8l9+1CJ09SqLrnntNtC5o5hpLyuf4JRsiVmOTLZpI+gGdjosbdcPnBThvQccZnJH9wAdbdktF4TcSMXN5n26UmpLzyPBtDAeJhrwyL2Ih5XVfCt/xWlnIqkolC+jmHNniRs+eP4rX73wEu3bV036RaMI3Al7RliZxxpRFNmaDSDQmqHhmVNSK5aCBNhmjCXdGFoJrc1t1obHeTqbQtyyCYIYcZDs5lvRiEz/cKMABoI3RIBIWgsI8PPtjSUUICDYZowmtc4+7mGvOrZFqg/TE7aC056N1fvydqjHpzNDsEmGEZNTGaCDJ+GUx3fH5ztLavcJ/vCYvaQ3HuZ0W2aFaQaQtI/HjS370k/to8U81QfEtgcLGZICJko3g8f6mRtGoeEoDuMj8YW3zXtrzLBRFIu3nTYdl16afdQDCOzek+Hfb4sGpJvySNg5wO7ifeHU81gY+CzbWnxRXZ6oxAY/SbE3zka/40c8aBYGF8kb9nfToLAwGmWjzI++oeasEOAC0yRpNHC9FhAGPz1KWAZ6UH+YLP2kKNyO4PFOyRi6YzK5wX5EmzH/MWyxBw0+1oX7emOwIAQ/1A7yF1fVn/YJHBUKH9v58dzWMWbQxGGSSfM/wPnTafOn1+UmWcVWAR47XCTyxZZ/gEZWZrd+/5u6OYhZtDAad4B2r0UhqkzWaLgHP/KeTz/MDnkan3051Z4+VLBtzQSd4Bzwtv2yyRhPHAF6Hz5NoGy6oaD5cxxd+oi1mS1Y+/O+L5YLdWTrsb6LzA++/yCwQQKiWbLJGE8cXVdWec6Nt6KQBL1RBqiKr5OZHP3ke1QX0p/nuYjjNRhuDQSasBd7vfKM0qnqwywtVHzolx5vAetjtQplUhTLDfFlDpxSn6bdFg/ax3YEEOchtqK4IawEMSjSVxyarkhYGrKZhqShdpJfH/jRyHaKo7eRo0pkiSaa5eCXVtUramkcB1JJssiqhVKQq5rNRNqw1XOA+rWMusqLhwKMA56e3T6LIhShttENhYzDIRFXExNNZQeZ4nZUINrKL1GQoRuncpxANePdOmX2fOs54LXi1/6Iv6pybWZ0yn8mbbEwGlaQyMnV5eZ3bDY+3KwJLA+Av9h29k+MjrXiKXNIVnt3iBz8Lw8wCs/HE3FVec7H/lxn9klYXv8sujkRaalebnJA2BSgkjItL67R+q08LsuyI44xn/xB+jwCD6bIqLytmFkaDSNoJylpRI2VmPHmRFTdFUHXbUeEqAY6hGfNfF352tzrGy80ERDLNOSUb613na7Tviqg0sooFOFb6ynbuF61D+2wyKqFQ1PMbDp56wCiZ20WOHkRcnKBWGn6SZYppZo2lPJwv/TErwwEi0iommjVmFCWej1f/ziMHQzKyh/P5kt3yqo60mald40UfSGtClvF0i0WQO8pUFap1H9YfFLcTT071iTxypTmxB1nH0JSF5yzo13HheKYLoX34DfyHLirbGA8C6aI8PTzVOjTLJpcSuS8kCz9eE8WDrGOwhUA2shh7ZlcQF/ZTbWjmXbB+W2QJMojNUakoJCvIc8p2tApwKIlNJiVd1H9/bc35n2VkS4rS5YsgUEt8H/vRUGe/2qeL32y5EJ9ibhKkHt/gzLmy1QyfTFVEiuVHNtIxgoU+HUTj2IPq0iFPbIv2hSdU7j9W68cnQEReIjTBg4yd7B1mA9GqMtEVVwJFb3KM1wBRf86GdjYE8BnX5kFlH17Od569uH79AkR05lhyoucXrBH/RxbPrFuF6gsywLFKhp+jfVa6eU+ER5sM0aS+HF8nSxW2rWWxQ3yfMV1MWHeI+kmaIZ1V/B8temYbDeyPfh+Tpven483WCrUOG+/RpLshWGbUDe6+n8fFbDFf9mXo3mS/W1Exc27MLGMm+Jm+Lt9IlwAN8NA4gKM2xYfF83PkfOquZC+yPMjnQ+t0dN4VfzGXUM0F/ZgvzDG7AI7Zk8KQIvA3ZVxvmjF5HKUXk8WkkZIwiWgcZuhnzyGmCtBVrcc3qxJddhe8bWjexxsr2C3qd+aUAI7ziWzUvyTR+B4EA8xkb4AkynN9NI5Uiaiqe6uZTD98k7pwfHntvuOj8ork6UdigAdJYsMNHqFvaVet3HPgGDOYyA55IhbnEO6X7zngvLBovSukERCiidqTioRozvUITDopaYWfOuX1B8TsmDxW+Wy8xZIsZpvjKcMWVu++w02Iw1WdttAmOtyuaegk0VefCPKTPCuRaFLucR4CkaAioG5L43spmcZMl91LBBebaaOp/AYBUuwDf/g2Cn14Y8IgP601SJ83k6T59AUChDzVnrC5xg55t4D0+8I1OFDCPEzHax7Gki4sIxTasLzhiDQUhs1YKGamz475IYADQDZns+VjkQGNGhTXoiD43VNNjsp5+Dr8uxQKxtqS9raLqGdvy9iXi+nCpN+ZVcLvABwAAgKBCFAX79gnW3P1AWVW8alQcP4QGglQ9+UtlmMIQpgm98ef6fXgy09QU8IqAI5gsunIqZWUplynW8/YXm5oAGF7lblxPrPL334qkFhCKxAcYVVwBAAIwIXQbBJvJTSe7wlA+FCXl7BoDBOQCGgQ90cBOB/gqCLQuG4HiHijY2bCBbwDD+cKA2iQXzOxEeAwGYACYd4KjhL30d8BEOH9Rv5Y6jzxF3N1dyxtOU/U3hmoNDcyN6/iuYQl2xvPICxBwc/2tP4kJhhNYyKYeBQAHweQvaZxsSP6zT48l0sLC7PDBDGv7mpEbxJpE/6NiSaPIx1BAVyNC6V5ovXN8B5BMDcPn+dx+trj50vxScwqDOKHbEL0NeESmFi0Cx9Lt8hLgFuY/KRF1USH20ToeJsZZkxZowkqMx2v9dNbRCTVwIKpom2Swxm/LZmDSb16nMclYyhDwpSpB8kHVzcfatIal7KuOxExUdIoDlh6X9Za3VV+fHXkZaz5Paockj3cZNot5zAHIhi9MJqJ6qRhHBPCLyYruJDkMjFEfK4PoXGF67a1k5N6K16R95gm9T1RyR7SjXZX4uT9oeRPRDVWnxAIv6OpCGaNiSM8vileoOF3jqOaIN1QX8bEoOV8T86Gpt316tt3AJbwYcALzHtC/QzvxdLCPLUxvhHTwe+w8k6KA3Dql2IJYPhNAYolTJJ8z9WwiyVM0K/HvXGrq/2ueTJ55nPvvBOvL8bl3s5NuoBpASaBBv+EZmmVEU18z4uyeF4EsDiv4XTbMPFlMjHfw7d0Rw9MWqqUDnMSYc2/si8akNn60RW5e4Ej74mXyfDo+/1++NjhpjmsD3T83whEKzsA6YoAyoDPeaG0/ks3rrrqf09pvAEay5ncAAAAAElFTkSuQmCC;" parent="1" vertex="1">
          <mxGeometry x="99.81" y="710" width="60" height="60" as="geometry" />
        </mxCell>
        <mxCell id="LNoz9r7LhRh53aWZ0VOm-41" value="" style="shape=image;verticalLabelPosition=bottom;labelBackgroundColor=default;verticalAlign=top;aspect=fixed;imageAspect=0;image=data:image/png,iVBORw0KGgoAAAANSUhEUgAAADYAAAA2CAYAAACMRWrdAAAAAXNSR0IArs4c6QAAAARnQU1BAACxjwv8YQUAAAAJcEhZcwAAFxEAABcRAcom8z8AAAe8SURBVGhD1ZpLaJxVFMezdOlSbB5NaybzSMGNxYUVoSKlFhFL7aShTX3ExtjY6XzfZKYzqY0VWyup06ZJJ22nGXATcBMQIQhCFyJBFOqi0oVIQdGCDwoqiNmM53fuvdOmfmkeTSafF06YfI/7nf89557zP/fehtVo6148/HjTbn9/U6c3ZMS/cqc0dnpFvZ70U+t2e0+1dB97wL4avtbYmX6+sTNTEaVvivJVlaR3VcEk/SkHkmccQPdcY9L7W5+RwWjpPvSg7XLtWsvu7HpRaLIx6d+ySgIi1dZ3enuiUBlCOo5OVDoGJ67EM6WZmD/6Jb87ChOT7n40c26HWlf7EYA6IP4UlrSfqV9r2eU/ZNxJRrvTvyGW6Y0eGnlBlC7GMuM/RvqHq60vH1OxgP8jrS+9pfc39p6stntjvzEAmwrlXdJvUu5ba3rTD+/xH7WfXd2m7iQWUpcT63TkK73xzPgvbW+cqrbsK6jSzV3Z6sYD71a5hkTT56pRb7QmbQff1+uAatmXN+/szcn/J6qR9MifWLK5O7/TurIMXqayai5Kx4ykcTtvKJ4rdcWy498B4E7FULxjsLIkiWfHFagbGCyJFRP5Sgo3ZRDxjBW3XktnOiqArtP5hgPHtyeOXPz8kddPVZv2ZBRQ5M1ioMLLEQYGNwXghp53qrh2zD//tBtUgpRV6/4ak9gGh5nowZFnI97YH4DB3XApCQSBCt6vtB8+a9xUBi9y6IPZeKHcIwNbAjBTwKq3vCaAttmOJum4PVWc5UOMaCJfDlRoRUUGDfdGB1yV4AQo1Ummg1Vzac26n5g+U2EyYx065EOrZaX5JNJ/Wi2Ha8Zz5Y+JwuhCBLXqLq4RKDSMi/vFs+V+B4oPBH24HsLcw/1bXxmS/yeKpBvyHizHqn3vBr0REEJ7/BvkJnW/NQblJOqPqeVIE6QZ8hwRE6Jg1Z+/NSYzJ3FBoh85xXQk7hfwobWQ9tQZM+cODs/CWkTX63iWVT+4KaMwvC2VyI5fI/qRU+o9pxYSTTUCrj018nvjvvxmft8zDajfimmhNpgbYHWJfssQBnx996D81kg5BUuxMOY2sjrIm5N+fyx74QfNH8L5gjoNg8QGStZqxdnm197e6jzNwrndHGpozIZXj6u1wuaCd4vTM5a/fNF5m4VjGpEQxM3JgR44mo6EZP6gzsIkidwlw0zEsyJ97z2B3nPKHUGaBFh79vxOJiZUJqijMAokHCbUUajk8DgsZ2GpG06SExKDEyVAAS6okzAKnoWlpEL4Qksqyb8KyrihkFwpD+KZ87/yEIkwqJNQisQBdUepMJr2H92C/tDBGtGFZUA0NWgEdRBigWYRSDYNVqR2gwqmc7hhin8guqZUDw/LWKw4ksxUMjQrU1EKJRabcfNLa6yAl8MsLD3oPMuNf2JWwbxpiYjyQ3JYojAxxc2VrIbrJS5ZxzJj3xBAlIXIBZh8SdB+zU3QB70cZtF8hlEOn71JraaJ2rBjb0gi4U+KWtAHvRx2UWDibZBhfosrmijSnh5VxsGKUdCLYRcHDOahwOSPrqXHBsa/5cJyls/WWqhAFFjq7F+6XCcsyrAOEaH/09ykkAt6OcyClykwf1S9T9kH1sJqLDGTnMNcqswneBnAoFUOj7iiQUiCpnD7P/FEJ265AOM4D7TM3r+VKJT31phywMthFtiSVtMwfCEbWE3XOUDb1JV7rj018g+/yQtBHYRVlDEJz430ndGaDP6rDN+g9Esd+UufmsJt7ZfaFiu1JYL0uZ9dRKztkJp55t2EHbPaqitTAZ2EUVxFIlz3JNRQ55drujMpqOWBHToRxWr/CwYitRigWFFL5MrP6IKOWM3CMg3iaPNZkYlIfRPYWYiE1KTlSnb8muieMm541wah41gsZbll7TBX0rANZ61N2fKTTCWNhkHNWm0Kf729IBnc8VqLW9ClBqtZSyK8hTK3uWWC5r2ZXW4ZLoyFpzINjd7DQnzP6GIpBbOFEdywGJZjmVt9GJcMUY0Wz17U7SRiAGyJNIUbLngIhggJE9FAIpmcrE5HoShnJAoyPZC5G4CL3Jc2+84cJknnEkfKHzHfyO6MVuAH6yECitUo5pWWWF05E95FR6v24pobDeYbywaMEpZbi3qNAa19Xyp9lrOdV1l1l9YInzoqMjqYHr+uN+Ui5QAIYFhKQWnV788sOK/ma7zIqGA5QippgDDL/7rRvYquSZ6CLjGQDKiGdXU/LOVdXZGTOoAyk9QvUd7onpT4Oh9VOrPCm4NEY/rHUqQboh9TQ71HBnrZlgpqRB4dLalOW3tOPBYfvPyhKiAfRyhQ74epEHXpjyBVG7Dchc/aMiNbmBLqNcs927FQY9dTwLGZzRmLIsmRj7utJ64rzZGClV0QAk2Qu2Jh7iEAuPtwGXMJUounMJgqSz3TsZymbgE3Uwt6Q/GBS5shz9GBse9xHXcWajECKMCxUc4ye7xQ2WYOhvk3HKNYtZNvQU0DC/tRxj1FSW8awJG+4a1s9wpQPXzJ6izMhUCAYElAiLW+4hkCknW3JPPH9adH+ebjfvVo5hSPl0SRGkhbAgHcgt9G0ndCUtXr5tBX7QitvAOd611TQPM1w1p0B8cdbL59RtiKYQzuvnK95IpGuoaGhn8BDSxpvN7y7VIAAAAASUVORK5CYII=;" parent="1" vertex="1">
          <mxGeometry x="-137.19" y="450" width="54" height="54" as="geometry" />
        </mxCell>
        <mxCell id="LNoz9r7LhRh53aWZ0VOm-42" value="" style="shape=image;verticalLabelPosition=bottom;labelBackgroundColor=default;verticalAlign=top;aspect=fixed;imageAspect=0;image=data:image/png,iVBORw0KGgoAAAANSUhEUgAAAPIAAABoCAYAAADLla2BAAAAAXNSR0IArs4c6QAAAARnQU1BAACxjwv8YQUAAAAJcEhZcwAAFxEAABcRAcom8z8AAA5pSURBVHhe7Z1PaBznGYflnd2ZXUmxrUiWJXmtlWKSyLGj2rJcW7IDBYcQnBBKQmh6aDGFgi8BHXrwUTcdffRRkIshF0MpmEDBlFJMSEFQElxoIIcm5NCAoA6YuIfp+7w731qyx4kk73pH698Hj0fe/zN877x/v/frK/ioGr8wPjCWM24at4ToMCsG8425xxxkLmpscZwwlgyE9Z6RbmDNCBd51QiCLUQ7uWaEeXbb2DgHmZPMzSvGWUNjw3jTuG6sG1wsjjeMK31R9Ebl+SO/TRqLl2rT55ar04s3a9OLt5zJ+b+WR2e+SMaPp0I8KeWDR/+V1E/cbs0v59xyrbF4OT5w7N0oHnzX5iRKhrn6rREEm7l6yXgmNfaMgekSLgh3vqWof+QiF84u4PV4fPa7ePTltLz/cBr1D6el5LlwVxTiqbCnUktL1X0+BysjR9LK2NG71elzN2qNc0vxvvov7TWXDQSZ1yPUWIoopp4f+BrhxBHilei5Qxft7reSTJz8ujI87UK7p1RuXUwuJI9xMeMDLz5yJzWhF+KJSQ6d2DSv4rFXmkpkcNTnYN+eUnNO2jGqDaWVoUYaT8z+1967Go/MvGXPIdS4f7zujoGW7rmBAONzcJJrpVLyOzRvMjn/GXc67nw8hwAjtDxWrc/lXnAhukX18LwrE4R7Tzlpzlk7IvBJfe7f1ca5K1EyfMEex/zm+a8MzPFdb3ZjQhMc4KRu4mfYBVnmThYNjDwQXrsw0q5it4GyKe+vp3ui2Ocy7l88cuS+PbdaHhw/b49havMcGnpXmtzcgYgA4jesRfH+t8y3uJaMHfvBzRRO2o7c3WpTC7kXSYjdBKZ4SzmZlva53Vj4ONo3iYYOygy3cszYFYMUEncgos9LBAYq48fvBgHGv5D2Fb0K5nf5uTH3pdHULtDTiyt9UfSOzX9MbeSC3HShB5E8z7URAEgmf/4PP6lMAxNQyDt5IXqN6uTptLx34oH1eejEf2qTp963/1/lMYOsTSEHSXJ+4DUPz4++7P7vg7tS/gkL0cskE7Ot1Cn+NC6m/U1EO+SgCxMI44c0o3Sl0of8UH4w/0cbVxtnck9QiGcJ0lUhdUUxU5QMvG4ygplNymrK6OrAcaeYYz2K+t+uNc78hfQRP5gUUt4JCfGsgnbGQiXdWj0092UWCEOQqanoWsknQS2c9zsUdZBHK8UDbk4rmCVEPgTDgpxQKRYfnH3bZAgTG1P7qQfBEGK++FZt7OR7RKW50/AD+aF5JyCEyJhaaKaqguXaWKQqLATBnlpFGOY0mvgmixkIarntbya1/GEhtg4VYSZHHt3OgmCh9oJKyI4OAlv4xHfQxC7E2Q/J+6FCiB8nKMJmYPgcmR/MbIJgHQ2A+XJDnHTMaf8B++u5P1AIsTWoCjO5Slk0VDs8T+EIATCKqjqSmuJucY/oNIEtfGLM6bwfJoTYHp6eQphHZ77PotlEstHObR1UbHmemBQTQS1QnbQQ7YMAmGd9TFFmeWb85bZVgIUI9VUccrQwX6botBBtxhQjVWDkmSkaMcX5e5M7NPUTp6Ww0T1CTdmlV2yZX6w8sRCdAQXpbmttKK1OL5KSAhQpS4J3PFDr6/QsChFqVWwJ0VmoAPNA8t6JlBSvyR3BL5ZC7mg0TepS6Q9x/dTnmNOEyPO+WAjRXlhoZPKX0rsu85f5P7GqbQ9a86xhUntrE1P3Cm4J8fTAX/ZqyaaJTcEIkextpaQ8Sk1nD7p68Hd8cCb3y4QQnYH1+5jYuLPJ8EshJUUPsC0PbPIbRKm5IyhfLER3wE/GGk4aZ/5oMokQb1krN7VxMnwhHn3pPn+rs4cQXcLcWQSZqq/q+NHXTB6JYG9JK/t2Gdjl0sZCdB+EeINWxl/+Sa1MpDotVfovSRsLURA2aOXMV0Yr/+hyRyJjd1iFQcMwaWMhikHQyrXG2Y9MRlm8hOWcO1DVLJ9aJm9sR0WqhSgIdOV0mcRSbrbW5f+5Sx09yBUPvXCRlRgu/cobC1EY3EoeGEmrjQVqr/GTaUTwyGDJlAe5KNpWswAhioVXe+0pmSCf/cRklfJp1kFsGpjVHtamkbYdFeQSomDQSgtBNoG+v6Fsc5N5TY+gtLJ34lfuVJeT3A8SQnQXN68HR9lXCleYmNam6DUJ5nWvq+4fbr4w50OEEN2Fhn0o2qz+GneYHR9bgwdueMK5qbpzP0QI0V3oBWCymlbqc1/YEQW8yU9GRS/RMNuO6v4hRFGZWgh+clquDlKyiWD7Vq38Y7b33g9YZcG649wPEEIUApY30hsg26UCQfZN1NlzJq2OvvJrUk68KO/NQohigBAT9Mp2qGgtbSTq1Qx01YbUBUSIghPKNbOAF6WaHD2xvOaFIOXEX5T3ZiFEMQgN7ZPG/J/syPoI7+dF+Pq6CTL/8RflvVkIUQyq9TkX5Hhilog1ZZoeuUaAV72PLlKuVrdCFJrWAoqxY8E/dkF2GzvLS3krzrw3CyGKA7LK9jJ29BiX4dK8nEyc/NqOyiELsQtAVrOWuayE4tgU5ExNS5CF2AUQmM4E2ddJGC7Il0LpV96bhBDFQoIsRA8gQRaiB5AgC9EDSJCF6AEkyEL0ABJkIXoACbIQPcDjBPlBd5DJ07lvFEIUh9AlxGS2Jch3jOV4YvYbHlBllxDFB1nNBNk3ljB80cRK9dDclzygftZCFB9k1QSZjRZZNEFPehfk1eTw3N/sqGWMQhQcb1SPIDfXRyDIuMe+s9tqbXoRgVZjASEKDu5vU1ZdkFuNBbxViL1glQ6adNJ8+I1CiOKA+2symyb1E7ftSL8ujn1XjG99T2TabGrzNiEKTTz6cnMzt+lzKOHWbhMe9apNnnqfDpra3FyIYlPeX09L8UBK51uTXbJOKOO+Ewiyb+DGvsiVWu6bhRDFwPdnGxgJG7lhZtMlxLdUTfui6H3fDR2V3TiT+wFCiO5DVRebuUUDoxcyQUYZ+0A9Xw2dNOODM7kfIIToLg9FrEMOGWXsg8jXmr1wGdtbAS8hiolXc5nVXGuc/chkliCXN6cPw21tNoXy/Z9wpHM+RAjRXfCP2fcpaSyGQhDf9ymM/cYDP9n+1uIJIQrG1ILvlop/XB4cP+8yu8E/DmPNuBY2O9ceUEIUi7DnU+XQz4hphZ0YHxnkotbJJ0eDozKvhSgYpJwo2qJ4y2SVai4KQh4ZvuF5X6n0m8rY8e/4WyuhhCgIZla7pTxyJC3vHTvtstpci5w7iIDd8i1WKzVFr4UoCKEsM1ulyEKJXLM6DN9HJh564SI+sheHKOglRNfB1fXy6WY1l9d9ILCPGySWkfSrBL3YFV1aWYjuQoGWyWRaGZ/9px1DWeYj0eqHB3mpe8nwSxfQyggz9nneFwghOs8DbbxIpJrsEiuefnIErbxiWvnTkLfK+wIhRGcJ2jgen/2OOg/+Nn5SG4eBVv6WSq+Wr1yfy/0iIUSHoACknHjaKavk2rI2DqPlK5tz/bGr9tpQ/pcJIToC645RovHkqb+bLGJWs0BixtjW4A6QRsnwhdDzWquihHg6eDsf8sbPN/5HvMrkz91dY0eDhny36USAesdfVt9rIToL/QCo4/AqrulF0kxUcCHIreWK2x041ajzy9XG2U8wsfkCNR4QonMQoSZbVKnPfdEXRW+Y/BHgIu30RIO6zjSKau/RxJ4vkL8sRGcIfjFl0tkKp3WDltVtGXzQOq1FKuPH7/JFKhQRor14GaYpzcrw9P1k4tXX7W8quFgcsWOT+uHBB/GBX5GSyraqUA9sIdpECG6hIKuNBUqlWfeAXzxltHWwOoqOBLdqk6c/DCaAtpgR4slgPYPni81lzYJbRKeJTZ01OjJC8OsaXxicci13FGJnEDj2ILIJcvXw/J9NtnzhUnbs6AhF20tEsrmLoJmx7/N+qBAiHxQgAgxEqKNkAL8YRbnjfPF2h0eyjUtsW4Fdz/8VABNia4T1xTTSQxOXq4OvmQwRod7UFfNpDO4aCPBVVmXEI0e8uT3mtvLMQjweFiEhO2zRlPnEmNFoYoS4bRHq7YzWD/AFFuPH7+Ize9GIFlkIsQkUHIoOhecppuZCiJZCNLo6CIARJr9Dnjmun/rcnfdSWXstC5GBYgtyQbFHlidmJROKEIEuxCA1RZ55PYr636a7CLXZ9v+UjpxqFySeWaYWWtVaCDJBraxiiyWJKMCOpZh2OrDtqQBDgJdo2RkfnPnBTW2084EX809UiB4Fi9Sj0mjhoUbTH27WThPUQpDbXuzRzkFTAoT5ZnnwwHm0c7gjcVISaNHrUCRFNBo5wDJlPXF1/ChRafxgHkfhdSWotd2BuYCp7Tmx2uH5d1hwgZntAs3KjuFpRbdFT4EGbglw/7C358n6bBEUxoyGwvjD2xmcBGYEJ7DELhYEwzzvbAJtjzXvWComEbsUijpII6GcfD4jwBOz37gAN81o1vTzHNqYPdZ27eDHcxJo55ZAUxWGme2VYXai+BEINQsx1LxAFBXmps9bsy5xFX3uVmruAxPIylJKVD/iA/M8kektN8vbDYPI9kaBXsGH9mIS09KY2qHc057zi8TdjeQ5GjuZmM29sEJ0CuYc7a2Yg8zFILhA9w6EN5k4+bW9drk8XGcbFyoeWXrIa/CDe0qAHx4INElwVlJxwpz4Ejlo7mZ2Ua77omoungk2IfvsdY9CSN98EiHaQTCPH8bb7tjzzMnK6Mz3BHBpf5UFsNDAVGTxWhQUbXkKHY3uxOCOFfoRhQvBnexytG/yQn/j/Jvc7YzVZOLVT5OxYz8QEcS04aIK0W5w7ZhjTY59hmJhDrJGOBNczGYsy2A6A3P2iVvx9MpAqEldcXfD/A4XiQvGY2xcBUQA2YVOiE7xphHmG0JKwGrjnCQjg1XJ63ZFGqmbgxQWQvu4iylEp9moRDChEfICjr6+/wN2S3IBcQe8WwAAAABJRU5ErkJggg==;" parent="1" vertex="1">
          <mxGeometry x="-180" y="530" width="139.62" height="60" as="geometry" />
        </mxCell>
        <mxCell id="LNoz9r7LhRh53aWZ0VOm-43" value="" style="shape=image;verticalLabelPosition=bottom;labelBackgroundColor=default;verticalAlign=top;aspect=fixed;imageAspect=0;image=data:image/png,iVBORw0KGgoAAAANSUhEUgAAAPIAAABoCAYAAADLla2BAAAAAXNSR0IArs4c6QAAAARnQU1BAACxjwv8YQUAAAAJcEhZcwAAFxEAABcRAcom8z8AAA5pSURBVHhe7Z1PaBznGYflnd2ZXUmxrUiWJXmtlWKSyLGj2rJcW7IDBYcQnBBKQmh6aDGFgi8BHXrwUTcdffRRkIshF0MpmEDBlFJMSEFQElxoIIcm5NCAoA6YuIfp+7w731qyx4kk73pH698Hj0fe/zN877x/v/frK/ioGr8wPjCWM24at4ToMCsG8425xxxkLmpscZwwlgyE9Z6RbmDNCBd51QiCLUQ7uWaEeXbb2DgHmZPMzSvGWUNjw3jTuG6sG1wsjjeMK31R9Ebl+SO/TRqLl2rT55ar04s3a9OLt5zJ+b+WR2e+SMaPp0I8KeWDR/+V1E/cbs0v59xyrbF4OT5w7N0oHnzX5iRKhrn6rREEm7l6yXgmNfaMgekSLgh3vqWof+QiF84u4PV4fPa7ePTltLz/cBr1D6el5LlwVxTiqbCnUktL1X0+BysjR9LK2NG71elzN2qNc0vxvvov7TWXDQSZ1yPUWIoopp4f+BrhxBHilei5Qxft7reSTJz8ujI87UK7p1RuXUwuJI9xMeMDLz5yJzWhF+KJSQ6d2DSv4rFXmkpkcNTnYN+eUnNO2jGqDaWVoUYaT8z+1967Go/MvGXPIdS4f7zujoGW7rmBAONzcJJrpVLyOzRvMjn/GXc67nw8hwAjtDxWrc/lXnAhukX18LwrE4R7Tzlpzlk7IvBJfe7f1ca5K1EyfMEex/zm+a8MzPFdb3ZjQhMc4KRu4mfYBVnmThYNjDwQXrsw0q5it4GyKe+vp3ui2Ocy7l88cuS+PbdaHhw/b49havMcGnpXmtzcgYgA4jesRfH+t8y3uJaMHfvBzRRO2o7c3WpTC7kXSYjdBKZ4SzmZlva53Vj4ONo3iYYOygy3cszYFYMUEncgos9LBAYq48fvBgHGv5D2Fb0K5nf5uTH3pdHULtDTiyt9UfSOzX9MbeSC3HShB5E8z7URAEgmf/4PP6lMAxNQyDt5IXqN6uTptLx34oH1eejEf2qTp963/1/lMYOsTSEHSXJ+4DUPz4++7P7vg7tS/gkL0cskE7Ot1Cn+NC6m/U1EO+SgCxMI44c0o3Sl0of8UH4w/0cbVxtnck9QiGcJ0lUhdUUxU5QMvG4ygplNymrK6OrAcaeYYz2K+t+uNc78hfQRP5gUUt4JCfGsgnbGQiXdWj0092UWCEOQqanoWsknQS2c9zsUdZBHK8UDbk4rmCVEPgTDgpxQKRYfnH3bZAgTG1P7qQfBEGK++FZt7OR7RKW50/AD+aF5JyCEyJhaaKaqguXaWKQqLATBnlpFGOY0mvgmixkIarntbya1/GEhtg4VYSZHHt3OgmCh9oJKyI4OAlv4xHfQxC7E2Q/J+6FCiB8nKMJmYPgcmR/MbIJgHQ2A+XJDnHTMaf8B++u5P1AIsTWoCjO5Slk0VDs8T+EIATCKqjqSmuJucY/oNIEtfGLM6bwfJoTYHp6eQphHZ77PotlEstHObR1UbHmemBQTQS1QnbQQ7YMAmGd9TFFmeWb85bZVgIUI9VUccrQwX6botBBtxhQjVWDkmSkaMcX5e5M7NPUTp6Ww0T1CTdmlV2yZX6w8sRCdAQXpbmttKK1OL5KSAhQpS4J3PFDr6/QsChFqVWwJ0VmoAPNA8t6JlBSvyR3BL5ZC7mg0TepS6Q9x/dTnmNOEyPO+WAjRXlhoZPKX0rsu85f5P7GqbQ9a86xhUntrE1P3Cm4J8fTAX/ZqyaaJTcEIkextpaQ8Sk1nD7p68Hd8cCb3y4QQnYH1+5jYuLPJ8EshJUUPsC0PbPIbRKm5IyhfLER3wE/GGk4aZ/5oMokQb1krN7VxMnwhHn3pPn+rs4cQXcLcWQSZqq/q+NHXTB6JYG9JK/t2Gdjl0sZCdB+EeINWxl/+Sa1MpDotVfovSRsLURA2aOXMV0Yr/+hyRyJjd1iFQcMwaWMhikHQyrXG2Y9MRlm8hOWcO1DVLJ9aJm9sR0WqhSgIdOV0mcRSbrbW5f+5Sx09yBUPvXCRlRgu/cobC1EY3EoeGEmrjQVqr/GTaUTwyGDJlAe5KNpWswAhioVXe+0pmSCf/cRklfJp1kFsGpjVHtamkbYdFeQSomDQSgtBNoG+v6Fsc5N5TY+gtLJ34lfuVJeT3A8SQnQXN68HR9lXCleYmNam6DUJ5nWvq+4fbr4w50OEEN2Fhn0o2qz+GneYHR9bgwdueMK5qbpzP0QI0V3oBWCymlbqc1/YEQW8yU9GRS/RMNuO6v4hRFGZWgh+clquDlKyiWD7Vq38Y7b33g9YZcG649wPEEIUApY30hsg26UCQfZN1NlzJq2OvvJrUk68KO/NQohigBAT9Mp2qGgtbSTq1Qx01YbUBUSIghPKNbOAF6WaHD2xvOaFIOXEX5T3ZiFEMQgN7ZPG/J/syPoI7+dF+Pq6CTL/8RflvVkIUQyq9TkX5Hhilog1ZZoeuUaAV72PLlKuVrdCFJrWAoqxY8E/dkF2GzvLS3krzrw3CyGKA7LK9jJ29BiX4dK8nEyc/NqOyiELsQtAVrOWuayE4tgU5ExNS5CF2AUQmM4E2ddJGC7Il0LpV96bhBDFQoIsRA8gQRaiB5AgC9EDSJCF6AEkyEL0ABJkIXoACbIQPcDjBPlBd5DJ07lvFEIUh9AlxGS2Jch3jOV4YvYbHlBllxDFB1nNBNk3ljB80cRK9dDclzygftZCFB9k1QSZjRZZNEFPehfk1eTw3N/sqGWMQhQcb1SPIDfXRyDIuMe+s9tqbXoRgVZjASEKDu5vU1ZdkFuNBbxViL1glQ6adNJ8+I1CiOKA+2symyb1E7ftSL8ujn1XjG99T2TabGrzNiEKTTz6cnMzt+lzKOHWbhMe9apNnnqfDpra3FyIYlPeX09L8UBK51uTXbJOKOO+Ewiyb+DGvsiVWu6bhRDFwPdnGxgJG7lhZtMlxLdUTfui6H3fDR2V3TiT+wFCiO5DVRebuUUDoxcyQUYZ+0A9Xw2dNOODM7kfIIToLg9FrEMOGWXsg8jXmr1wGdtbAS8hiolXc5nVXGuc/chkliCXN6cPw21tNoXy/Z9wpHM+RAjRXfCP2fcpaSyGQhDf9ymM/cYDP9n+1uIJIQrG1ILvlop/XB4cP+8yu8E/DmPNuBY2O9ceUEIUi7DnU+XQz4hphZ0YHxnkotbJJ0eDozKvhSgYpJwo2qJ4y2SVai4KQh4ZvuF5X6n0m8rY8e/4WyuhhCgIZla7pTxyJC3vHTvtstpci5w7iIDd8i1WKzVFr4UoCKEsM1ulyEKJXLM6DN9HJh564SI+sheHKOglRNfB1fXy6WY1l9d9ILCPGySWkfSrBL3YFV1aWYjuQoGWyWRaGZ/9px1DWeYj0eqHB3mpe8nwSxfQyggz9nneFwghOs8DbbxIpJrsEiuefnIErbxiWvnTkLfK+wIhRGcJ2jgen/2OOg/+Nn5SG4eBVv6WSq+Wr1yfy/0iIUSHoACknHjaKavk2rI2DqPlK5tz/bGr9tpQ/pcJIToC645RovHkqb+bLGJWs0BixtjW4A6QRsnwhdDzWquihHg6eDsf8sbPN/5HvMrkz91dY0eDhny36USAesdfVt9rIToL/QCo4/AqrulF0kxUcCHIreWK2x041ajzy9XG2U8wsfkCNR4QonMQoSZbVKnPfdEXRW+Y/BHgIu30RIO6zjSKau/RxJ4vkL8sRGcIfjFl0tkKp3WDltVtGXzQOq1FKuPH7/JFKhQRor14GaYpzcrw9P1k4tXX7W8quFgcsWOT+uHBB/GBX5GSyraqUA9sIdpECG6hIKuNBUqlWfeAXzxltHWwOoqOBLdqk6c/DCaAtpgR4slgPYPni81lzYJbRKeJTZ01OjJC8OsaXxicci13FGJnEDj2ILIJcvXw/J9NtnzhUnbs6AhF20tEsrmLoJmx7/N+qBAiHxQgAgxEqKNkAL8YRbnjfPF2h0eyjUtsW4Fdz/8VABNia4T1xTTSQxOXq4OvmQwRod7UFfNpDO4aCPBVVmXEI0e8uT3mtvLMQjweFiEhO2zRlPnEmNFoYoS4bRHq7YzWD/AFFuPH7+Ize9GIFlkIsQkUHIoOhecppuZCiJZCNLo6CIARJr9Dnjmun/rcnfdSWXstC5GBYgtyQbFHlidmJROKEIEuxCA1RZ55PYr636a7CLXZ9v+UjpxqFySeWaYWWtVaCDJBraxiiyWJKMCOpZh2OrDtqQBDgJdo2RkfnPnBTW2084EX809UiB4Fi9Sj0mjhoUbTH27WThPUQpDbXuzRzkFTAoT5ZnnwwHm0c7gjcVISaNHrUCRFNBo5wDJlPXF1/ChRafxgHkfhdSWotd2BuYCp7Tmx2uH5d1hwgZntAs3KjuFpRbdFT4EGbglw/7C358n6bBEUxoyGwvjD2xmcBGYEJ7DELhYEwzzvbAJtjzXvWComEbsUijpII6GcfD4jwBOz37gAN81o1vTzHNqYPdZ27eDHcxJo55ZAUxWGme2VYXai+BEINQsx1LxAFBXmps9bsy5xFX3uVmruAxPIylJKVD/iA/M8kektN8vbDYPI9kaBXsGH9mIS09KY2qHc057zi8TdjeQ5GjuZmM29sEJ0CuYc7a2Yg8zFILhA9w6EN5k4+bW9drk8XGcbFyoeWXrIa/CDe0qAHx4INElwVlJxwpz4Ejlo7mZ2Ua77omoungk2IfvsdY9CSN98EiHaQTCPH8bb7tjzzMnK6Mz3BHBpf5UFsNDAVGTxWhQUbXkKHY3uxOCOFfoRhQvBnexytG/yQn/j/Jvc7YzVZOLVT5OxYz8QEcS04aIK0W5w7ZhjTY59hmJhDrJGOBNczGYsy2A6A3P2iVvx9MpAqEldcXfD/A4XiQvGY2xcBUQA2YVOiE7xphHmG0JKwGrjnCQjg1XJ63ZFGqmbgxQWQvu4iylEp9moRDChEfICjr6+/wN2S3IBcQe8WwAAAABJRU5ErkJggg==;" parent="1" vertex="1">
          <mxGeometry x="-180" y="620" width="139.62" height="60" as="geometry" />
        </mxCell>
        <mxCell id="LNoz9r7LhRh53aWZ0VOm-44" value="" style="shape=image;verticalLabelPosition=bottom;labelBackgroundColor=default;verticalAlign=top;aspect=fixed;imageAspect=0;image=data:image/png,iVBORw0KGgoAAAANSUhEUgAAAPIAAABoCAYAAADLla2BAAAAAXNSR0IArs4c6QAAAARnQU1BAACxjwv8YQUAAAAJcEhZcwAAFxEAABcRAcom8z8AAA5pSURBVHhe7Z1PaBznGYflnd2ZXUmxrUiWJXmtlWKSyLGj2rJcW7IDBYcQnBBKQmh6aDGFgi8BHXrwUTcdffRRkIshF0MpmEDBlFJMSEFQElxoIIcm5NCAoA6YuIfp+7w731qyx4kk73pH698Hj0fe/zN877x/v/frK/ioGr8wPjCWM24at4ToMCsG8425xxxkLmpscZwwlgyE9Z6RbmDNCBd51QiCLUQ7uWaEeXbb2DgHmZPMzSvGWUNjw3jTuG6sG1wsjjeMK31R9Ebl+SO/TRqLl2rT55ar04s3a9OLt5zJ+b+WR2e+SMaPp0I8KeWDR/+V1E/cbs0v59xyrbF4OT5w7N0oHnzX5iRKhrn6rREEm7l6yXgmNfaMgekSLgh3vqWof+QiF84u4PV4fPa7ePTltLz/cBr1D6el5LlwVxTiqbCnUktL1X0+BysjR9LK2NG71elzN2qNc0vxvvov7TWXDQSZ1yPUWIoopp4f+BrhxBHilei5Qxft7reSTJz8ujI87UK7p1RuXUwuJI9xMeMDLz5yJzWhF+KJSQ6d2DSv4rFXmkpkcNTnYN+eUnNO2jGqDaWVoUYaT8z+1967Go/MvGXPIdS4f7zujoGW7rmBAONzcJJrpVLyOzRvMjn/GXc67nw8hwAjtDxWrc/lXnAhukX18LwrE4R7Tzlpzlk7IvBJfe7f1ca5K1EyfMEex/zm+a8MzPFdb3ZjQhMc4KRu4mfYBVnmThYNjDwQXrsw0q5it4GyKe+vp3ui2Ocy7l88cuS+PbdaHhw/b49havMcGnpXmtzcgYgA4jesRfH+t8y3uJaMHfvBzRRO2o7c3WpTC7kXSYjdBKZ4SzmZlva53Vj4ONo3iYYOygy3cszYFYMUEncgos9LBAYq48fvBgHGv5D2Fb0K5nf5uTH3pdHULtDTiyt9UfSOzX9MbeSC3HShB5E8z7URAEgmf/4PP6lMAxNQyDt5IXqN6uTptLx34oH1eejEf2qTp963/1/lMYOsTSEHSXJ+4DUPz4++7P7vg7tS/gkL0cskE7Ot1Cn+NC6m/U1EO+SgCxMI44c0o3Sl0of8UH4w/0cbVxtnck9QiGcJ0lUhdUUxU5QMvG4ygplNymrK6OrAcaeYYz2K+t+uNc78hfQRP5gUUt4JCfGsgnbGQiXdWj0092UWCEOQqanoWsknQS2c9zsUdZBHK8UDbk4rmCVEPgTDgpxQKRYfnH3bZAgTG1P7qQfBEGK++FZt7OR7RKW50/AD+aF5JyCEyJhaaKaqguXaWKQqLATBnlpFGOY0mvgmixkIarntbya1/GEhtg4VYSZHHt3OgmCh9oJKyI4OAlv4xHfQxC7E2Q/J+6FCiB8nKMJmYPgcmR/MbIJgHQ2A+XJDnHTMaf8B++u5P1AIsTWoCjO5Slk0VDs8T+EIATCKqjqSmuJucY/oNIEtfGLM6bwfJoTYHp6eQphHZ77PotlEstHObR1UbHmemBQTQS1QnbQQ7YMAmGd9TFFmeWb85bZVgIUI9VUccrQwX6botBBtxhQjVWDkmSkaMcX5e5M7NPUTp6Ww0T1CTdmlV2yZX6w8sRCdAQXpbmttKK1OL5KSAhQpS4J3PFDr6/QsChFqVWwJ0VmoAPNA8t6JlBSvyR3BL5ZC7mg0TepS6Q9x/dTnmNOEyPO+WAjRXlhoZPKX0rsu85f5P7GqbQ9a86xhUntrE1P3Cm4J8fTAX/ZqyaaJTcEIkextpaQ8Sk1nD7p68Hd8cCb3y4QQnYH1+5jYuLPJ8EshJUUPsC0PbPIbRKm5IyhfLER3wE/GGk4aZ/5oMokQb1krN7VxMnwhHn3pPn+rs4cQXcLcWQSZqq/q+NHXTB6JYG9JK/t2Gdjl0sZCdB+EeINWxl/+Sa1MpDotVfovSRsLURA2aOXMV0Yr/+hyRyJjd1iFQcMwaWMhikHQyrXG2Y9MRlm8hOWcO1DVLJ9aJm9sR0WqhSgIdOV0mcRSbrbW5f+5Sx09yBUPvXCRlRgu/cobC1EY3EoeGEmrjQVqr/GTaUTwyGDJlAe5KNpWswAhioVXe+0pmSCf/cRklfJp1kFsGpjVHtamkbYdFeQSomDQSgtBNoG+v6Fsc5N5TY+gtLJ34lfuVJeT3A8SQnQXN68HR9lXCleYmNam6DUJ5nWvq+4fbr4w50OEEN2Fhn0o2qz+GneYHR9bgwdueMK5qbpzP0QI0V3oBWCymlbqc1/YEQW8yU9GRS/RMNuO6v4hRFGZWgh+clquDlKyiWD7Vq38Y7b33g9YZcG649wPEEIUApY30hsg26UCQfZN1NlzJq2OvvJrUk68KO/NQohigBAT9Mp2qGgtbSTq1Qx01YbUBUSIghPKNbOAF6WaHD2xvOaFIOXEX5T3ZiFEMQgN7ZPG/J/syPoI7+dF+Pq6CTL/8RflvVkIUQyq9TkX5Hhilog1ZZoeuUaAV72PLlKuVrdCFJrWAoqxY8E/dkF2GzvLS3krzrw3CyGKA7LK9jJ29BiX4dK8nEyc/NqOyiELsQtAVrOWuayE4tgU5ExNS5CF2AUQmM4E2ddJGC7Il0LpV96bhBDFQoIsRA8gQRaiB5AgC9EDSJCF6AEkyEL0ABJkIXoACbIQPcDjBPlBd5DJ07lvFEIUh9AlxGS2Jch3jOV4YvYbHlBllxDFB1nNBNk3ljB80cRK9dDclzygftZCFB9k1QSZjRZZNEFPehfk1eTw3N/sqGWMQhQcb1SPIDfXRyDIuMe+s9tqbXoRgVZjASEKDu5vU1ZdkFuNBbxViL1glQ6adNJ8+I1CiOKA+2symyb1E7ftSL8ujn1XjG99T2TabGrzNiEKTTz6cnMzt+lzKOHWbhMe9apNnnqfDpra3FyIYlPeX09L8UBK51uTXbJOKOO+Ewiyb+DGvsiVWu6bhRDFwPdnGxgJG7lhZtMlxLdUTfui6H3fDR2V3TiT+wFCiO5DVRebuUUDoxcyQUYZ+0A9Xw2dNOODM7kfIIToLg9FrEMOGWXsg8jXmr1wGdtbAS8hiolXc5nVXGuc/chkliCXN6cPw21tNoXy/Z9wpHM+RAjRXfCP2fcpaSyGQhDf9ymM/cYDP9n+1uIJIQrG1ILvlop/XB4cP+8yu8E/DmPNuBY2O9ceUEIUi7DnU+XQz4hphZ0YHxnkotbJJ0eDozKvhSgYpJwo2qJ4y2SVai4KQh4ZvuF5X6n0m8rY8e/4WyuhhCgIZla7pTxyJC3vHTvtstpci5w7iIDd8i1WKzVFr4UoCKEsM1ulyEKJXLM6DN9HJh564SI+sheHKOglRNfB1fXy6WY1l9d9ILCPGySWkfSrBL3YFV1aWYjuQoGWyWRaGZ/9px1DWeYj0eqHB3mpe8nwSxfQyggz9nneFwghOs8DbbxIpJrsEiuefnIErbxiWvnTkLfK+wIhRGcJ2jgen/2OOg/+Nn5SG4eBVv6WSq+Wr1yfy/0iIUSHoACknHjaKavk2rI2DqPlK5tz/bGr9tpQ/pcJIToC645RovHkqb+bLGJWs0BixtjW4A6QRsnwhdDzWquihHg6eDsf8sbPN/5HvMrkz91dY0eDhny36USAesdfVt9rIToL/QCo4/AqrulF0kxUcCHIreWK2x041ajzy9XG2U8wsfkCNR4QonMQoSZbVKnPfdEXRW+Y/BHgIu30RIO6zjSKau/RxJ4vkL8sRGcIfjFl0tkKp3WDltVtGXzQOq1FKuPH7/JFKhQRor14GaYpzcrw9P1k4tXX7W8quFgcsWOT+uHBB/GBX5GSyraqUA9sIdpECG6hIKuNBUqlWfeAXzxltHWwOoqOBLdqk6c/DCaAtpgR4slgPYPni81lzYJbRKeJTZ01OjJC8OsaXxicci13FGJnEDj2ILIJcvXw/J9NtnzhUnbs6AhF20tEsrmLoJmx7/N+qBAiHxQgAgxEqKNkAL8YRbnjfPF2h0eyjUtsW4Fdz/8VABNia4T1xTTSQxOXq4OvmQwRod7UFfNpDO4aCPBVVmXEI0e8uT3mtvLMQjweFiEhO2zRlPnEmNFoYoS4bRHq7YzWD/AFFuPH7+Ize9GIFlkIsQkUHIoOhecppuZCiJZCNLo6CIARJr9Dnjmun/rcnfdSWXstC5GBYgtyQbFHlidmJROKEIEuxCA1RZ55PYr636a7CLXZ9v+UjpxqFySeWaYWWtVaCDJBraxiiyWJKMCOpZh2OrDtqQBDgJdo2RkfnPnBTW2084EX809UiB4Fi9Sj0mjhoUbTH27WThPUQpDbXuzRzkFTAoT5ZnnwwHm0c7gjcVISaNHrUCRFNBo5wDJlPXF1/ChRafxgHkfhdSWotd2BuYCp7Tmx2uH5d1hwgZntAs3KjuFpRbdFT4EGbglw/7C358n6bBEUxoyGwvjD2xmcBGYEJ7DELhYEwzzvbAJtjzXvWComEbsUijpII6GcfD4jwBOz37gAN81o1vTzHNqYPdZ27eDHcxJo55ZAUxWGme2VYXai+BEINQsx1LxAFBXmps9bsy5xFX3uVmruAxPIylJKVD/iA/M8kektN8vbDYPI9kaBXsGH9mIS09KY2qHc057zi8TdjeQ5GjuZmM29sEJ0CuYc7a2Yg8zFILhA9w6EN5k4+bW9drk8XGcbFyoeWXrIa/CDe0qAHx4INElwVlJxwpz4Ejlo7mZ2Ua77omoungk2IfvsdY9CSN98EiHaQTCPH8bb7tjzzMnK6Mz3BHBpf5UFsNDAVGTxWhQUbXkKHY3uxOCOFfoRhQvBnexytG/yQn/j/Jvc7YzVZOLVT5OxYz8QEcS04aIK0W5w7ZhjTY59hmJhDrJGOBNczGYsy2A6A3P2iVvx9MpAqEldcXfD/A4XiQvGY2xcBUQA2YVOiE7xphHmG0JKwGrjnCQjg1XJ63ZFGqmbgxQWQvu4iylEp9moRDChEfICjr6+/wN2S3IBcQe8WwAAAABJRU5ErkJggg==;" parent="1" vertex="1">
          <mxGeometry x="-180" y="710" width="139.62" height="60" as="geometry" />
        </mxCell>
        <mxCell id="LNoz9r7LhRh53aWZ0VOm-45" value="" style="shape=image;verticalLabelPosition=bottom;labelBackgroundColor=default;verticalAlign=top;aspect=fixed;imageAspect=0;image=data:image/png,iVBORw0KGgoAAAANSUhEUgAAAE8AAABPCAYAAACqNJiGAAAAAXNSR0IArs4c6QAAAARnQU1BAACxjwv8YQUAAAAJcEhZcwAAFxEAABcRAcom8z8AABGSSURBVHhe5Z1rcFXVFcf92I/92KmkUamKYFv7crBVy6jDUHV8jpJoEY06UIsI3ItRQklGhVQaDSKaFEhSgjSAURDByCtBCIRHCIG8IPKWl/LqkDBO7YfT/VvnrJubyw733OQmOdg9s+Tm3vNY67/Xe+9zvKq/x9WPTxw6IC08IiU9lDMgfXJJSnq4qityf+e4SQ9dPTI0zLvE/89IfSz8o5S00NiUtPAyA4ijZABsUZAAyEIV8ltaaJee41GNudaE1PRJg7xbfL8GgiGgCOoCdd78XTYgPZQ2ZVHFcw3ftKU1nW3LaTrXXtZ0tr0K+qS+ddv8ytpdpdX1O/W7xrPtyziu8Uz707kfrX1q8LNZjw1IDxeY65z0rttiPuf/+InwLd6tr9yRMjL8tKdRDgIi6K9eyHlSwDJALdna3PbqwpXOqLx/OvdNmxOtTV3S8CnvOCNzixzOK1y/9TsABcwHp8+/e0Da5Nzo+6GxqaNf+qHHzpUxjAAj1LzwUwjWdPrCWASdV7XDyXhnkfPzMTkCxm/GTRfgQiWfODOXVzllWxu7pPfWbBXQHn690Lltwt/k/IGjXhHwZ62qdjYfPrWj4UzbhInzyu8FODRcQDRa77EW3IG5GIHwWw4+7YU5ZXcDGIIhIILy27DJeQLCit37HWOO3abK1mMCOGDKPQ0xEW+Ur3O2HP1mU3ld0z2Y8YC00LdG6w8RaDxWgzMIAl6kNKCFdt02fsb9Rrh8zArN4nsERFAEjgUhGbT92BnRTCZpUMZUIUDcduLsisyiFbczmR7AVUR4j/X+HV6qYcwjfOimjKxRjacvvPLB5j1t+CaYRZjeAqwrAkjcAJrO5AGq+T7/9vDMewBPQDQR3xOhfwYMYBLM6pYj3zz2WcP+0zhzmMN8emqWPaXqQ6fEv8IProJJZXJT0icZwh+HC1JHZ//AE6fvBjeWGTSOmfQBE1EmF2yqtwrTX8QkajQf+/4Sp/bkuaWS5pAymfSpzyIyNzI3rELjSDvwKZgmjGWXVViZDwoR6fGFuJQNrV81EtDcQBI+1Ou5ITfQm416a8G9MAAjMBQ0beuKVjcfljQHX7hs174zRGRVBlIsT9TkDjQO0FDzj2ub719W9+UFGIARGLIxGlQioGDGBJTZqzd/Rw5KtgCASY/EOFWZHQMewKH+3BgGYMTG4JVA4+eWi7sh5yS5JvCRVKeOzLzGE73nw4BWwKzgI9A4gCOK2RjqLpXXtkiVgCAQExNNCMr3BCaqjV1f/9t6nUSJewIgOej61uPDjem2kKsmJQqTjnBxgsMX+098iamS8NoYSZRiSzWIaA1YWr9CHKMg6nFMIMcgfE+1n0DH9UhlSKglCqeFyzwIujfomUkeZ/IioirBAR/XE2ZJmLUKAAQAQZtKa5qdnJXbhcaVVTmPF650HpxV7jzw9lL5PGbhusjvpdv3CmjRJR9AopG2e/oh5WlNy9H9VEgqtwdFYgO792ZgWdPZi7l68e4GBxJW9TFoL2ZSvLnJyfy42rlz+gfODS/mOddmZAupdsXStc9Mk98Hjs11bp1WLCDPN6BTQahWYhXdSc5xA2g9ylF98MQ6IzctNJNId6MeBjRsf/PBr0eh1lyou+kIpgfwmCdaNqtytzM0Z4Fz/V/edFKfypJr/+TJTGfgmOnyHTRo0rvOoNCcCF0/bqZ8D3CpT01xzzFaN3DsDOeWV/8hGjm3cqcAwG+YeqIWglXAo+uW2qSzLQEkEf/ndUccsnByIT4jtO2GlyNNCQAOAAs37XHuerNMQIoWHnBunlqSEA3OLOwEPhqJNs5cu0tMGhDQ8ES1kMCFK3ht6er/5q2oMv5Pyk//LS3DTA1aB/r4EmbTdqPLUXQyumBLg/PonOXOT//8ppPyxGQB7Ybx+VZQukOAj0kD4nXPvy5uoGxna2TiCEw2Hrsi3Avg4+elpeVX+7BxmKCBWbyx7j98TtRccdwwTYAp3dri/DJrngCGaWJ+N2cVW0HoKd048R3XpM0EDZk025m9YbfUssiQiOXgn9E+3NWcz7aZEo4ueCjfg8g+JBmmAyxBoj0fjUPzYi9+OQJomCXAwPyQ0LsiDJoxZMp8q9BJJTMxuAJ4wKwJSADH37gOG8824lgArNx7tBKzxXzpW3pQXTr0oKmlqx6ikckNE/EZmCoah7PGgaNlXANhekvbuqIbXnxLJg0zHl30uUR3ePF6e3GJ6IvpYsK02+Jqn1v0h/KxdU5MpIogOODfMNW8tXUR4BDCJlxfEL4QV3HtszmigQCBNhEUbDLEEhrL8TRAItpna19phKUEY5Y4Cdu3XTSWmCWcM+CRu4mp9jNwSoPC74kGkuKQIpGGoBh+utvR2rdeSjcTeUeGn/Yg6xiy2mQ0j04rN0jE19HyxlyJquRcLrPGVC3C9AfdOGGWTObgl/KlOiELwEJsssQSvg8AG8+1FxALIA+yjkGgYN2TVSe0jlzJdrFY0siEio/IWypRlZyrr31cPJI0yQD4mylznY92tcpnPykMPp9j/1XTcMJdh8Z0o9IWSjEOuOfl/EdwqHz2m51rTkSZhGkAXp9E1W4Qk3rN6Kni/xLJX3FHWJfXOO1csokzNNGElXdSDPyX7SKxpLOSu6zS+cOMRWKu1Kg2xoNAN71cIPzikxdtM5PtWYxNtmhCQTB1igZzvmw48qCTikK+2Hni3Gp8l9+1CJ09SqLrnntNtC5o5hpLyuf4JRsiVmOTLZpI+gGdjosbdcPnBThvQccZnJH9wAdbdktF4TcSMXN5n26UmpLzyPBtDAeJhrwyL2Ih5XVfCt/xWlnIqkolC+jmHNniRs+eP4rX73wEu3bV036RaMI3Al7RliZxxpRFNmaDSDQmqHhmVNSK5aCBNhmjCXdGFoJrc1t1obHeTqbQtyyCYIYcZDs5lvRiEz/cKMABoI3RIBIWgsI8PPtjSUUICDYZowmtc4+7mGvOrZFqg/TE7aC056N1fvydqjHpzNDsEmGEZNTGaCDJ+GUx3fH5ztLavcJ/vCYvaQ3HuZ0W2aFaQaQtI/HjS370k/to8U81QfEtgcLGZICJko3g8f6mRtGoeEoDuMj8YW3zXtrzLBRFIu3nTYdl16afdQDCOzek+Hfb4sGpJvySNg5wO7ifeHU81gY+CzbWnxRXZ6oxAY/SbE3zka/40c8aBYGF8kb9nfToLAwGmWjzI++oeasEOAC0yRpNHC9FhAGPz1KWAZ6UH+YLP2kKNyO4PFOyRi6YzK5wX5EmzH/MWyxBw0+1oX7emOwIAQ/1A7yF1fVn/YJHBUKH9v58dzWMWbQxGGSSfM/wPnTafOn1+UmWcVWAR47XCTyxZZ/gEZWZrd+/5u6OYhZtDAad4B2r0UhqkzWaLgHP/KeTz/MDnkan3051Z4+VLBtzQSd4Bzwtv2yyRhPHAF6Hz5NoGy6oaD5cxxd+oi1mS1Y+/O+L5YLdWTrsb6LzA++/yCwQQKiWbLJGE8cXVdWec6Nt6KQBL1RBqiKr5OZHP3ke1QX0p/nuYjjNRhuDQSasBd7vfKM0qnqwywtVHzolx5vAetjtQplUhTLDfFlDpxSn6bdFg/ax3YEEOchtqK4IawEMSjSVxyarkhYGrKZhqShdpJfH/jRyHaKo7eRo0pkiSaa5eCXVtUramkcB1JJssiqhVKQq5rNRNqw1XOA+rWMusqLhwKMA56e3T6LIhShttENhYzDIRFXExNNZQeZ4nZUINrKL1GQoRuncpxANePdOmX2fOs54LXi1/6Iv6pybWZ0yn8mbbEwGlaQyMnV5eZ3bDY+3KwJLA+Av9h29k+MjrXiKXNIVnt3iBz8Lw8wCs/HE3FVec7H/lxn9klYXv8sujkRaalebnJA2BSgkjItL67R+q08LsuyI44xn/xB+jwCD6bIqLytmFkaDSNoJylpRI2VmPHmRFTdFUHXbUeEqAY6hGfNfF352tzrGy80ERDLNOSUb613na7Tviqg0sooFOFb6ynbuF61D+2wyKqFQ1PMbDp56wCiZ20WOHkRcnKBWGn6SZYppZo2lPJwv/TErwwEi0iommjVmFCWej1f/ziMHQzKyh/P5kt3yqo60mald40UfSGtClvF0i0WQO8pUFap1H9YfFLcTT071iTxypTmxB1nH0JSF5yzo13HheKYLoX34DfyHLirbGA8C6aI8PTzVOjTLJpcSuS8kCz9eE8WDrGOwhUA2shh7ZlcQF/ZTbWjmXbB+W2QJMojNUakoJCvIc8p2tApwKIlNJiVd1H9/bc35n2VkS4rS5YsgUEt8H/vRUGe/2qeL32y5EJ9ibhKkHt/gzLmy1QyfTFVEiuVHNtIxgoU+HUTj2IPq0iFPbIv2hSdU7j9W68cnQEReIjTBg4yd7B1mA9GqMtEVVwJFb3KM1wBRf86GdjYE8BnX5kFlH17Od569uH79AkR05lhyoucXrBH/RxbPrFuF6gsywLFKhp+jfVa6eU+ER5sM0aS+HF8nSxW2rWWxQ3yfMV1MWHeI+kmaIZ1V/B8temYbDeyPfh+Tpven483WCrUOG+/RpLshWGbUDe6+n8fFbDFf9mXo3mS/W1Exc27MLGMm+Jm+Lt9IlwAN8NA4gKM2xYfF83PkfOquZC+yPMjnQ+t0dN4VfzGXUM0F/ZgvzDG7AI7Zk8KQIvA3ZVxvmjF5HKUXk8WkkZIwiWgcZuhnzyGmCtBVrcc3qxJddhe8bWjexxsr2C3qd+aUAI7ziWzUvyTR+B4EA8xkb4AkynN9NI5Uiaiqe6uZTD98k7pwfHntvuOj8ork6UdigAdJYsMNHqFvaVet3HPgGDOYyA55IhbnEO6X7zngvLBovSukERCiidqTioRozvUITDopaYWfOuX1B8TsmDxW+Wy8xZIsZpvjKcMWVu++w02Iw1WdttAmOtyuaegk0VefCPKTPCuRaFLucR4CkaAioG5L43spmcZMl91LBBebaaOp/AYBUuwDf/g2Cn14Y8IgP601SJ83k6T59AUChDzVnrC5xg55t4D0+8I1OFDCPEzHax7Gki4sIxTasLzhiDQUhs1YKGamz475IYADQDZns+VjkQGNGhTXoiD43VNNjsp5+Dr8uxQKxtqS9raLqGdvy9iXi+nCpN+ZVcLvABwAAgKBCFAX79gnW3P1AWVW8alQcP4QGglQ9+UtlmMIQpgm98ef6fXgy09QU8IqAI5gsunIqZWUplynW8/YXm5oAGF7lblxPrPL334qkFhCKxAcYVVwBAAIwIXQbBJvJTSe7wlA+FCXl7BoDBOQCGgQ90cBOB/gqCLQuG4HiHijY2bCBbwDD+cKA2iQXzOxEeAwGYACYd4KjhL30d8BEOH9Rv5Y6jzxF3N1dyxtOU/U3hmoNDcyN6/iuYQl2xvPICxBwc/2tP4kJhhNYyKYeBQAHweQvaZxsSP6zT48l0sLC7PDBDGv7mpEbxJpE/6NiSaPIx1BAVyNC6V5ovXN8B5BMDcPn+dx+trj50vxScwqDOKHbEL0NeESmFi0Cx9Lt8hLgFuY/KRF1USH20ToeJsZZkxZowkqMx2v9dNbRCTVwIKpom2Swxm/LZmDSb16nMclYyhDwpSpB8kHVzcfatIal7KuOxExUdIoDlh6X9Za3VV+fHXkZaz5Paockj3cZNot5zAHIhi9MJqJ6qRhHBPCLyYruJDkMjFEfK4PoXGF67a1k5N6K16R95gm9T1RyR7SjXZX4uT9oeRPRDVWnxAIv6OpCGaNiSM8vileoOF3jqOaIN1QX8bEoOV8T86Gpt316tt3AJbwYcALzHtC/QzvxdLCPLUxvhHTwe+w8k6KA3Dql2IJYPhNAYolTJJ8z9WwiyVM0K/HvXGrq/2ueTJ55nPvvBOvL8bl3s5NuoBpASaBBv+EZmmVEU18z4uyeF4EsDiv4XTbMPFlMjHfw7d0Rw9MWqqUDnMSYc2/si8akNn60RW5e4Ej74mXyfDo+/1++NjhpjmsD3T83whEKzsA6YoAyoDPeaG0/ks3rrrqf09pvAEay5ncAAAAAElFTkSuQmCC;" parent="1" vertex="1">
          <mxGeometry x="-140.19" y="800" width="60" height="60" as="geometry" />
        </mxCell>
        <mxCell id="LNoz9r7LhRh53aWZ0VOm-46" value="" style="endArrow=classic;html=1;rounded=0;exitX=0.5;exitY=1;exitDx=0;exitDy=0;entryX=0.5;entryY=0;entryDx=0;entryDy=0;" parent="1" source="LNoz9r7LhRh53aWZ0VOm-37" target="LNoz9r7LhRh53aWZ0VOm-38" edge="1">
          <mxGeometry width="50" height="50" relative="1" as="geometry">
            <mxPoint x="70" y="650" as="sourcePoint" />
            <mxPoint x="120" y="600" as="targetPoint" />
          </mxGeometry>
        </mxCell>
        <mxCell id="LNoz9r7LhRh53aWZ0VOm-47" value="" style="endArrow=classic;html=1;rounded=0;exitX=0.5;exitY=1;exitDx=0;exitDy=0;entryX=0.5;entryY=0;entryDx=0;entryDy=0;" parent="1" source="LNoz9r7LhRh53aWZ0VOm-36" target="LNoz9r7LhRh53aWZ0VOm-37" edge="1">
          <mxGeometry width="50" height="50" relative="1" as="geometry">
            <mxPoint x="130" y="510" as="sourcePoint" />
            <mxPoint x="180" y="460" as="targetPoint" />
          </mxGeometry>
        </mxCell>
        <mxCell id="LNoz9r7LhRh53aWZ0VOm-48" value="" style="endArrow=classic;html=1;rounded=0;exitX=0.5;exitY=1;exitDx=0;exitDy=0;" parent="1" source="LNoz9r7LhRh53aWZ0VOm-38" target="LNoz9r7LhRh53aWZ0VOm-40" edge="1">
          <mxGeometry width="50" height="50" relative="1" as="geometry">
            <mxPoint x="110" y="720" as="sourcePoint" />
            <mxPoint x="160" y="670" as="targetPoint" />
          </mxGeometry>
        </mxCell>
        <mxCell id="LNoz9r7LhRh53aWZ0VOm-49" value="" style="endArrow=classic;html=1;rounded=0;entryX=0.5;entryY=0;entryDx=0;entryDy=0;exitX=0.5;exitY=1;exitDx=0;exitDy=0;" parent="1" source="LNoz9r7LhRh53aWZ0VOm-23" target="LNoz9r7LhRh53aWZ0VOm-24" edge="1">
          <mxGeometry width="50" height="50" relative="1" as="geometry">
            <mxPoint x="320" y="500" as="sourcePoint" />
            <mxPoint x="370" y="450" as="targetPoint" />
          </mxGeometry>
        </mxCell>
        <mxCell id="LNoz9r7LhRh53aWZ0VOm-50" value="" style="endArrow=classic;html=1;rounded=0;exitX=0.5;exitY=1;exitDx=0;exitDy=0;entryX=0.5;entryY=0;entryDx=0;entryDy=0;" parent="1" source="LNoz9r7LhRh53aWZ0VOm-24" target="LNoz9r7LhRh53aWZ0VOm-26" edge="1">
          <mxGeometry width="50" height="50" relative="1" as="geometry">
            <mxPoint x="320" y="590" as="sourcePoint" />
            <mxPoint x="370" y="540" as="targetPoint" />
          </mxGeometry>
        </mxCell>
        <mxCell id="LNoz9r7LhRh53aWZ0VOm-51" value="" style="endArrow=classic;html=1;rounded=0;entryX=0.5;entryY=0;entryDx=0;entryDy=0;exitX=0.5;exitY=1;exitDx=0;exitDy=0;" parent="1" source="LNoz9r7LhRh53aWZ0VOm-26" target="LNoz9r7LhRh53aWZ0VOm-27" edge="1">
          <mxGeometry width="50" height="50" relative="1" as="geometry">
            <mxPoint x="320" y="690" as="sourcePoint" />
            <mxPoint x="370" y="640" as="targetPoint" />
          </mxGeometry>
        </mxCell>
        <mxCell id="LNoz9r7LhRh53aWZ0VOm-52" value="" style="endArrow=classic;html=1;rounded=0;entryX=0.5;entryY=0;entryDx=0;entryDy=0;" parent="1" target="LNoz9r7LhRh53aWZ0VOm-28" edge="1">
          <mxGeometry width="50" height="50" relative="1" as="geometry">
            <mxPoint x="320" y="770" as="sourcePoint" />
            <mxPoint x="370" y="720" as="targetPoint" />
          </mxGeometry>
        </mxCell>
        <mxCell id="LNoz9r7LhRh53aWZ0VOm-54" value="" style="endArrow=classic;html=1;rounded=0;entryX=0.5;entryY=0;entryDx=0;entryDy=0;" parent="1" target="LNoz9r7LhRh53aWZ0VOm-42" edge="1">
          <mxGeometry width="50" height="50" relative="1" as="geometry">
            <mxPoint x="-110" y="500" as="sourcePoint" />
            <mxPoint x="-60" y="460" as="targetPoint" />
          </mxGeometry>
        </mxCell>
        <mxCell id="LNoz9r7LhRh53aWZ0VOm-55" value="" style="endArrow=classic;html=1;rounded=0;exitX=0.5;exitY=1;exitDx=0;exitDy=0;entryX=0.5;entryY=0;entryDx=0;entryDy=0;" parent="1" source="LNoz9r7LhRh53aWZ0VOm-42" target="LNoz9r7LhRh53aWZ0VOm-43" edge="1">
          <mxGeometry width="50" height="50" relative="1" as="geometry">
            <mxPoint x="-110" y="600" as="sourcePoint" />
            <mxPoint x="-60" y="550" as="targetPoint" />
          </mxGeometry>
        </mxCell>
        <mxCell id="LNoz9r7LhRh53aWZ0VOm-56" value="" style="endArrow=classic;html=1;rounded=0;exitX=0.5;exitY=1;exitDx=0;exitDy=0;entryX=0.5;entryY=0;entryDx=0;entryDy=0;" parent="1" source="LNoz9r7LhRh53aWZ0VOm-43" target="LNoz9r7LhRh53aWZ0VOm-44" edge="1">
          <mxGeometry width="50" height="50" relative="1" as="geometry">
            <mxPoint x="-110" y="690" as="sourcePoint" />
            <mxPoint x="-60" y="640" as="targetPoint" />
          </mxGeometry>
        </mxCell>
        <mxCell id="LNoz9r7LhRh53aWZ0VOm-57" value="" style="endArrow=classic;html=1;rounded=0;exitX=0.5;exitY=1;exitDx=0;exitDy=0;entryX=0.5;entryY=0;entryDx=0;entryDy=0;" parent="1" source="LNoz9r7LhRh53aWZ0VOm-44" target="LNoz9r7LhRh53aWZ0VOm-45" edge="1">
          <mxGeometry width="50" height="50" relative="1" as="geometry">
            <mxPoint x="-110" y="800" as="sourcePoint" />
            <mxPoint x="-60" y="750" as="targetPoint" />
          </mxGeometry>
        </mxCell>
        <mxCell id="LNoz9r7LhRh53aWZ0VOm-58" value="" style="endArrow=classic;html=1;rounded=0;entryX=0.5;entryY=0;entryDx=0;entryDy=0;exitX=0.5;exitY=1;exitDx=0;exitDy=0;" parent="1" edge="1">
          <mxGeometry width="50" height="50" relative="1" as="geometry">
            <mxPoint x="519.31" y="499" as="sourcePoint" />
            <mxPoint x="519.31" y="529" as="targetPoint" />
          </mxGeometry>
        </mxCell>
        <mxCell id="LNoz9r7LhRh53aWZ0VOm-59" value="" style="endArrow=classic;html=1;rounded=0;exitX=0.5;exitY=1;exitDx=0;exitDy=0;entryX=0.5;entryY=0;entryDx=0;entryDy=0;" parent="1" edge="1">
          <mxGeometry width="50" height="50" relative="1" as="geometry">
            <mxPoint x="519.31" y="585" as="sourcePoint" />
            <mxPoint x="519.31" y="615" as="targetPoint" />
          </mxGeometry>
        </mxCell>
        <mxCell id="LNoz9r7LhRh53aWZ0VOm-60" value="" style="endArrow=classic;html=1;rounded=0;entryX=0.5;entryY=0;entryDx=0;entryDy=0;exitX=0.5;exitY=1;exitDx=0;exitDy=0;" parent="1" edge="1">
          <mxGeometry width="50" height="50" relative="1" as="geometry">
            <mxPoint x="519.31" y="675" as="sourcePoint" />
            <mxPoint x="519.31" y="705" as="targetPoint" />
          </mxGeometry>
        </mxCell>
        <mxCell id="LNoz9r7LhRh53aWZ0VOm-63" value="" style="endArrow=classic;html=1;rounded=0;entryX=0.5;entryY=0;entryDx=0;entryDy=0;exitX=0.5;exitY=1;exitDx=0;exitDy=0;" parent="1" edge="1">
          <mxGeometry width="50" height="50" relative="1" as="geometry">
            <mxPoint x="519.31" y="760" as="sourcePoint" />
            <mxPoint x="519.31" y="790" as="targetPoint" />
          </mxGeometry>
        </mxCell>
        <mxCell id="LNoz9r7LhRh53aWZ0VOm-64" value="" style="endArrow=classic;html=1;rounded=0;exitX=0.5;exitY=1;exitDx=0;exitDy=0;" parent="1" edge="1">
          <mxGeometry width="50" height="50" relative="1" as="geometry">
            <mxPoint x="519.31" y="850" as="sourcePoint" />
            <mxPoint x="519.31" y="880" as="targetPoint" />
          </mxGeometry>
        </mxCell>
        <mxCell id="LNoz9r7LhRh53aWZ0VOm-65" value="" style="endArrow=classic;html=1;rounded=0;exitX=0.5;exitY=1;exitDx=0;exitDy=0;" parent="1" edge="1">
          <mxGeometry width="50" height="50" relative="1" as="geometry">
            <mxPoint x="519.31" y="940" as="sourcePoint" />
            <mxPoint x="519.31" y="970" as="targetPoint" />
          </mxGeometry>
        </mxCell>
        <mxCell id="LNoz9r7LhRh53aWZ0VOm-66" value="View Scores" style="text;html=1;align=center;verticalAlign=middle;resizable=0;points=[];autosize=1;strokeColor=none;fillColor=none;" parent="1" vertex="1">
          <mxGeometry x="82.81" y="545" width="90" height="30" as="geometry" />
        </mxCell>
        <mxCell id="LNoz9r7LhRh53aWZ0VOm-67" value="Save Scores to CSV&amp;nbsp;" style="text;html=1;align=center;verticalAlign=middle;resizable=0;points=[];autosize=1;strokeColor=none;fillColor=none;" parent="1" vertex="1">
          <mxGeometry x="57.81" y="635" width="140" height="30" as="geometry" />
        </mxCell>
        <mxCell id="LNoz9r7LhRh53aWZ0VOm-68" value="Start the test" style="text;html=1;align=center;verticalAlign=middle;resizable=0;points=[];autosize=1;strokeColor=none;fillColor=none;" parent="1" vertex="1">
          <mxGeometry x="274.81" y="545" width="90" height="30" as="geometry" />
        </mxCell>
        <mxCell id="LNoz9r7LhRh53aWZ0VOm-69" value="Navigate Questions" style="text;html=1;align=center;verticalAlign=middle;resizable=0;points=[];autosize=1;strokeColor=none;fillColor=none;" parent="1" vertex="1">
          <mxGeometry x="254.81" y="635" width="130" height="30" as="geometry" />
        </mxCell>
        <mxCell id="LNoz9r7LhRh53aWZ0VOm-70" value="Submit the test" style="text;html=1;align=center;verticalAlign=middle;resizable=0;points=[];autosize=1;strokeColor=none;fillColor=none;" parent="1" vertex="1">
          <mxGeometry x="264.81" y="725" width="100" height="30" as="geometry" />
        </mxCell>
        <mxCell id="LNoz9r7LhRh53aWZ0VOm-71" value="Input Student&#39;s Details" style="text;html=1;align=center;verticalAlign=middle;resizable=0;points=[];autosize=1;strokeColor=none;fillColor=none;" parent="1" vertex="1">
          <mxGeometry x="-180.38" y="545" width="140" height="30" as="geometry" />
        </mxCell>
        <mxCell id="LNoz9r7LhRh53aWZ0VOm-72" value="Validate Inputs" style="text;html=1;align=center;verticalAlign=middle;resizable=0;points=[];autosize=1;strokeColor=none;fillColor=none;" parent="1" vertex="1">
          <mxGeometry x="-160.19" y="635" width="100" height="30" as="geometry" />
        </mxCell>
        <mxCell id="LNoz9r7LhRh53aWZ0VOm-73" value="Submit Registration" style="text;html=1;align=center;verticalAlign=middle;resizable=0;points=[];autosize=1;strokeColor=none;fillColor=none;" parent="1" vertex="1">
          <mxGeometry x="-180.38" y="725" width="130" height="30" as="geometry" />
        </mxCell>
        <mxCell id="LNoz9r7LhRh53aWZ0VOm-74" value="Upload CSV File" style="text;html=1;align=center;verticalAlign=middle;resizable=0;points=[];autosize=1;strokeColor=none;fillColor=none;" parent="1" vertex="1">
          <mxGeometry x="464.81" y="540" width="110" height="30" as="geometry" />
        </mxCell>
        <mxCell id="LNoz9r7LhRh53aWZ0VOm-75" value="Verify &lt;br&gt;Matriculation Numbers" style="text;html=1;align=center;verticalAlign=middle;resizable=0;points=[];autosize=1;strokeColor=none;fillColor=none;" parent="1" vertex="1">
          <mxGeometry x="449.81" y="625" width="140" height="40" as="geometry" />
        </mxCell>
        <mxCell id="LNoz9r7LhRh53aWZ0VOm-76" value="Generate &lt;br&gt;Passwords" style="text;html=1;align=center;verticalAlign=middle;resizable=0;points=[];autosize=1;strokeColor=none;fillColor=none;" parent="1" vertex="1">
          <mxGeometry x="479.81" y="715" width="80" height="40" as="geometry" />
        </mxCell>
        <mxCell id="LNoz9r7LhRh53aWZ0VOm-77" value="Send Emails" style="text;html=1;align=center;verticalAlign=middle;resizable=0;points=[];autosize=1;strokeColor=none;fillColor=none;" parent="1" vertex="1">
          <mxGeometry x="474.81" y="805" width="90" height="30" as="geometry" />
        </mxCell>
        <mxCell id="LNoz9r7LhRh53aWZ0VOm-78" value="Confirm&lt;br&gt;&amp;nbsp;Record Creation" style="text;html=1;align=center;verticalAlign=middle;resizable=0;points=[];autosize=1;strokeColor=none;fillColor=none;" parent="1" vertex="1">
          <mxGeometry x="464.81" y="890" width="110" height="40" as="geometry" />
        </mxCell>
      </root>
    </mxGraphModel>
  </diagram>
</mxfile>
